<?xml version="1.0" encoding="utf-8"?>
<!-- Generator: Adobe Illustrator 19.2.1, SVG Export Plug-In . SVG Version: 6.00 Build 0)  -->
<svg version="1.1" id="Layer_1" xmlns="http://www.w3.org/2000/svg" xmlns:xlink="http://www.w3.org/1999/xlink" x="0px" y="0px"
	 viewBox="0 0 44 150" style="enable-background:new 0 0 44 150;" xml:space="preserve">
<style type="text/css">
	.st0{display:none;fill:none;stroke:#FFFFFF;stroke-width:2;stroke-linecap:round;stroke-miterlimit:10;}
	.st1{fill:#5CDBA9;}
	.st2{fill:#5CDBFF;}
	.st3{fill:#42C18E;}
	.st4{fill:#4DC0FF;}
	.st5{fill:#459571;}
	.st6{fill:#457BA4;}
	.st7{fill:#1A9DED;}
	.st8{fill:#1A71ED;}
	.st9{fill:#58595B;}
	.st10{fill:#F9D35B;}
	.st11{fill:#414042;}
	.st12{opacity:0.4;fill:#414042;}
	.st13{fill:#EDDABB;}
	.st14{fill:#DECDB1;}
	.st15{fill:#F8E7D1;}
	.st16{fill:#C4DFED;}
	.st17{fill:#DEF8FF;}
	.st18{fill:#D1F1FF;}
	.st19{fill:#585963;}
	.st20{fill:#FF868A;}
	.st21{fill:#FF9296;}
	.st22{fill:#EC8287;}
	.st23{fill:#272D38;}
	.st24{fill:#F2F2F2;}
	.st25{fill:#59D6D6;}
	.st26{fill:#56C681;}
	.st27{clip-path:url(#SVGID_2_);fill:#E6E6E6;}
	.st28{fill:#54CBCB;}
	.st29{fill:#52BC7A;}
	.st30{fill:#FFD900;}
	.st31{fill:#FFDE00;}
	.st32{fill:#FFA400;}
	.st33{fill:#47413A;}
	.st34{fill:#FFD16A;}
	.st35{fill:#FF888A;}
	.st36{fill:#E1E2E3;}
	.st37{fill:#45AEFF;}
	.st38{fill:#FFC749;}
	.st39{fill:#FF6A71;}
	.st40{fill:#B7B9BB;}
	.st41{fill:#4585FF;}
	.st42{fill:#52597A;}
	.st43{fill:#699BFF;}
	.st44{fill:#64428F;}
	.st45{fill:#FFFFFF;}
	.st46{fill:#5C8BFF;}
	.st47{fill:#D9D9D9;}
	.st48{fill:#49A86E;}
	.st49{fill:#F020D4;}
	.st50{fill:#B363E7;}
	.st51{fill:#FFD684;}
	.st52{fill:#D420C1;}
	.st53{fill:#FFB876;}
	.st54{fill:#A14DD8;}
	.st55{fill:#8248AA;}
	.st56{fill:#77675D;}
	.st57{fill:#C7AB91;}
	.st58{fill:#B59D84;}
	.st59{fill:#675A51;}
	.st60{fill:#9E8774;}
	.st61{fill:#D4B699;}
	.st62{fill:#554650;}
	.st63{fill:#A47C50;}
	.st64{fill:#BDB096;}
	.st65{fill:#BF956C;}
	.st66{fill:#594A42;}
	.st67{fill:#7C37A3;}
	.st68{fill:#733789;}
	.st69{fill:#94C969;}
	.st70{fill:#70B339;}
	.st71{fill:#AF4FE4;}
	.st72{fill:#CCCECF;}
	.st73{fill:#39C24A;}
	.st74{fill:#4EE94A;}
	.st75{fill:#ECEDED;}
	.st76{fill:#559055;}
	.st77{fill:#C766E5;}
	.st78{fill:#AC33D0;}
	.st79{fill:#E4E5E5;}
	.st80{fill:#F6AB40;}
	.st81{fill:#754C29;}
	.st82{fill:#A2A4A7;}
	.st83{opacity:0.3;fill:#FFFFFF;}
	.st84{fill:#755941;}
	.st85{fill:#5AF1FF;}
	.st86{fill:#91FFFF;}
	.st87{fill:#DFB48C;}
	.st88{fill:#537C6B;}
	.st89{fill:#FFD349;}
	.st90{fill:#FFDF71;}
	.st91{fill:#FFE98C;}
	.st92{fill:#D56A5C;}
	.st93{fill:#A4815D;}
	.st94{fill:#B2594E;}
	.st95{fill:#FFD713;}
	.st96{fill:#ECEDDE;}
	.st97{fill:#DFDCCA;}
	.st98{fill:#F0EDDE;}
	.st99{fill:#6D6E71;}
	.st100{fill:#656669;}
	.st101{fill:#E75C54;}
	.st102{fill:#FFA34D;}
	.st103{fill:#56A86C;}
	.st104{fill:#56B2F4;}
	.st105{fill:#FFD569;}
	.st106{fill:#9773C0;}
	.st107{fill:#8E9093;}
	.st108{fill:#EEEFF0;}
	.st109{fill:#A2F1FF;}
	.st110{fill:#C3F6FF;}
</style>
<g>
	<path class="st89" d="M25.82,54.976l1.35,4.726c0.326,1.139-0.53,2.274-1.715,2.274H22.9h-3.715c-1.185,0-2.041-1.134-1.715-2.274
		l1.35-4.726H22H25.82z"/>
	<g>
		<ellipse class="st90" cx="22" cy="28.476" rx="20" ry="26.5"/>
	</g>
	<path class="st89" d="M17,53.954c8.372-3.165,14.5-13.367,14.5-25.478S25.372,6.163,17,2.998c1.748-0.661,3.591-1.022,5.5-1.022
		c11.05,0,20,11.86,20,26.5s-8.95,26.5-20,26.5C20.591,54.976,18.748,54.615,17,53.954z"/>
	<path class="st45" d="M10.727,20.976c-0.12,0-0.241-0.022-0.36-0.067c-0.515-0.199-0.771-0.778-0.572-1.293
		c2.293-5.946,6.901-9.64,12.025-9.64c0.553,0,1,0.448,1,1s-0.447,1-1,1c-4.277,0-8.171,3.203-10.16,8.359
		C11.507,20.732,11.129,20.976,10.727,20.976z"/>
	<path class="st45" d="M9.37,28.476c-0.553,0-1-0.448-1-1c0-1.235,0.099-2.467,0.294-3.662c0.09-0.545,0.596-0.914,1.148-0.825
		c0.545,0.089,0.915,0.603,0.826,1.148c-0.179,1.087-0.269,2.211-0.269,3.338C10.37,28.028,9.922,28.476,9.37,28.476z"/>
	<path class="st91" d="M44,28.476c0-15.715-9.869-28.5-22-28.5S0,12.761,0,28.476C0,41.7,6.989,52.848,16.433,56.05l-0.887,3.104
		c-0.329,1.152-0.104,2.361,0.618,3.317c0.721,0.957,1.822,1.505,3.02,1.505h0.619c-3.447,8.149-4.681,16.193-3.656,23.952
		c0.934,7.089,3.479,11.88,5.939,16.514c2.275,4.283,4.424,8.329,5.328,14.143c0.941,6.022-0.184,16.676-6.163,28.515
		c-0.498,0.985-0.103,2.188,0.884,2.687c0.289,0.146,0.597,0.215,0.899,0.215c0.731,0,1.436-0.401,1.787-1.099
		c6.408-12.686,7.582-24.298,6.545-30.934c-1.007-6.478-3.417-11.015-5.747-15.402c-2.4-4.52-4.667-8.787-5.508-15.161
		C19.118,79.877,20.488,72,24.173,63.976h1.283c1.197,0,2.299-0.548,3.02-1.505c0.722-0.957,0.947-2.166,0.618-3.318l-0.948-3.317
		C37.294,52.381,44,41.427,44,28.476z M24.311,56.976l0.857,3h-5.697l0.857-3H24.311z M22,52.976c-9.925,0-18-10.991-18-24.5
		s8.075-24.5,18-24.5s18,10.991,18,24.5S31.924,52.976,22,52.976z"/>
</g>
</svg>
