<?xml version="1.0" encoding="UTF-8"?>
<svg viewBox="0 0 305.82227 455.56415" xmlns="http://www.w3.org/2000/svg">
 <defs>
  <linearGradient id="b" x1="4.4401" x2="105.45" y1="1103.7" y2="1021.1" gradientTransform="matrix(.51991 .52397 -.31821 .85608 1650.2 -514.3)" gradientUnits="userSpaceOnUse">
   <stop stop-color="#271f00" offset="0"/>
   <stop stop-color="#d4aa00" offset="1"/>
  </linearGradient>
  <linearGradient id="a" x1="1334.8" x2="1361.5" y1="494.42" y2="492.42" gradientUnits="userSpaceOnUse">
   <stop stop-opacity=".4122" offset="0"/>
   <stop stop-opacity=".1832" offset=".2661"/>
   <stop stop-opacity="0" offset="1"/>
  </linearGradient>
 </defs>
 <g transform="translate(9.3397 40.164)">
  <g transform="matrix(.39785 0 0 .39785 -515.07 201.82)">
   <path d="m1371-547.76-69.5 2.0938-30.281 25.625h-0.031v834.69h0.031v18.875l40.375 117.09c0.018 0.0527 0.043 0.10391 0.062 0.15625l29.688 86.062 27.969-84.281 40.906-123.22v-853.56l-39.219-23.531z" fill="#ff0"/>
   <g transform="translate(-.01525 1e-5)">
    <path d="m1410.2 240.38v66.156l-1.1562-1c-4.2561-40.501-19.666-37.285-26.406 6.3125-0.361 2.334-1.6046 4.0312-2.7188 5.0312-0.6561 0.5888-1.38 0.90625-2.125 0.90625-1.2346 0-2.3649-0.89035-3.3125-2.4062-0.6267-1.9456-1.2857-3.7746-2-5.5312l-1.4687-3.3125c-14.35-30.566-42.24-28.009-54.531 8.125l-0.6563 2c-0.588 1.8757-1.1219 3.8298-1.625 5.875-0.7281 1.5157-1.6077 2.4375-2.5624 2.4375-0.4222 0-0.8325-0.176-1.2188-0.5-1.0532-0.8833-1.9316-2.8843-2.5312-5.5625-4.2623-26.212-36.676-42.465-35.906-4.25h-0.75v18.844l40.406 117.12c5.6522 16.229 52.412 17.05 57.656 2l0.062-0.125 40.875-123.16v-88.969h-0.031z" fill="url(#b)"/>
    <path d="m1410.2-524.23-30.281 25.625v815.47c1.1142-1 2.3579-2.6973 2.7188-5.0313 6.7403-43.598 22.15-46.813 26.406-6.3124l1.1563 1z" fill-opacity=".0089"/>
    <path d="m1271.2-520.04v834.69h0.7812c-0.7695-38.215 31.644-21.962 35.906 4.25 0.5998 2.6782 1.478 4.6791 2.5312 5.5624v-820.97z" fill-opacity=".3511"/>
    <path d="m1371-547.75-69.5 2.0938-30.281 25.625 39.188 23.531 69.5-2.125 30.312-25.625-39.219-23.5zm-30.344 10.25c23.848 0 43.188 6.5261 43.188 14.594s-19.339 14.625-43.188 14.625-43.188-6.5574-43.188-14.625 19.339-14.594 43.188-14.594z" fill="#d4aa00"/>
    <path d="m1379.9-498.6-69.5 2.0938v820.97c0.3863 0.324 0.7968 0.5 1.2188 0.5 0.9548 0 1.8343-0.9217 2.5625-2.4374 0.503-2.0452 1.0368-3.9993 1.625-5.875l0.6562-2c12.292-36.134 40.181-38.691 54.531-8.125l1.4687 3.312c0.7143 1.7567 1.3733 3.5857 2 5.5313 0.9476 1.5159 2.0779 2.4063 3.3125 2.4063 0.745 0 1.4689-0.3175 2.125-0.9063z" fill-opacity=".1689"/>
    <path d="m1311.6 450.62 29.728 86.21 28-84.328c-5.014 15.188-52.058 14.396-57.728-1.8814z" fill="url(#a)"/>
   </g>
  </g>
  <g transform="matrix(.39785 0 0 .39785 -641.23 142.81)">
   <path d="m1894.2-451.6-69.5 2.0938-30.281 25.625h-0.031v834.69h0.031v18.875l40.375 117.09c0.018 0.0527 0.043 0.10391 0.062 0.15625l29.688 86.063 27.969-84.281 40.906-123.22v-853.56l-39.219-23.531z" fill="#f00"/>
   <g transform="translate(523.25 96.159)">
    <path d="m1410.2 240.38v66.156l-1.1562-1c-4.2561-40.501-19.666-37.285-26.406 6.3125-0.361 2.334-1.6046 4.0312-2.7188 5.0312-0.6561 0.5888-1.38 0.90625-2.125 0.90625-1.2346 0-2.3649-0.89035-3.3125-2.4062-0.6267-1.9456-1.2857-3.7746-2-5.5312l-1.4687-3.3125c-14.35-30.566-42.24-28.009-54.531 8.125l-0.6563 2c-0.588 1.8757-1.1219 3.8298-1.625 5.875-0.7281 1.5157-1.6077 2.4375-2.5624 2.4375-0.4222 0-0.8325-0.176-1.2188-0.5-1.0532-0.8833-1.9316-2.8843-2.5312-5.5625-4.2623-26.212-36.676-42.465-35.906-4.25h-0.75v18.844l40.406 117.12c5.6522 16.229 52.412 17.05 57.656 2l0.062-0.125 40.875-123.16v-88.969h-0.031z" fill="url(#b)"/>
    <path d="m1410.2-524.23-30.281 25.625v815.47c1.1142-1 2.3579-2.6973 2.7188-5.0313 6.7403-43.598 22.15-46.813 26.406-6.3124l1.1563 1z" fill-opacity=".0089"/>
    <path d="m1271.2-520.04v834.69h0.7812c-0.7695-38.215 31.644-21.962 35.906 4.25 0.5998 2.6782 1.478 4.6791 2.5312 5.5624v-820.97z" fill-opacity=".3511"/>
    <path d="m1371-547.75-69.5 2.0938-30.281 25.625 39.188 23.531 69.5-2.125 30.312-25.625-39.219-23.5zm-30.344 10.25c23.848 0 43.188 6.5261 43.188 14.594s-19.339 14.625-43.188 14.625-43.188-6.5574-43.188-14.625 19.339-14.594 43.188-14.594z" fill="#d4aa00"/>
    <path d="m1379.9-498.6-69.5 2.0938v820.97c0.3863 0.324 0.7968 0.5 1.2188 0.5 0.9548 0 1.8343-0.9217 2.5625-2.4374 0.503-2.0452 1.0368-3.9993 1.625-5.875l0.6562-2c12.292-36.134 40.181-38.691 54.531-8.125l1.4687 3.312c0.7143 1.7567 1.3733 3.5857 2 5.5313 0.9476 1.5159 2.0779 2.4063 3.3125 2.4063 0.745 0 1.4689-0.3175 2.125-0.9063z" fill-opacity=".1689"/>
    <path d="m1311.6 450.62 29.728 86.21 28-84.328c-5.014 15.188-52.058 14.396-57.728-1.8814z" fill="url(#a)"/>
   </g>
  </g>
  <g transform="matrix(.39785 0 0 .39785 -678.85 210.32)">
   <path d="m2199.7-581.71-69.5 2.0938-30.281 25.625h-0.031v834.69h0.031v18.875l40.375 117.09c0.018 0.0527 0.043 0.10391 0.062 0.15625l29.688 86.063 27.969-84.281 40.906-123.22v-853.56l-39.219-23.531z" fill="#0f0"/>
   <g transform="translate(828.72 -33.948)">
    <path d="m1410.2 240.38v66.156l-1.1562-1c-4.2561-40.501-19.666-37.285-26.406 6.3125-0.361 2.334-1.6046 4.0312-2.7188 5.0312-0.6561 0.5888-1.38 0.90625-2.125 0.90625-1.2346 0-2.3649-0.89035-3.3125-2.4062-0.6267-1.9456-1.2857-3.7746-2-5.5312l-1.4687-3.3125c-14.35-30.566-42.24-28.009-54.531 8.125l-0.6563 2c-0.588 1.8757-1.1219 3.8298-1.625 5.875-0.7281 1.5157-1.6077 2.4375-2.5624 2.4375-0.4222 0-0.8325-0.176-1.2188-0.5-1.0532-0.8833-1.9316-2.8843-2.5312-5.5625-4.2623-26.212-36.676-42.465-35.906-4.25h-0.75v18.844l40.406 117.12c5.6522 16.229 52.412 17.05 57.656 2l0.062-0.125 40.875-123.16v-88.969h-0.031z" fill="url(#b)"/>
    <path d="m1410.2-524.23-30.281 25.625v815.47c1.1142-1 2.3579-2.6973 2.7188-5.0313 6.7403-43.598 22.15-46.813 26.406-6.3124l1.1563 1z" fill-opacity=".0089"/>
    <path d="m1271.2-520.04v834.69h0.7812c-0.7695-38.215 31.644-21.962 35.906 4.25 0.5998 2.6782 1.478 4.6791 2.5312 5.5624v-820.97z" fill-opacity=".3511"/>
    <path d="m1371-547.75-69.5 2.0938-30.281 25.625 39.188 23.531 69.5-2.125 30.312-25.625-39.219-23.5zm-30.344 10.25c23.848 0 43.188 6.5261 43.188 14.594s-19.339 14.625-43.188 14.625-43.188-6.5574-43.188-14.625 19.339-14.594 43.188-14.594z" fill="#d4aa00"/>
    <path d="m1379.9-498.6-69.5 2.0938v820.97c0.3863 0.324 0.7968 0.5 1.2188 0.5 0.9548 0 1.8343-0.9217 2.5625-2.4374 0.503-2.0452 1.0368-3.9993 1.625-5.875l0.6562-2c12.292-36.134 40.181-38.691 54.531-8.125l1.4687 3.312c0.7143 1.7567 1.3733 3.5857 2 5.5313 0.9476 1.5159 2.0779 2.4063 3.3125 2.4063 0.745 0 1.4689-0.3175 2.125-0.9063z" fill-opacity=".1689"/>
    <path d="m1311.6 450.62 29.728 86.21 28-84.328c-5.014 15.188-52.058 14.396-57.728-1.8814z" fill="url(#a)"/>
   </g>
  </g>
  <g transform="matrix(.39785 0 0 .39785 -377.69 259.19)">
   <path d="m1655.3-752.43-69.5 2.0938-30.281 25.625h-0.031v834.69h0.031v18.875l40.375 117.09c0.018 0.0527 0.043 0.10391 0.062 0.15625l29.688 86.063 27.969-84.281 40.906-123.22v-853.56l-39.219-23.531z" fill="#00f"/>
   <g transform="translate(284.32 -204.68)">
    <path d="m1410.2 240.38v66.156l-1.1562-1c-4.2561-40.501-19.666-37.285-26.406 6.3125-0.361 2.334-1.6046 4.0312-2.7188 5.0312-0.6561 0.5888-1.38 0.90625-2.125 0.90625-1.2346 0-2.3649-0.89035-3.3125-2.4062-0.6267-1.9456-1.2857-3.7746-2-5.5312l-1.4687-3.3125c-14.35-30.566-42.24-28.009-54.531 8.125l-0.6563 2c-0.588 1.8757-1.1219 3.8298-1.625 5.875-0.7281 1.5157-1.6077 2.4375-2.5624 2.4375-0.4222 0-0.8325-0.176-1.2188-0.5-1.0532-0.8833-1.9316-2.8843-2.5312-5.5625-4.2623-26.212-36.676-42.465-35.906-4.25h-0.75v18.844l40.406 117.12c5.6522 16.229 52.412 17.05 57.656 2l0.062-0.125 40.875-123.16v-88.969h-0.031z" fill="url(#b)"/>
    <path d="m1410.2-524.23-30.281 25.625v815.47c1.1142-1 2.3579-2.6973 2.7188-5.0313 6.7403-43.598 22.15-46.813 26.406-6.3124l1.1563 1z" fill-opacity=".0089"/>
    <path d="m1271.2-520.04v834.69h0.7812c-0.7695-38.215 31.644-21.962 35.906 4.25 0.5998 2.6782 1.478 4.6791 2.5312 5.5624v-820.97z" fill-opacity=".3511"/>
    <path d="m1371-547.75-69.5 2.0938-30.281 25.625 39.188 23.531 69.5-2.125 30.312-25.625-39.219-23.5zm-30.344 10.25c23.848 0 43.188 6.5261 43.188 14.594s-19.339 14.625-43.188 14.625-43.188-6.5574-43.188-14.625 19.339-14.594 43.188-14.594z" fill="#d4aa00"/>
    <path d="m1379.9-498.6-69.5 2.0938v820.97c0.3863 0.324 0.7968 0.5 1.2188 0.5 0.9548 0 1.8343-0.9217 2.5625-2.4374 0.503-2.0452 1.0368-3.9993 1.625-5.875l0.6562-2c12.292-36.134 40.181-38.691 54.531-8.125l1.4687 3.312c0.7143 1.7567 1.3733 3.5857 2 5.5313 0.9476 1.5159 2.0779 2.4063 3.3125 2.4063 0.745 0 1.4689-0.3175 2.125-0.9063z" fill-opacity=".1689"/>
    <path d="m1311.6 450.62 29.728 86.21 28-84.328c-5.014 15.188-52.058 14.396-57.728-1.8814z" fill="url(#a)"/>
   </g>
  </g>
 </g>
</svg>
