<?xml version='1.0' encoding='utf-8'?>
<svg xmlns="http://www.w3.org/2000/svg" version="1.1" id="Capa_1" x="0px" y="0px" viewBox="0 0 576 720" style="enable-background:new 0 0 576 720;"> <style type="text/css"> .st0{fill:#533724;} .st1{fill:#F7CBCB;} .st2{fill:#9D8EB2;} .st3{fill:#CEB080;} .st4{fill:#FFF1E6;} .st5{fill:#9ED4EF;} .st6{fill:#C6AC91;} .st7{fill:#FFFFFF;} .st8{fill:#F9B180;} .st9{fill:#F2C8BF;} .st10{fill:#F2DC7E;} .st11{fill:#22201F;} .st12{fill:#262624;} .st13{fill:#242422;} .st14{fill:#2D2D2B;} .st15{fill:#242321;} .st16{fill:#232321;} .st17{fill:#242221;} .st18{fill:#272624;} .st19{fill:#252422;} .st20{fill:#242322;} .st21{fill:#222220;} .st22{fill:#232220;} .st23{fill:#22211F;} </style> <g> <path class="st0" d="M60.6,553.5c-1.7-1.6-1.8-1.9-0.7-4c16.2-33,33.7-65.2,52.5-96.8c2.7-4.5,5.5-9,8.2-13.6 c0.7-1.2,1.5-1.7,3-1.5c1.6,0.2,3.2-0.1,4.8-0.2c12.2-0.6,24.4-1,36.5-1.2c8.2-0.1,16.5-0.2,24.7-0.1c1.5,0,1.5,0,1.7-1.5 c0.3-2.5,0.3-5,0.9-7.5c0.2-0.8-0.4-1-0.8-1.3c-3.1-2.7-5.3-5.9-6.7-9.8c-3.1-8.9,0.3-18.7,8.6-24c2.3-1.4,3.2-3,3.5-5.6 c0.6-6.4,1.5-12.7,2.3-19.1c0.8-6.5,1.6-12.9,2.5-19.4c0.3-2,0.6-4,0.8-6c0.1-1.3,1.1-2,1.8-2.9c0.2-0.2,0.5-0.3,0.8-0.3 c2.8,0.5,5.4-0.6,8.1-1c2.7-0.4,5.3-0.9,8-1.5c1.7-0.4,3.1,0,4.5,1c5.5,4.1,11.1,8.2,16.6,12.3c0.2,0.1,0.4,0.3,0.6,0.4 c0.5,0.2,1,1.2,1.5,0.5c0.6-0.7-0.5-0.9-0.8-1.3c-4.2-4.1-7.7-8.8-10.3-14.1c-0.5-1-1.1-1.7-1.9-2.4c-7.3-6.7-12.3-14.8-14.3-24.6 c-1.1-5.3-1.2-10.6-0.7-16c0.6-7.2,2.3-14.2,4.4-21.1c0.1-0.3,0.3-0.5,0.1-1c-1.5-0.4-3.2-0.3-4.8-0.6c-1.6-0.3-3.3-0.3-5-0.5 c-0.4,0-0.7-0.1-1.1-0.2c-0.9-0.1-1.6-0.5-1.9-1.5c-0.2-0.9,0.2-1.6,1.2-2.3c2.2-1.4,2.6-2.3,1.7-4.7c-0.8-2.2-2-4.1-3.4-5.9 c-3-3.8-4.7-8.2-5.6-12.9c-0.9-4.8-1-9.7,0.2-14.5c1.7-6.7,5.7-10.3,12.5-11.3c1.2-0.3,2.5-0.1,3.7-0.1c6.4,0,11.4,2.9,16,6.9 c2.5,2.2,4.6,4.8,6.3,7.7c0.7,1.2,1.1,1.1,2,0.2c8.2-7.4,18-11.3,28.8-12.5c16.5-1.9,31.9,1.7,46.1,10.4c1.2,0.8,1.9,0.6,2.7-0.6 c3.2-5.2,7.7-8.9,13.4-11.1c1.7-0.6,3.4-1,5.2-1.1c0.3,0,0.5,0,0.8,0c0.3,0,0.5,0,0.8,0c0.4-0.1,0.8,0.1,1.2-0.2c1.1,0,2.2,0,3.3,0 c0.3,0.3,0.8,0.1,1.2,0.2c0.2,0,0.5,0,0.7,0.1c7.1,1.2,11.2,5.4,12.5,12.9c1.3,7.6,0.3,14.9-3.3,21.9c-0.7,1.3-1.5,2.5-2.4,3.7 c-1.1,1.5-2.1,3-3,4.7c-0.4,0.8-0.7,1.6-0.9,2.4c-0.3,1.6,0.2,2.6,1.6,3.4c0.3,0.2,0.7,0.3,1,0.6c0.6,0.5,0.9,1.2,0.7,2 c-0.2,0.7-0.6,1.2-1.4,1.4c-0.7,0.1-1.5,0.2-2.2,0.3c-1.5,0.2-2.9,0.3-4.4,0.5c1.1,5.2,1.7,10.4,1.9,15.7 c0.5,13.6-2.3,26.5-8.2,38.8c-1.6,3.3-3.5,6.5-6,9.3c-0.4,0.5-0.8,1-1,1.5c-2.7,6.2-6.5,11.7-11.3,16.5c-0.2,0.2-0.4,0.3-0.4,0.7 c0.4,0.3,0.8,0.3,1.2,0c0.4-0.2,0.7-0.5,1.1-0.7c6.1-4,12.3-8,18.4-12c1.4-0.9,2.8-1.7,4.2-2.6c0.6-0.3,1.2-0.3,1.8-0.1 c3,1,6.1,1.6,9.2,1.8c0.4,0,0.9,0.1,1.2,0.4c0.2,0.2,0.4,0.5,0.8,0.3c0.7-0.4,1.5-0.5,2,0.2c0.7,0.8,1.6,1.5,1.7,2.7 c0.1,1.1,0.3,2.2,0.4,3.3c1,8.3,2.1,16.6,3.1,24.9c0.8,6.2,1.5,12.3,2.3,18.5c0.1,1.1,0.6,1.8,1.6,2.4c5.7,3.3,9.6,8.1,10.8,14.6 c1.3,6.8-0.7,12.6-5,17.8c-0.2,0.2-0.4,0.4-0.6,0.7c-0.8,1-2.3,1.5-2.4,2.6c-0.1,1.1,0.2,2.4,0.4,3.6c0.1,1,0,2.2,0.5,2.8 c0.6,0.7,2,0.4,3,0.4c10.3,0.3,20.5,0.6,30.8,0.9c4.6,0.2,9.2,0.1,13.8,0.7c3.4,0.4,6.2,1.9,8.3,4.6c1.8,2.3,3.4,4.6,5,7.1 c8.9,13.8,18.3,27.3,27.6,40.8c13.1,18.9,26.4,37.5,40,56c0.5,0.7,1,1.3,1.5,2c0,0.6,0,1.2,0,1.8c-0.3,1.2-1.2,1.5-2.2,1.6 c-6.8,1.1-13.7,1.9-20.5,2.7c-8,0.9-16,1.5-24.1,2.1c-5.2,0.4-10.4,0.6-15.7,0.9c-8.4,0.5-16.7,0.5-25.1,1c-0.4,0-0.7,0-1.1,0 c-25,0.3-50,0.3-75,0.1c-7.2,0-14.4,0.1-21.6-0.2c-11.2-0.3-22.4-0.5-33.6-0.7c-10.1-0.3-20.3-0.5-30.4-0.7 c-10.9-0.3-21.8-0.5-32.7-0.7c-10.6-0.3-21.2-0.5-31.7-0.7c-10.7-0.3-21.4-0.5-32.1-0.7c-8.2-0.2-16.5-0.4-24.7-0.7 c-13-0.6-26.1-0.4-39.1-0.2c-10,0.1-20,1.1-30,2.6C62.6,554.1,61.5,554.4,60.6,553.5z"/> <path class="st1" d="M431.4,450.3c0,0.1,0,0.2,0.1,0.3c0.1,0.1,0.2,0.3,0.3,0.4c2.5,4.2,5.3,8.1,8.1,12.1 c18.4,27.2,37.3,54,56.6,80.4c0.4,0.5,0.7,1.1,1.2,1.8c-3.2,0.4-6.2,0.9-9.1,1.3c-7.6,1-15.3,1.8-22.9,2.5 c-7.5,0.7-15.1,1.2-22.6,1.6c-13.6,0.8-27.3,1.1-41,1.3c-10.8,0.1-21.7,0.1-32.5,0.1c-11.7-0.1-23.4-0.2-35.1-0.4 c-17.8-0.3-35.6-0.5-53.3-1c-13.8-0.3-27.6-0.6-41.3-0.9c-14.6-0.4-29.2-0.7-43.7-1.1c-14.3-0.4-28.7-0.7-43-1.1 c-15-0.5-30-1.1-45-1c-10,0-20.1,0.4-30.1,1.2c-3.9,0.3-7.8,0.7-11.7,1.3c-0.5,0.1-1,0.2-1.5,0c0-0.7,0.5-1.3,0.8-2 c14.7-29.7,30.5-58.8,47.4-87.4c3.2-5.5,6.6-10.8,9.7-16.3c0.8-1.3,1.6-1.9,3.1-1.9c8.5-0.4,17.1-0.8,25.6-1c0.4,0,0.7,0,1.1,0 c0.1,0.5,0.1,0.9,0.3,1.3c0.3,0.8,1,1.3,1.9,1.2c0.9-0.1,1.7-0.5,1.7-1.4c0-1.2,0.6-1.3,1.6-1.3c10.7-0.2,21.4-0.2,32.1-0.1 c0.2,0,0.4,0.1,0.7,0.1c0,2.4-0.4,4.7-0.6,7.1c-0.1,1.8-0.4,3.7-0.5,5.5c-0.2,1.9,0,2.2,1.7,3c1.8,0.8,3.6,1.6,5.4,2.5 c0.5,0.2,1.1,0.5,1.6,0.8c-0.5,0.7-1.2,1.1-1.9,1.6c-6.2,4.8-12.4,9.5-18.6,14.3c-2.8,2.2-5.7,4.2-8.9,5.9 c-4.5,2.4-9.4,3.6-14.5,3.6c-4.7,0-9.3-0.4-14-0.6c-1.9-0.1-3.8-0.1-5.7,0.2c-4.7,0.6-7.5,3.6-7.9,8.3c-0.3,3.3,0.4,6.5,1.9,9.5 c0.1,0.3-0.1,0.5-0.3,0.6c-0.4,0.2-0.8,0.2-1.2,0.4c-0.6,0.4-1,0.9-0.8,1.7c0.2,0.6,0.7,1,1.4,1c0.7,0,1.1-0.5,1.2-1.2 c0-0.2,0.1-0.5,0.1-0.7c0.1-0.2,0.1-0.3,0.3-0.5c0.2-0.1,0.3,0,0.4,0.2c1.8,2.9,4.2,5.2,6.9,7.4c3.9,3.2,8.2,5.8,12.6,8.4 c5.3,3.1,10.6,6,15.7,9.3c1.9,1.2,4,2.2,6.1,3c4,1.5,7.8,1.2,11.6-0.7c2.7-1.4,5.2-3.1,7.4-5.1c13.9-12.3,28.6-23.7,42.9-35.6 c4.2-3.5,8.4-6.9,12.5-10.3c0.8-0.6,1.3-0.8,2.3-0.4c7.9,3.3,15.7,6.7,23.5,10.3c0.5,0.2,1,0.4,1.4,0.8c2.3,2.6,5.5,3.4,8.7,3.9 c4,0.6,8,0.4,12,0c0.8-0.1,1.4-0.4,2.1-0.7c8.2-4,16.5-8,24.7-12c0.8-0.4,1.3-0.6,2.1,0c12.3,10,25.3,19.2,38,28.7 c4.6,3.5,9,7.3,13.5,10.9c2.6,2.1,5.3,4.1,8.1,5.8c4,2.5,8.2,3,12.7,1.4c1.7-0.6,3.4-1.4,5-2.3c7.8-4.5,15.7-9,23.3-13.8 c3.8-2.4,7.4-4.9,10.4-8.2c2.8-3,4.8-6.4,5.5-10.5c0.3-1.7,0.4-3.4,0.1-5.1c-0.7-4.3-3.6-6.9-8.2-7.5c-3.6-0.5-7.2-0.1-10.9,0.2 c-4.5,0.4-9.1,0.7-13.6,0.1c-4.5-0.5-8.6-2.2-12.2-4.8c-8.4-5.9-16.7-12-25.1-17.9c-0.2-0.1-0.4-0.2-0.4-0.7c1.3-0.6,2.8-1.3,4.2-2 c2.2-1,2.2-1.1,2-3.5c-0.4-4.9-0.9-9.8-1.4-14.7c0.6-0.5,1.3-0.2,2-0.2c8.4,0.2,16.9,0.5,25.3,0.7c4.9,0.1,9.7,0.1,14.6,0.3 c1.7,0.1,3.3,0.2,5,0.4c2,0.2,3.8,1.1,5.2,2.6c1,1,1.7,2.1,2.5,3.2c1,1.5,2.1,3,3.1,4.6c0.1,0.1,0.2,0.3,0.3,0.4l0,0 C431.2,449.9,431.4,450,431.4,450.3z"/> <path class="st2" d="M360.5,388.8c-2.7,0.7-4.5,2.4-6,4.6c-2.3,3.3-3.7,7.1-4.5,11c-1.1,5.5-1,10.9,0.5,16.3c0.3,1,0.6,2,1.1,2.9 c2.9,6,7.3,7.3,12.9,6.4c1.2-0.2,2.5-0.7,3.8-1.1c0.5,1.5,0.4,3,0.5,4.4c0.6,5.9,1.1,11.9,1.7,17.8c0.1,1.1-0.2,1.6-1.2,2.1 c-24.1,11.4-47.8,23.6-71.9,35.1c-0.7,0.3-1.3,0.7-2.2,0.9c-0.1-2.5-0.3-5-0.4-7.5c-0.8-18.1-1.3-36.2-1.3-54.3 c0-14.5,0.3-29,0.8-43.6c0-1.1,0.4-1.6,1.3-2.2c20.7-11.7,41-24.1,61-37c0.4-0.3,0.8-0.6,1.4-0.6c0.4,3.2,0.8,6.4,1.2,9.5 c0.9,7.5,1.9,15,2.8,22.5c0.5,3.7,0.9,7.5,1.3,11.2c0.3,0.9,0.1,1.4-1,1.3C361.9,388.6,361.2,388.5,360.5,388.8z"/> <path class="st2" d="M206,343.8c1.7,1.1,3.1,2,4.5,2.9c19.2,12.3,38.7,24.2,58.6,35.4c1.3,0.7,1.8,1.5,1.8,3 c-0.1,28.7,0,57.4,0,86.1c0,4.5-0.6,9.1-0.2,13.6c-0.4,0.3-0.7,0.2-1,0c-17.1-7.8-34.7-14.5-52.1-21.6c-7.7-3.2-15.3-6.4-22.8-9.9 c-0.8-0.4-1.2-0.8-1.1-1.8c0.7-7.2,1.4-14.5,2.1-21.7c0-0.2,0.1-0.5,0.2-0.8c1.1,0.3,2.2,0.7,3.3,0.9c6.4,1.5,11.2-1,13.7-7 c1.5-3.5,1.9-7.2,1.9-11c0.1-5.6-1-10.9-3.5-15.9c-0.5-1-1.1-1.9-1.7-2.8c-2.2-3-4.9-5-9.1-4.5C202.2,373.8,204.1,359,206,343.8z"/> <path class="st3" d="M336.1,318.9c0.4-4.6,0.6-9.2,0.1-13.8c-0.3-2.7-0.6-5.4-1.1-8c-0.2-0.8-0.2-1.3,0.7-1.9c1.5-1,1-3-0.8-3.5 c-3.7-1-7.4-2-11-3c-3.4-1-6.9-2-10.2-3.3c-1.9-0.8-3.8-1.7-5.5-2.9c-2.4-1.7-4.1-3.9-4.8-6.8c-0.4-1.4-0.8-1.8-1.7-1.8 c-1,0-1.8,0.5-2.1,1.9c-0.3,1.2-1.1,1.7-2.1,2.1c-1.2,0.4-2.5,0.6-3.8,0.6c-19.9,0.2-35.1-8-45.4-25.1c-0.9-1.6-1.7-3.3-2.4-5 c-0.5-1.2-1.2-1.6-2.3-1.5c-1.3,0.1-1.9,0.9-1.6,2.2c0.1,0.5,0.3,0.9,0.5,1.4c3,7,7.3,13.1,12.9,18.2c0.5,0.5,1,0.9,1.5,1.3 c0,0.6-0.4,0.9-0.7,1.2c-4.2,4.9-8.4,9.8-13.5,13.9c-3.4,2.7-7,5-11,6.6c-2.2,0.9-2.5,1.6-1.5,3.7c0.3,0.6,0,0.9-0.1,1.4 c-2.1,6.5-2.7,13.2-2.2,20c0.2,2.5,0.7,4.9,1.1,7.3c0.1,0.2,0.1,0.3-0.1,0.4c-2.6-2.8-4.4-6.2-5.9-9.7c-2.6-6.1-3.6-12.6-3.1-19.1 c1.2-16.8,6.1-32.5,14-47.4c3.1-5.9,7.3-11.1,12.4-15.4c6.3-5.3,13.7-8.5,21.7-9.9c17.9-3.1,34.5,0.5,49.5,10.7 c11.3,7.8,18.5,18.7,22.3,31.8c5.3,18.5,4.3,36.7-3.5,54.4C335.6,319.9,336.1,319.4,336.1,318.9z"/> <path class="st4" d="M331.3,297.7c0.7,4.9,1.3,9.9,1.1,14.9c-0.1,2.1-0.1,1.7-1.7,1.8c-5.7,0.4-10,3.1-13.3,7.7 c-3.7,5.1-5.2,11-5,17.2c0.1,3.6,0.9,7.1,2.7,10.2c0.5,0.9,0.3,1.4-0.5,1.9c-5.5,4.2-11.8,6.9-18.6,8c-11.8,2-23.4,0.8-34.7-3.3 c-4.8-1.8-9.2-4.4-13.1-7.9c2.1-3.2,3.3-6.7,3.6-10.4c0.6-7.5-1.1-14.4-6.1-20.3c-3.2-3.9-7.4-6-12.5-6.2c-1.6-0.1-1.6-0.1-1.5-1.6 c0.4-4.9,1.4-9.7,3.1-14.4c0.3-0.7,0.6-1.1,1.3-1.5c6.4-3.1,11.6-7.6,16.4-12.7c2.4-2.5,4.7-5.2,7-7.9c0.6-0.8,1.1-0.8,1.9-0.3 c6.9,4.7,14.4,7.6,22.7,8.7c4,0.5,8,0.7,12,0.1c1.7-0.2,3.4-0.7,4.9-1.7c0.5,0.7,1,1.4,1.6,2.1c3.9,4.8,9.9,6.6,15.6,8.3 c2.9,0.8,5.7,2,8.5,2.8C329.3,294.3,330.9,294.6,331.3,297.7z"/> <path class="st5" d="M242,477.2c-0.1,0.6-0.6,0.8-1,1.1c-13.5,11-26.9,22.1-40.4,33.1c-0.9,0.8-1.8,1.1-3,0.9 c-5.8-0.9-10.3-4.1-14.3-8.1c-2.2-2.3-4.2-4.8-6.1-7.4c-2.8-3.7-5.4-7.5-8.3-11c0-0.6,0.6-0.6,0.9-0.8c3.5-1.8,6.7-4.1,9.8-6.5 c7.3-5.6,14.5-11.2,21.8-16.8c0.6-0.5,1.1-0.8,1.9-0.4c12.5,5.5,25.2,10.4,37.8,15.6C241.5,477,241.7,477.1,242,477.2z"/> <path class="st5" d="M396.6,482.8c-0.1,0.2-0.1,0.4-0.2,0.6c-3.4,4.5-6.8,9.1-10.2,13.6c-2.2,2.8-4.6,5.5-7.4,7.7 c-3.5,2.8-7.4,4.6-11.9,5.1c-0.8,0.1-1.4,0-2.1-0.5c-12.2-9.3-24.8-18.2-36.9-27.7c-0.9-0.7-1.7-1.4-2.7-2.2c2-1,3.8-1.9,5.6-2.8 c10.6-5.2,21.2-10.4,31.7-15.6c1.2-0.6,2-0.5,3.1,0.3c6,4.4,12.1,8.7,18.2,13c1.1,0.8,2.2,1.6,3.2,2.5 C390,478.9,393.1,481.1,396.6,482.8z"/> <path class="st6" d="M167,489.7c2.7,3.1,5,6.5,7.5,9.8c2.3,3,4.6,5.9,7.4,8.5c3.6,3.5,7.7,6.3,12.7,7.6c0.2,0,0.3,0.2,0.4,0.3 c-0.1,0.1-0.1,0.3-0.1,0.4c-3.9,3.2-7.8,6.4-11.7,9.6c-2.1,1.6-4.5,2.8-7.3,2.7c-1.4-0.1-2.8-0.4-4.1-1c-1.2-0.5-2.5-1.1-3.6-1.8 c-7.5-4.4-15.1-8.9-22.6-13.3c-3.2-1.9-6.2-4-8.9-6.5c-3-2.9-5.4-6.1-6-10.3c-0.1-0.7-0.2-1.3-0.1-2c0.1-3,1.7-4.8,4.6-5.3 c1.8-0.3,3.6-0.4,5.3-0.3c3.3,0.1,6.5,0.3,9.8,0.4c0.9,0,1.4,0.3,1.9,1.1c0.6,1,1.5,1.8,2.1,2.8c1.1,2.3,1.3,4.7,0.3,7.1 c-0.2,0.4-0.4,0.8-0.5,1.2c-0.3,1.2,0.1,2.1,1.2,2.5c1,0.4,1.8,0.1,2.4-1.1c1.9-3.9,1.9-7.8,0-11.7c-0.3-0.5-0.6-1.1-1-1.7 c1.2-0.4,2.5-0.3,3.6-0.4c0.4-0.1,0.6,0.4,0.8,0.6c2.8,3.3,3.6,7,2.5,11.2c-0.1,0.2-0.2,0.5-0.2,0.7c-0.3,1.3,0,2,1.1,2.4 c1.1,0.3,2.2,0,2.6-1.1c0.9-2.2,1.2-4.5,0.9-6.9c-0.2-1.7-0.7-3.4-1.3-5C166.5,489.7,166.6,489.6,167,489.7z"/> <path class="st6" d="M398.6,487.9c-1.1,3.3-1.6,6.7-0.5,10.1c0.1,0.3,0.1,0.6,0.3,0.9c0.5,1.2,1.5,1.8,2.6,1.4 c1.2-0.4,1.5-1.2,1.1-2.7c-0.7-2-0.8-4.1-0.4-6.2c0.4-2.2,1.5-4,2.9-5.7c0.4-0.5,0.8-0.5,1.3-0.4c1,0.1,1.9,0.2,2.9,0.4 c0,0.7-0.5,1.1-0.8,1.6c-2,3.9-2,7.9-0.1,11.9c0.6,1.2,1.5,1.5,2.6,1c1-0.5,1.4-1.5,1-2.7c-0.1-0.3-0.3-0.6-0.4-0.8 c-0.3-0.7-0.5-1.5-0.6-2.3c-0.3-2.6,0.6-4.8,2.1-6.9c1.1-1.5,2.3-2.1,4.2-2.1c3.4-0.1,6.9-0.3,10.3-0.3c0.9,0,1.7,0,2.6,0.1 c3.6,0.4,5.8,3.2,5.4,6.8c-0.3,3-1.6,5.7-3.4,8c-1.7,2.2-3.7,4-5.8,5.6c-3.3,2.5-6.8,4.6-10.4,6.7c-5.6,3.3-11.2,6.6-16.8,9.9 c-1.3,0.8-2.7,1.5-4.1,2.2c-3.4,1.6-6.8,1.5-10.1-0.3c-0.9-0.5-1.8-1.1-2.6-1.7c-3.8-2.7-7.4-5.7-11-8.7c-0.2-0.2-0.5-0.3-0.5-0.8 c8-2,13.5-7.3,18.5-13.5c2.8-3.6,5.5-7.2,8.3-10.8c0.5-0.6,1-1.2,1.5-1.8C398.8,487.2,398.8,487.5,398.6,487.9z"/> <path class="st3" d="M214.2,265.5c1.3-3.4,0.8-6.4-0.9-9.2c-1.1-2-2.5-3.8-3.7-5.7c-4.4-6.9-5.4-14.4-3.6-22.3 c1.3-6,5.2-9.1,12.5-8.4c5.6,0.5,10.1,3.2,14,7.1c2.3,2.3,4.1,4.9,5.6,7.8c0.3,0.7,0.3,1.1-0.2,1.6c-7.1,8.3-11.5,18.1-15.1,28.3 c-0.1,0.3-0.3,0.7-0.4,1c-0.1,0.5-0.4,0.7-0.9,0.6c-0.7-0.1-1.3-0.1-2-0.2C217.8,265.9,216.1,265.7,214.2,265.5z"/> <path class="st2" d="M289.9,446.7c0,5.6,0.3,14.6,0.6,23.7c0,1.3,0,1.3-1.3,1.2c-4.4-0.2-8.7-0.3-13.1-0.2c-1.4,0-1.4,0-1.5-1.4 c0-2.8,0-5.7,0-8.5c0-10.1,0-20.2,0-30.3c0-4.9,0-9.7,0.1-14.6c0-1.6,0-1.6,1.6-1.7c4-0.5,8.1-0.6,12.2-0.4 c1.3,0.1,1.3,0.1,1.3,1.4C289.6,425.1,289.7,434.2,289.9,446.7z"/> <path class="st3" d="M346.7,265.3c-0.2,0.2-0.6,0.2-0.9,0.3c-1.7,0.3-1.7,0.3-2.3-1.4c-3-9.9-7.9-18.8-15.1-26.3 c-1.6-1.6-3.3-3.2-5-4.6c-0.5-0.4-0.8-0.7-0.4-1.5c4.5-9,14.4-13.5,23.5-11.9c5.1,0.9,7.8,4.2,8.7,9c1.5,7.9,0.5,15.3-4,22.1 c-0.9,1.4-1.9,2.7-2.8,4.1C346.2,258.7,345.7,261.2,346.7,265.3z"/> <path class="st4" d="M210.9,411.9c-0.1,2.9-0.4,5.9-1.4,8.8c-1.6,5-5.4,6.7-10.1,5.2c-6.2-2-10.1-6.3-11.3-12.6 c-1.7-8.3,3-16.8,10.7-19.7c0.2-0.1,0.5-0.2,0.7-0.3c2.9-1.3,5-0.8,6.9,1.7c1.6,2.1,2.5,4.6,3.2,7.2 C210.4,405.3,210.9,408.6,210.9,411.9z"/> <path class="st4" d="M353.2,411.6c0.3-5,1-10,3.3-14.6c0.6-1.2,1.3-2.4,2.4-3.3c1.6-1.4,3.4-1.7,5.3-0.8c0.7,0.3,1.5,0.6,2.2,1 c6.6,3.3,9.9,8.7,10,16c0,7-3.2,12.1-9.5,15.2c-1.3,0.7-2.8,1.1-4.2,1.2c-3.2,0.4-5.8-1.1-7.3-3.9c-1-1.9-1.5-4-1.7-6.2 C353.4,414.8,353.3,413.2,353.2,411.6z"/> <path class="st7" d="M274.8,379.6c-1.5-0.3-2.7-1.5-4.4-1.2c-0.3,0.1-0.6-0.3-1-0.5c-19.4-11.1-38.6-22.6-57.4-34.8 c-0.3-0.2-0.7-0.3-0.8-0.9c2.6-0.5,5.2-0.8,7.7-1.5c2.6-0.8,4.6,0,6.7,1.6c16.3,12.1,32.6,24.2,48.7,36.5c0.1,0.1,0.3,0.2,0.4,0.4 c0.1,0.1,0.1,0.2,0.1,0.3C274.9,379.5,274.9,379.6,274.8,379.6z"/> <path class="st8" d="M308.5,360.4c-3.3,2.2-6.7,4.4-10,6.6c-5.6,3.7-11.2,7.3-16.8,11c-0.7,0.5-1.3,0.6-2.1,0 c-9.7-7.4-19.4-14.7-29.1-22c-0.1-0.1-0.3-0.3-0.4-0.4c0-0.3,0.1-0.5,0.5-0.4c4.6,2.8,9.4,5.1,14.6,6.5c12.6,3.4,25.1,3.8,37.7,0.2 c1.8-0.5,3.5-1.2,5.2-1.9C308.5,359.8,308.5,360,308.5,360.4z"/> <path class="st7" d="M284.9,380.7c0.3-0.6,0.9-0.8,1.3-1.1c19.7-12.8,39.4-25.6,59-38.4c0.4-0.3,0.7-0.7,1.3-0.5 c2.1,0.7,4.2,1.1,6.5,1.4c-0.3,0.7-0.8,0.9-1.3,1.1c-18.5,11.9-37.3,23.3-56.4,34.2c-0.8,0.4-1.4,0.9-2.4,0.6 c-0.7-0.2-1.3,0.2-1.9,0.5C289.2,379.6,287.2,380.4,284.9,380.7z"/> <path class="st9" d="M245.2,345.7c-6.8-6.9-11.1-14.9-12.8-24.2c-0.3-1.4-0.4-2.9-0.6-4.4c-0.2-1.8-0.1-1.9,1.7-1.7 c3.8,0.4,6.9,2,9.4,4.9c2.3,2.6,3.7,5.7,4.4,9c1,4.5,1,8.9-0.6,13.3C246.4,343.6,246,344.6,245.2,345.7z"/> <path class="st2" d="M274.9,384c0.4-0.2,0.8,0,1.2,0.1c4.3,1.1,8.6,1,12.9-0.4c0.3-0.1,0.6-0.2,0.9-0.3c0.4-0.1,0.6,0.1,0.7,0.5 c0.1,0.2,0,0.5,0,0.7c-0.2,5.5-0.4,10.9-0.5,16.4c0,0.8-0.2,1.2-1.1,1.2c-4.4-0.1-8.7,0.1-13.1,0.6c-0.7,0.1-1.1,0-1.1-0.9 c0-5.8,0-11.7,0-17.5C274.8,384.3,274.8,384.2,274.9,384z"/> <path class="st9" d="M318.7,347.9c-1.6-2.8-2.2-5.5-2.3-8.4c-0.3-5,0.7-9.7,3.3-13.9c2.4-3.9,5.7-6.4,10.2-7.2c0.6-0.1,1.2-0.2,2,0 C330.5,329.6,326.6,339.5,318.7,347.9z"/> <path class="st2" d="M284.5,483c1.8,0,3.7,0,5.5,0.3c0.7,0.1,1.1,0.2,1.1,1.1c0,1.8,0.2,3.6,0.3,5.3c0.1,0.7-0.1,1.1-1,1.1 c-4.3,0.3-8.6-0.1-12.7-1.6c-1.9-0.7-3-2-3.1-4.1c-0.1-1.3-0.1-1.3,1.2-1.5C278.7,483.2,281.6,483,284.5,483z"/> <path class="st10" d="M274.9,411.3c-0.3-0.9-0.2-1.9-0.2-2.8c0-1.7,0-1.7,1.6-1.9c3.5-0.3,7.1-0.5,10.7-0.5c0.7,0,1.4,0,2,0 c0.6,0,0.8,0.2,0.9,0.8c0.3,3.7,0.3,3.7-3.5,3.6C282.6,410.5,278.8,410.8,274.9,411.3z"/> <path class="st10" d="M274.8,479.6c0-0.1-0.1-0.1-0.1-0.2c-0.1-1.3-0.5-2.8,0.2-3.8c0.7-0.9,2.3-0.4,3.5-0.4 c3.7-0.1,7.5,0.1,11.2,0.3c0.9,0,1.2,0.3,1.2,1.2c0,3.1,0.5,2.6-2.4,2.5c-4-0.2-8-0.1-12,0.4C275.9,479.7,275.4,479.8,274.8,479.6z "/> <path class="st11" d="M314.5,492.3c1.1,0,2,0.9,1.9,2c0,1.1-0.8,1.9-1.9,1.9c-1.1,0-1.8-0.7-1.9-1.8 C312.6,493.2,313.4,492.3,314.5,492.3z"/> <path class="st12" d="M92.6,513.4c0-1.1,0.8-1.9,1.8-1.9c1.1,0,2,0.9,1.9,2c0,1.1-0.9,1.9-1.9,1.9 C93.4,515.5,92.6,514.6,92.6,513.4z"/> <path class="st13" d="M407.3,441.8c0,1.2-0.8,2-1.9,2c-1,0-1.8-0.8-1.9-1.9c0-1.1,0.8-2,1.9-2C406.5,440,407.2,440.7,407.3,441.8z"/> <path class="st14" d="M431.1,451.9c0,1.2-0.8,1.9-2,1.9c-1.1,0-1.8-0.9-1.8-2.1c0.1-1.1,0.8-1.8,1.9-1.8 C430.4,449.9,431.1,450.8,431.1,451.9z"/> <path class="st12" d="M388.1,458.1c0-1.2,0.8-2,1.9-2c1,0,1.8,0.8,1.9,1.9c0,1.1-0.8,2-1.9,2C388.9,460,388.2,459.2,388.1,458.1z"/> <path class="st15" d="M219.5,537.3c0,1.1-0.7,1.9-1.8,1.9c-1.2,0-2-0.7-1.9-1.9c0-1.1,0.7-1.9,1.8-1.9 C218.7,535.4,219.5,536.1,219.5,537.3z"/> <path class="st15" d="M468.8,537.4c0,1.1-0.7,1.8-1.8,1.8c-1.2,0-1.9-0.8-1.9-2c0-1.1,0.7-1.8,1.8-1.9 C468.1,535.4,468.8,536.2,468.8,537.4z"/> <path class="st12" d="M74,541.2c0,1.1-0.8,1.9-1.8,1.9c-1.1,0-2-0.9-1.9-2c0-1.1,0.8-1.9,1.9-1.9C73.2,539.2,74,540,74,541.2z"/> <path class="st15" d="M422.6,541.2c0,1.2-0.8,2-1.9,2c-1,0-1.8-0.9-1.8-2c0-1.2,0.8-2,1.9-2C421.9,539.3,422.6,540.1,422.6,541.2z"/> <path class="st16" d="M152.3,533.9c1.1,0,1.8,0.8,1.8,1.9c0,1.2-0.8,2-2,1.9c-1.1,0-1.9-0.9-1.8-2.1 C150.4,534.5,151.2,533.8,152.3,533.9z"/> <path class="st13" d="M440.3,515c0,1.1-0.8,1.9-1.8,1.9c-1.1,0-1.9-0.8-1.9-2c0-1.1,0.8-1.9,1.8-1.9 C439.5,513,440.4,513.9,440.3,515z"/> <path class="st17" d="M154.8,473.5c0,1.1-0.7,1.8-1.8,1.8c-1.2,0-1.9-0.8-1.9-2c0-1.1,0.8-1.8,1.9-1.8 C154.1,471.5,154.9,472.3,154.8,473.5z"/> <path class="st16" d="M110.9,478.9c0,1.1-0.7,1.9-1.8,1.9c-1.1,0-2-0.9-1.9-2c0-1.1,0.9-2,2-1.9C110.3,477,111,477.7,110.9,478.9z"/> <path class="st18" d="M241.8,505c0,1.1-0.7,1.9-1.8,2c-1.1,0.1-2-0.8-2-2c0-1.1,0.9-2,2-2C241,503.1,241.8,503.9,241.8,505z"/> <path class="st19" d="M368,541.3c0,1.1-0.8,1.9-1.9,1.9c-1.1,0-1.9-0.9-1.9-2.1c0-1.1,0.9-1.9,1.9-1.9 C367.2,539.2,368,540.1,368,541.3z"/> <path class="st20" d="M318.8,541.2c0,1.1-0.8,1.9-1.8,2c-1.1,0-1.9-0.8-1.9-2c0-1.2,0.9-2,2-1.9 C318.1,539.3,318.8,540.1,318.8,541.2z"/> <path class="st21" d="M174,451.9c0,1.1-0.7,1.9-1.8,1.9c-1.1,0-2-0.8-1.9-2c0-1.1,0.8-1.9,1.8-1.9 C173.3,449.9,174.1,450.8,174,451.9z"/> <path class="st22" d="M340.3,508.1c0,1.1-0.7,1.8-1.8,1.9c-1.2,0-1.9-0.8-1.9-2c0-1.2,0.9-1.9,2-1.9 C339.6,506.2,340.3,507,340.3,508.1z"/> <path class="st16" d="M137.1,453.4c0,1.2-0.7,2-1.9,1.9c-1.1,0-1.8-0.8-1.8-1.9c0-1.2,0.8-2,1.9-1.9 C136.4,451.6,137.1,452.3,137.1,453.4z"/> <path class="st15" d="M108.4,539.2c-1.1,0-2-0.8-1.9-2c0-1.1,0.8-1.9,1.8-1.9c1.2,0,1.9,0.7,1.9,1.9 C110.1,538.5,109.5,539.2,108.4,539.2z"/> <path class="st22" d="M424.9,473.4c0,1.2-0.6,1.9-1.7,1.9c-1.2,0.1-2-0.7-2-1.9c0-1.2,0.8-2,1.9-2 C424.2,471.5,424.9,472.3,424.9,473.4z"/> <path class="st21" d="M283.7,506.2c1.1,0,1.8,0.7,1.9,1.8c0.1,1.2-0.6,2-1.8,2c-1.1,0-1.9-0.8-1.9-2 C281.9,506.9,282.7,506.2,283.7,506.2z"/> <path class="st23" d="M453.9,493.1c-1.1,0-1.8-0.7-1.9-1.8c-0.1-1.2,0.7-2,1.8-2.1c1.1,0,1.9,0.7,1.9,1.8 C455.9,492.1,455,493,453.9,493.1z"/> <path class="st23" d="M259.2,540c-1.2,0-1.9-0.8-1.9-2c0-1.1,0.8-1.8,1.8-1.9c1.1,0,2,0.8,1.9,2C261,539.2,260.3,540,259.2,540z"/> <path class="st0" d="M249.8,291.7c0.8-0.2,1.4-0.1,0.9-1.1c-0.6-1.4,0.1-2.6,1.4-2.8c0.9-0.1,1.7,0.4,2,1.2c0.2,0.5-0.1,1,0.3,1.4 c4.7-0.7,9.3-0.3,13.7,1.6c1.4,0.6,2.7,1.3,3.8,2.2c1,0.8,1.2,1.8,0.6,2.8c-0.5,0.9-1.4,1.2-2.3,0.7c-0.3-0.2-0.6-0.4-0.9-0.6 c-7.2-4.3-14.4-4.2-21.6,0.2c-0.3,0.2-0.5,0.4-0.8,0.5c-1.1,0.6-1.8,0.5-2.5-0.5c-0.4-0.6-0.6-1.1-1.4-1.3 c-0.9-0.2-1.1-1.1-1.1-1.9c0.1-0.7,0.4-1.3,1.1-1.6c0.8-0.3,1.6-0.2,2.2,0.5c0.2,0.2,0.2,0.4,0.4,0.6c0.3,0.3,0.6,0,0.8-0.2 c0.2-0.1,0.3-0.4,0.1-0.6c-0.4-0.4-0.6-0.7-0.7-1.2c-0.2-1.1,0.3-1.9,1.2-2.2c1-0.3,2,0.1,2.4,1.2 C249.7,290.9,249.7,291.3,249.8,291.7z"/> <path class="st0" d="M316.2,291.7c-0.8-0.2-1.4-0.1-0.9-1.1c0.6-1.4-0.1-2.6-1.4-2.8c-0.9-0.1-1.7,0.4-2,1.2 c-0.2,0.5,0.1,1-0.3,1.4c-4.7-0.7-9.3-0.3-13.7,1.6c-1.4,0.6-2.7,1.3-3.8,2.2c-1,0.8-1.2,1.8-0.6,2.8c0.5,0.9,1.4,1.2,2.3,0.7 c0.3-0.2,0.6-0.4,0.9-0.6c7.2-4.3,14.4-4.2,21.6,0.2c0.3,0.2,0.5,0.4,0.8,0.5c1.1,0.6,1.8,0.5,2.5-0.5c0.4-0.6,0.6-1.1,1.4-1.3 c0.9-0.2,1.1-1.1,1.1-1.9c-0.1-0.7-0.4-1.3-1.1-1.6c-0.8-0.3-1.6-0.2-2.2,0.5c-0.2,0.2-0.2,0.4-0.4,0.6c-0.3,0.3-0.6,0-0.8-0.2 c-0.2-0.1-0.3-0.4-0.1-0.6c0.4-0.4,0.6-0.7,0.7-1.2c0.2-1.1-0.3-1.9-1.2-2.2c-1-0.3-2,0.1-2.4,1.2 C316.3,290.9,316.3,291.3,316.2,291.7z"/> <path class="st0" d="M284.8,335.2c-2.2,0-4.5-0.9-6.5-2.6c-1.7-1.4-3-3.1-4.2-4.9c-0.7-1.1-0.6-2.1,0.4-2.7c1-0.6,2-0.5,2.8,0.5 c1.1,1.5,2.1,3,3.5,4.2c3,2.4,7.2,2.1,9.8-0.8c0.8-0.9,1.3-1.9,1.8-3c0.4-1.1,1.1-1.4,2.1-1.3c1.3,0.1,1.9,1.1,1.6,2.3 C294.9,331.5,290.1,335.2,284.8,335.2z"/> </g> </svg>