<svg version="1.1" id="Layer_1" xmlns="http://www.w3.org/2000/svg" xmlns:xlink="http://www.w3.org/1999/xlink" x="0px" y="0px" viewBox="0 0 500 500" style="width: 166px;" xml:space="preserve" data-imageid="easter-balloon-78" imageName="Easter Balloon" class="illustrations_image">
<style type="text/css">
	.st0_easter-balloon-78{fill:#D1D3D4;}
	.st1_easter-balloon-78{fill:#FFFFFF;}
	.st2_easter-balloon-78{fill:#231F20;}
	.st3_easter-balloon-78{fill:#68E1FD;}
</style>
<ellipse id="Shadow_easter-balloon-78" class="st0_easter-balloon-78" cx="238.1" cy="400.7" rx="99" ry="12"/>
<g id="Bunny_easter-balloon-78">
	<path class="st1_easter-balloon-78" d="M233.3,277.1c0,0-58.8-13.7-70.9-28.4c0,0-6.2-16.9-12.5-16.9s-5.8,8.7-5.8,8.7s-10-10.3-14.2,0&#10;&#9;&#9;s-4.2,20,0,23.6c4.2,3.5,26.3,13,26.3,13s41.8,58.9,67.7,62S233.3,277.1,233.3,277.1z"/>
	<path class="st2_easter-balloon-78" d="M225.6,340c-0.6,0-1.2,0-1.8-0.1c-10.9-1.3-25.7-12.2-44-32.4c-8.5-9.5-16.5-19.4-24-29.8&#10;&#9;&#9;c-2.3-1-22.2-9.6-26.3-13c-4.4-3.7-4.5-13.8-0.2-24.4c1.2-2.8,2.9-4.5,5.1-4.9c3.5-0.7,7.3,2,9.1,3.6c0.1-2.2,0.8-4.3,2.2-6.1&#10;&#9;&#9;c1.1-1.2,2.6-1.8,4.2-1.8l0,0c6.5,0,12.3,15,13.1,17.2c11.9,14.3,69.8,27.9,70.4,28c0.3,0.1,0.5,0.3,0.5,0.5&#10;&#9;&#9;c0.5,1.9,11.5,46.2-0.1,59.4C231.8,338.7,228.7,340.1,225.6,340z M135.4,236.7c-0.3,0-0.6,0-0.9,0.1c-1.7,0.3-3,1.7-4,4&#10;&#9;&#9;c-4,9.9-4.1,19.4-0.2,22.8c3.9,3.3,25.9,12.8,26.1,12.9c0.1,0.1,0.2,0.1,0.3,0.2c0.4,0.6,41.9,58.7,67.2,61.8&#10;&#9;&#9;c3.8,0.5,6.7-0.5,8.9-3.1c10.5-12,1-53.1-0.1-57.7c-5.7-1.4-59.2-14.3-70.8-28.5c-0.1-0.1-0.1-0.1-0.1-0.2&#10;&#9;&#9;c-1.7-4.6-7.1-16.4-11.9-16.4l0,0c-1.2,0-2.4,0.5-3.2,1.3c-2.1,2.2-1.9,6.6-1.9,6.6c0,0.3-0.1,0.6-0.4,0.7&#10;&#9;&#9;c-0.3,0.1-0.6,0.1-0.8-0.1C143.6,241,139.3,236.7,135.4,236.7z"/>
	<path class="st2_easter-balloon-78" d="M135.1,198c0,0,3,12.9,6.5,28.8c5.3,23.9,11.7,54.4,10.5,57.4c-1.9,5-4.8,6.9-8.1,0.7c-2-3.8-6.6-34.1-9.9-57&#10;&#9;&#9;c-2-14.4-3.6-25.8-3.6-25.8L135.1,198z"/>
	<path class="st2_easter-balloon-78" d="M148.1,289.4c-1.6,0-3.2-1.4-4.8-4.3c-1.6-3.1-5-22.3-10-57.2c-2-14.2-3.5-25.7-3.6-25.8&#10;&#9;&#9;c0-0.2,0.1-0.5,0.2-0.6l4.6-4c0.2-0.2,0.4-0.2,0.7-0.1c0.2,0.1,0.4,0.3,0.5,0.5c0,0.1,3.1,13.1,6.5,28.8&#10;&#9;&#9;c11.9,54,10.8,56.8,10.5,57.8c-1.2,3.2-2.7,4.9-4.5,5L148.1,289.4z M131.2,202.3c0.3,2.1,1.7,12.6,3.5,25.5&#10;&#9;&#9;c4.8,33.8,8.3,53.9,9.8,56.8c1.3,2.4,2.6,3.6,3.6,3.5s2.3-1.6,3.3-4.1c0.4-1,0.1-8.6-10.5-57c-2.9-13-5.5-24.2-6.3-27.7&#10;&#9;&#9;L131.2,202.3z"/>
	<path class="st1_easter-balloon-78" d="M135.1,198c0,0,3,12.9,6.5,28.8l0,0c-2.5,0.6-5,1-7.5,1c-2-14.4-3.6-25.8-3.6-25.8L135.1,198z"/>
	<path class="st2_easter-balloon-78" d="M134.3,228.5h-0.3c-0.3,0-0.6-0.3-0.7-0.6c-2-14.2-3.5-25.7-3.6-25.8c0-0.2,0.1-0.5,0.2-0.6l4.6-4&#10;&#9;&#9;c0.2-0.2,0.4-0.2,0.7-0.1c0.2,0.1,0.4,0.3,0.5,0.5c0,0.1,3.1,13.1,6.5,28.8c0.1,0.4-0.2,0.8-0.5,0.8&#10;&#9;&#9;C139.3,228.1,136.8,228.5,134.3,228.5z M131.2,202.2c0.3,2.1,1.6,12.3,3.4,24.9c2.1-0.1,4.1-0.3,6.1-0.8c-2.8-12.7-5.3-23.6-6.1-27&#10;&#9;&#9;L131.2,202.2z"/>
	<path class="st1_easter-balloon-78" d="M137,176.2c2.4,4.6,5,9.3,5.6,13.7c0.7,5-1.3,9.6-9,13.1c0,0-6.6-1.1-10.3-5.4c-2.8-3.3-3.9-8.4,0.9-16.3&#10;&#9;&#9;c3.3-5.3,2.9-12.1-1-16.9C123.1,164.4,131.8,166.3,137,176.2z"/>
	<path class="st2_easter-balloon-78" d="M133.6,203.8h-0.1c-0.3,0-6.9-1.2-10.7-5.7s-3.4-10.1,0.8-17.1c3.2-5,2.8-11.5-0.9-16.1&#10;&#9;&#9;c-0.2-0.2-0.2-0.6-0.1-0.8c0.2-0.3,0.5-0.4,0.8-0.3c0.4,0.1,9,2.1,14.3,12.2l0,0l0.4,0.8c2.3,4.4,4.7,8.9,5.2,13.2&#10;&#9;&#9;c0.8,6.1-2.3,10.6-9.4,13.9C133.8,203.8,133.7,203.8,133.6,203.8z M124.9,165.8c3,4.9,2.9,11.1-0.2,15.9&#10;&#9;&#9;c-3.9,6.4-4.2,11.7-0.9,15.5c3.1,3.7,8.6,4.9,9.7,5.2c6.4-3,9.1-6.9,8.4-12.3c-0.5-4-2.8-8.4-5.1-12.7l-0.4-0.8&#10;&#9;&#9;C133.9,171.8,129.9,167.9,124.9,165.8L124.9,165.8z"/>
	<path class="st3_easter-balloon-78 targetColor" d="M137,176.2c2.4,4.6,5,9.3,5.6,13.7c-3-1.2-5.2-4.4-7.5-6.8c-0.5-0.5-1.1-1-1.8-0.9c-1.5,0.4-0.5,2.6-0.8,4.1&#10;&#9;&#9;c-0.3,1.2-1.5,1.8-2.7,1.5c-0.3-0.1-0.6-0.2-0.8-0.4c-0.4-0.4-0.6-0.9-1.1-1c-1.6-0.7-2.4,6.3-4.6,11.2c-2.8-3.3-3.9-8.4,0.9-16.3&#10;&#9;&#9;c3.3-5.3,2.9-12.1-1-16.9C123.2,164.5,131.8,166.3,137,176.2z" style="fill: rgb(104, 253, 137);"/>
	<path class="st2_easter-balloon-78" d="M123.3,198.4c-0.2,0-0.4-0.1-0.5-0.2c-3.7-4.4-3.4-10.1,0.8-17.1c3.2-5,2.8-11.5-0.9-16.1&#10;&#9;&#9;c-0.3-0.3-0.2-0.7,0.1-1c0.2-0.1,0.4-0.2,0.6-0.2c0.4,0.1,9,2.1,14.3,12.2l0,0l0.4,0.8c2.3,4.4,4.7,8.9,5.2,13.2&#10;&#9;&#9;c0.1,0.4-0.2,0.7-0.6,0.8c-0.1,0-0.3,0-0.4-0.1c-2.4-1-4.3-3.1-6.1-5.2c-0.5-0.6-1.1-1.2-1.6-1.8s-0.9-0.7-1.1-0.6&#10;&#9;&#9;s-0.4,0.4-0.3,1.7c0.1,0.6,0.1,1.3,0,1.9c-0.2,1-1,1.7-1.9,2c-0.9,0.3-2,0.1-2.7-0.6c-0.1-0.1-0.3-0.3-0.4-0.4&#10;&#9;&#9;c-0.1-0.1-0.2-0.3-0.4-0.4c-0.5,0.4-1.1,2.7-1.6,4.4c-0.6,2.2-1.3,4.3-2.2,6.4C123.8,198.2,123.6,198.3,123.3,198.4L123.3,198.4z&#10;&#9;&#9; M124.9,165.8c3,4.9,2.9,11.1-0.2,15.9c-3.6,5.9-4.1,10.8-1.6,14.6c0.7-1.7,1.2-3.5,1.7-5.1c0.9-3.1,1.4-4.8,2.4-5.3&#10;&#9;&#9;c0.3-0.1,0.7-0.1,1,0c0.4,0.2,0.7,0.5,1,0.9c0.1,0.1,0.2,0.2,0.3,0.3c0.7,0.5,1.6,0.4,2.1-0.3c0.1-0.1,0.2-0.3,0.2-0.4&#10;&#9;&#9;c0.1-0.5,0.1-1,0-1.5c-0.1-1.2-0.2-2.8,1.3-3.1c0.9-0.1,1.9,0.3,2.5,1c0.6,0.6,1.1,1.2,1.6,1.8c1.3,1.6,2.8,3,4.4,4.2&#10;&#9;&#9;c-0.8-3.6-2.8-7.5-4.8-11.3l-0.4-0.8C133.9,171.7,129.9,167.9,124.9,165.8z"/>
	<path class="st1_easter-balloon-78" d="M313.2,309c-8.2-34.5-33.8-44.5-33.8-44.5l-64.3,11c0,0-21.6,20.5-23.6,53.6c-0.5,8.1,0,16.3,1.5,24.3&#10;&#9;&#9;c-8.8,4.2-17.8,10.8-23.9,21.5c0,0-21.8-34.4-36.9-32c-26.5,4.3,8.2,54.3,29.3,66.6c10.1,5.9,83-11.7,99.9-7&#10;&#9;&#9;c3.1,0.9,38.9-15.1,38.9-15.1S321.4,343.6,313.2,309z"/>
	<path class="st2_easter-balloon-78" d="M169.6,411.5c-4,0-7-0.4-8.5-1.3c-16.2-9.5-42-42.9-38.9-59.2c0.9-4.9,4.3-7.8,9.9-8.8&#10;&#9;&#9;c14.1-2.3,33.2,25.7,36.9,31.4c5.2-8.7,13-15.6,23.1-20.6c-1.4-7.9-1.9-15.9-1.4-24c2.1-33,23.6-53.9,23.9-54.1&#10;&#9;&#9;c0.1-0.1,0.2-0.2,0.4-0.2l64.2-11c0.1,0,0.2,0,0.4,0c0.3,0.1,26.1,10.5,34.2,45s-12.8,78.5-13,78.9c-0.1,0.1-0.2,0.3-0.3,0.3&#10;&#9;&#9;c-6,2.7-36.1,16-39.3,15.1c-8.3-2.3-30.4,0.9-51.8,3.9C193.9,409.4,179,411.5,169.6,411.5z M133.8,343.5c-0.5,0-1,0-1.5,0.1&#10;&#9;&#9;c-5,0.8-8,3.4-8.8,7.6c-1.3,7,3,18.2,11.9,31c8,11.6,18.4,22.1,26.4,26.8c4.9,2.9,26.5-0.2,47.4-3.2c21.5-3.1,43.8-6.2,52.3-3.9&#10;&#9;&#9;c2,0.5,21-7.3,38.1-14.9c1.6-3.5,20.5-45.2,12.8-77.8c-7.7-32.3-31-43-33.2-44l-63.8,11c-1.9,1.9-21.3,22-23.3,53&#10;&#9;&#9;c-0.5,8.1,0,16.2,1.5,24.2c0,0.3-0.1,0.6-0.4,0.7c-10.5,5-18.4,12.1-23.6,21.2c-0.1,0.2-0.3,0.4-0.6,0.4c-0.2,0-0.5-0.1-0.6-0.3&#10;&#9;&#9;C168.3,375,148.2,343.5,133.8,343.5L133.8,343.5z M300.2,387.5L300.2,387.5z"/>
	<path class="st0_easter-balloon-78" d="M271.7,273c-7.1-4.8-15.9-5.2-23.9-2.1c-19,7.3-31.9,24-36.4,43.5c-3.3,14.1-5,30.2-0.5,44.3&#10;&#9;&#9;c4.6,14.4,10.5,22.3,25.4,26.2c14.4,3.8,30.5,2.3,43.3-5.6c31.4-19.3,25.1-62.1,8-88.8C283.2,283.8,278.2,277.4,271.7,273z"/>
	<path class="st1_easter-balloon-78" d="M347.3,168.5c16.6-25.8,30.5-66.6,1.2-65.1c-22.3,1.2-47,45.9-57.6,67.3c-12.3-9.7-28.3-13.5-43.6-10.2&#10;&#9;&#9;c0.1-23.8-2.2-74.9-21.6-85.9c-25.6-14.5-38.3,2.8-34.9,33.2c2.1,18.7,18,60.7,24.5,70.6c-11.5,11.4-19.6,25.8-23.4,41.5&#10;&#9;&#9;c-8.3,35.2,11.4,59.8,48.3,68.4s65.4-4.5,73.7-39.8c3.6-15.8,2.8-32.3-2.4-47.6C321.8,195.1,337.1,184.3,347.3,168.5z"/>
	<path class="st2_easter-balloon-78" d="M261,291.6c-7.1-0.1-14.1-0.9-21-2.6c-18.6-4.4-33-12.9-41.5-24.5c-8.8-12.1-11.4-27.6-7.3-44.8&#10;&#9;&#9;c3.8-15.7,11.8-30,23.2-41.5c-7-11-22.2-52-24.3-70.4c-2-17.8,1.5-31.1,9.7-36.6c6.5-4.3,15.6-3.4,26.2,2.6c8.2,4.7,22,22,22,85.7&#10;&#9;&#9;c15-2.9,30.6,0.7,42.7,10c28.4-57,48.4-66.4,57.8-66.9c7.4-0.4,12.6,1.9,15.5,6.7c7,12-2.8,39-16,59.4l-0.6-0.4l0.6,0.4&#10;&#9;&#9;c-10,15.5-24.8,26.2-35.6,32.5c5.1,15.3,5.9,31.7,2.3,47.4c-4,17.2-13.2,29.9-26.5,36.8C280.3,289.6,271.1,291.6,261,291.6z&#10;&#9;&#9; M209.1,70c-3.1-0.1-6,0.8-8.6,2.4c-7.7,5.1-11,17.9-9.1,35.2c2.1,18.6,17.7,60.2,24.4,70.3c0.2,0.3,0.1,0.6-0.1,0.9&#10;&#9;&#9;c-11.4,11.3-19.4,25.6-23.2,41.2c-3.9,16.8-1.5,31.9,7.1,43.6c8.3,11.4,22.4,19.7,40.7,24s34.6,3.1,47.1-3.4&#10;&#9;&#9;c12.9-6.7,21.8-19.1,25.8-35.9c3.6-15.7,2.8-32-2.4-47.2c-0.1-0.3,0-0.7,0.3-0.8c10.7-6.2,25.6-16.8,35.6-32.3l0,0&#10;&#9;&#9;c13-20.1,22.6-46.5,16-58c-2.5-4.4-7.3-6.4-14.2-6c-22.2,1.2-47.3,47.2-57,66.9c-0.1,0.2-0.3,0.3-0.5,0.4c-0.2,0-0.4,0-0.6-0.1&#10;&#9;&#9;c-12.1-9.6-27.9-13.3-43.1-10.1c-0.2,0-0.4,0-0.6-0.1c-0.2-0.1-0.2-0.3-0.2-0.5c0-22-1.9-74.4-21.3-85.3&#10;&#9;&#9;C219.3,71.7,213.8,70,209.1,70z"/>
	<path class="st0_easter-balloon-78" d="M238.1,163.8c0,0-4.1-70.7-18.7-77.7s-16.1,8.6-14.7,23.4s20.5,63,20.5,63S233.2,163.1,238.1,163.8z"/>
	<path class="st0_easter-balloon-78" d="M297.2,178.2c0,0,32.6-60.3,48.8-60s10.6,14.9,2.7,27.5s-43.6,45.6-43.6,45.6S302,179.8,297.2,178.2z"/>
	<path class="st1_easter-balloon-78" d="M271.3,346.8c0,0,35.1,1.1,50.6,28.4c0,0,18.7-33.9,33.9-32.7c8.1,0.6,10.2,12.2,5.8,19.5&#10;&#9;&#9;c-4.7,7.9-32.1,47.8-32.1,47.8s-69.1-21.5-86.1-16.8S271.3,346.8,271.3,346.8z"/>
	<path class="st2_easter-balloon-78" d="M329.5,410.5c-0.1,0-0.1,0-0.2,0c-0.7-0.2-69.1-21.4-85.7-16.8c-2.2,0.6-3.6,0.4-4.3-0.7&#10;&#9;&#9;c-3.8-6,25.6-40,31.5-46.7c0.1-0.2,0.3-0.2,0.5-0.2c0.4,0,34.7,1.4,50.5,27.7c3.4-5.9,19.9-33.1,34-32c3.1,0.2,5.8,2.1,7.1,4.9&#10;&#9;&#9;c2.3,4.5,2,11-0.8,15.6c-4.7,7.8-31.8,47.4-32.1,47.8C330,410.4,329.7,410.5,329.5,410.5z M249.9,391.7c22.4,0,73.3,15.5,79.3,17.3&#10;&#9;&#9;c3-4.3,27.4-40,31.8-47.3c2.5-4.2,2.9-10.2,0.8-14.3c-1.1-2.4-3.4-4-6-4.2c-14.7-1.1-33,32-33.2,32.4c-0.1,0.2-0.3,0.4-0.6,0.4&#10;&#9;&#9;c-0.3,0-0.5-0.1-0.6-0.4c-14.3-25.2-46.1-27.9-49.7-28.1c-13.5,15.3-33.6,40.8-31.1,44.8c0.4,0.7,1.9,0.4,2.8,0.1&#10;&#9;&#9;C245.5,391.8,247.7,391.6,249.9,391.7L249.9,391.7z"/>
	
		<ellipse transform="matrix(0.2289 -0.9735 0.9735 0.2289 -25.0002 387.8003)" class="st2_easter-balloon-78" cx="232.3" cy="209.7" rx="7.6" ry="3.1"/>
	
		<ellipse transform="matrix(0.2289 -0.9735 0.9735 0.2289 9.874368e-02 441.261)" class="st2_easter-balloon-78" cx="278.6" cy="220.6" rx="7.6" ry="3.1"/>
	<path class="st2_easter-balloon-78" d="M261.3,229.9c-0.6,2.7-4.6,5.3-8.4,4.4s-6.3-5-5.6-7.7s4-3,7.9-2.1S261.9,227.2,261.3,229.9z"/>
	<path class="st2_easter-balloon-78" d="M268.3,248.9c-1.2,0-2.4-0.2-3.5-0.4c-7.7-2-11.5-6.6-12.8-8.6c-1.5,1.6-5.8,4.1-17.3,1.5&#10;&#9;&#9;c-4.9-1.1-8.3-3.4-10.1-6.7c-2.8-5.1-0.9-10.8-0.8-11c0.2-0.3,0.6-0.5,0.9-0.3c0.3,0.1,0.5,0.5,0.4,0.8c0,0-1.8,5.3,0.7,9.9&#10;&#9;&#9;c1.6,2.9,4.7,5,9.2,6c14.1,3.2,16.4-1.6,16.4-1.6c0.2-0.4,0.6-0.5,0.9-0.3c0.2,0.1,0.3,0.2,0.3,0.3c0,0.1,3.3,6.4,12.5,8.8&#10;&#9;&#9;s16.7-6.5,16.8-6.6c0.2-0.3,0.6-0.4,1-0.2s0.4,0.6,0.2,1c0,0-0.1,0.1-0.1,0.1C282.7,241.8,276.5,248.9,268.3,248.9z"/>
	<path class="st2_easter-balloon-78" d="M252,238.6h-0.2c-0.4-0.1-0.6-0.5-0.5-0.8l0.9-3.7c0.1-0.4,0.4-0.6,0.8-0.5c0,0,0,0,0,0&#10;&#9;&#9;c0.4,0.1,0.6,0.5,0.5,0.8c0,0,0,0,0,0l-0.9,3.7C252.6,238.4,252.3,238.7,252,238.6z"/>
	<path class="st0_easter-balloon-78" d="M336.8,370.7c-10,13.7-18.4,28.9-10,31.9c4.1,1.4,36.9-48.6,32.9-53.6C357.6,346.4,351.3,350.9,336.8,370.7z"/>
	<path class="st0_easter-balloon-78" d="M275.7,191.9c-0.2,0-0.5,0-0.7-0.1c-1.6-0.5-2.7-2-2.8-3.6c0-0.6,0-1.2,0.1-1.8l-0.5,0.5&#10;&#9;&#9;c-1.3,1.4-2.9,2.7-4.6,3.7c-1.8,1-3.9,1.2-5.9,0.6c-1.3-0.3-2.4-1.2-3-2.4c-0.7-1.4-0.8-3.1-0.3-4.6c-2,1.7-4.2,3.1-6.6,4.2&#10;&#9;&#9;c-3.1,1.6-6.8,2-10.1,1c-0.8-0.2-1.5-0.7-1.9-1.3c-0.8-1.3-0.1-2.9,0.2-3.5c2.9-6.2,8.8-10.5,13.6-14c0.3-0.2,0.8-0.2,1,0.1&#10;&#9;&#9;c0.2,0.3,0.2,0.8-0.2,1l0,0c-4.9,3.6-10.4,7.6-13.1,13.5c-0.5,1-0.6,1.7-0.3,2.1c0.3,0.4,0.7,0.6,1.2,0.7c3,0.9,6.3,0.5,9.1-0.9&#10;&#9;&#9;c2.9-1.5,5.6-3.3,8-5.5c0.3-0.2,0.6-0.2,0.9,0c0.3,0.2,0.4,0.5,0.2,0.8c-0.7,2-1.3,4.1-0.4,5.7c0.5,0.8,1.2,1.4,2.1,1.7&#10;&#9;&#9;c1.6,0.4,3.3,0.3,4.8-0.5c1.6-0.9,3-2.1,4.3-3.4c0.8-0.7,1.6-1.5,2.4-2.2c0.3-0.2,0.6-0.2,0.9,0c0.2,0.2,0.3,0.5,0.2,0.8&#10;&#9;&#9;c-0.5,1.1-0.8,2.4-0.8,3.6c0,1.1,0.7,2,1.7,2.4c1,0.1,1.9-0.2,2.6-0.8c3.2-2.1,5.6-5.2,6.8-8.8c0.1-0.4,0.5-0.6,0.9-0.4&#10;&#9;&#9;c0.4,0.1,0.6,0.5,0.4,0.9c0,0,0,0,0,0c-1.3,3.9-3.9,7.3-7.4,9.5C277.8,191.4,276.8,191.8,275.7,191.9z"/>
	<path class="st2_easter-balloon-78" d="M177.2,393.7c-0.3,0-0.6-0.2-0.7-0.5c-3.3-11.8-8-17.7-8.1-17.8c-0.2-0.3-0.1-0.8,0.2-1&#10;&#9;&#9;c0.3-0.2,0.7-0.1,0.9,0.1c0.2,0.2,4.9,6.2,8.3,18.3c0.1,0.4-0.1,0.7-0.5,0.9c0,0,0,0,0,0C177.4,393.7,177.3,393.7,177.2,393.7z"/>
	<path class="st0_easter-balloon-78" d="M172.4,395.6c-3.4-13.3-11.3-25.1-20.6-35.2c-3.7-4-8-8-13.4-9.1c-5.8-1.2-10.1,2.8-9.4,8.7&#10;&#9;&#9;c0.5,2.8,1.5,5.4,3,7.8c7.1,12.9,17.6,23.5,27.5,34.3c1.2,1.4,2.6,2.7,4.1,3.7C170.7,409.9,173.8,401.2,172.4,395.6z"/>
	<path class="st1_easter-balloon-78" d="M130.6,233.9c-0.7,0.2-1.3,0.6-1.6,1.2c-5.2,6.3-7.3,14.7-5.8,22.7c0.3,1.5,0.8,3,1.6,4.3&#10;&#9;&#9;c1.5,2.4,4,3.8,6.5,5.1c2.6,1.4,6.1,2.7,8.3,0.7c1.3-1.2,1.6-3.1,1.8-4.9l1.4-12.1c0.4-3.6,0.9-8.9-1.5-12&#10;&#9;&#9;C139.6,236.8,133.1,233.5,130.6,233.9z"/>
	<path class="st2_easter-balloon-78" d="M136.7,269.6c-2-0.1-4-0.7-5.8-1.8c-2.7-1.4-5.2-2.9-6.8-5.4c-0.8-1.4-1.4-2.9-1.7-4.5&#10;&#9;&#9;c-1.6-8.3,0.6-16.8,5.9-23.3c0.5-0.7,1.2-1.2,2.1-1.4l0,0c2.7-0.4,9.5,3,11.3,5.3c2.7,3.4,2,9.3,1.7,12.5l-1.4,12.1&#10;&#9;&#9;c-0.2,1.6-0.4,3.9-2,5.4C139.2,269.3,138,269.7,136.7,269.6z M131.1,234.5c-0.1,0-0.2,0-0.4,0l0,0c-0.4,0.1-0.8,0.4-1.2,0.9&#10;&#9;&#9;c-5.1,6.2-7.2,14.3-5.6,22.2c0.2,1.4,0.7,2.8,1.5,4.1c1.4,2.2,3.7,3.6,6.2,4.9c3.5,1.9,6,2.1,7.5,0.8c1.1-1,1.4-2.7,1.6-4.5&#10;&#9;&#9;l1.4-12.1c0.3-2.9,1-8.4-1.4-11.4C139.3,237.5,133.6,234.5,131.1,234.5z M130.6,233.9L130.6,233.9z"/>
</g>
<g id="Egg_easter-balloon-78">
	<path class="st1_easter-balloon-78" d="M372.6,359.7c-0.7,6.5-2.1,12.9-4,19.1c-2.7,9.3-7.1,17.9-13,25.5c-9.3,11.9-23,19.6-38,21.4&#10;&#9;&#9;c-6.9,0.8-13.9,0.6-20.8-0.7c-3.3-0.6-6.5-1.4-9.7-2.4c-3.2-1-6.3-2.1-9.3-3.5c-6.2-2.7-12-6.4-17.1-10.8&#10;&#9;&#9;c-12.1-10.3-19.3-25.2-19.9-41.1c-0.3-6.1,0.2-12.3,1.5-18.3c0.1-0.4,0.1-0.7,0.2-1c0.5-2.5,1.2-4.9,2-7.5&#10;&#9;&#9;c1.4-4.5,3.1-8.9,5.1-13.2c6.9-14.8,16.8-27.9,29.1-38.6c5.1-4.4,10.6-8.2,16.6-11.4c11-5.7,22.6-8.3,33.5-6.3&#10;&#9;&#9;c1.6,0.3,3.2,0.7,4.7,1.1c1.6,0.5,3.1,1.1,4.6,1.8c1.3,0.6,2.6,1.3,3.8,2c4.8,2.8,9.1,6.5,12.6,10.8c3.8,4.5,6.9,9.5,9.4,14.9&#10;&#9;&#9;c1.8,3.8,3.3,7.8,4.5,11.8C373.1,328.4,374.4,344.2,372.6,359.7z"/>
	<path class="st2_easter-balloon-78" d="M321.4,270.4c2.5,0,5,0.2,7.5,0.7c1.6,0.3,3.2,0.7,4.7,1.1c1.6,0.5,3.1,1.1,4.6,1.8c1.3,0.6,2.6,1.3,3.8,2&#10;&#9;&#9;c4.8,2.8,9.1,6.5,12.6,10.8c3.8,4.5,6.9,9.5,9.4,14.9c1.8,3.8,3.3,7.8,4.5,11.8c4.5,15,5.8,30.8,4,46.4c-0.7,6.5-2.1,12.9-4,19.1&#10;&#9;&#9;c-2.7,9.3-7.1,17.9-13,25.5c-9.3,11.9-23,19.6-38,21.4c-2.7,0.3-5.3,0.5-8,0.5c-4.3,0-8.5-0.4-12.8-1.2c-3.3-0.6-6.5-1.4-9.7-2.4&#10;&#9;&#9;c-3.2-1-6.3-2.1-9.3-3.5c-6.2-2.7-12-6.4-17.1-10.8c-12.1-10.3-19.3-25.2-19.9-41.1c-0.3-6.1,0.2-12.3,1.5-18.3&#10;&#9;&#9;c0.1-0.4,0.1-0.7,0.2-1c0.5-2.5,1.2-4.9,2-7.5c1.4-4.5,3.1-8.9,5.1-13.2c6.9-14.8,16.8-27.9,29.1-38.6c5.1-4.4,10.6-8.2,16.6-11.4&#10;&#9;&#9;C303.9,272.9,312.7,270.4,321.4,270.4 M321.4,269L321.4,269c-8.6,0-17.6,2.4-26.7,7.1c-6,3.2-11.7,7.1-16.9,11.6&#10;&#9;&#9;c-12.5,10.8-22.5,24.2-29.5,39.1c-2,4.3-3.7,8.8-5.1,13.4c-0.8,2.6-1.5,5.1-2,7.6c-0.1,0.4-0.2,0.7-0.2,1.1&#10;&#9;&#9;c-1.3,6.1-1.8,12.4-1.5,18.6c0.6,16.3,8,31.5,20.4,42.1c5.2,4.5,11.1,8.2,17.4,11c3.1,1.4,6.3,2.6,9.5,3.5c3.2,1,6.5,1.8,9.8,2.4&#10;&#9;&#9;c4.3,0.8,8.6,1.2,13,1.2c2.7,0,5.5-0.2,8.2-0.5c15.4-1.8,29.4-9.7,38.9-21.9c6-7.8,10.5-16.6,13.3-26c1.9-6.3,3.3-12.8,4-19.4&#10;&#9;&#9;c1.9-15.8,0.5-31.7-4-47c-1.3-4.1-2.8-8.1-4.6-12c-2.5-5.5-5.7-10.6-9.6-15.2c-3.7-4.4-8.1-8.2-13-11.1c-1.3-0.8-2.6-1.4-4-2&#10;&#9;&#9;c-1.6-0.7-3.2-1.3-4.8-1.8c-1.6-0.5-3.2-0.9-4.9-1.2C326.5,269.1,323.9,268.9,321.4,269L321.4,269z"/>
	<path class="st3_easter-balloon-78 targetColor" d="M354.7,286.7c-0.2,0.2-0.3,0.5-0.5,0.7c-3.3,4.1-9.6,5.9-10.9,11c-0.9,3.2,0.7,6.5,1.2,9.8s-1,7.6-4.3,7.7&#10;&#9;&#9;c-1.1,0.1-2.3-0.4-3.4-0.2c-2.8,0.4-3.6,4-3.7,6.9c-0.3,7.8-0.6,15.6-0.9,23.4c-0.1,3.1-0.3,6.4-1.9,9s-5.3,4.4-8,2.8&#10;&#9;&#9;c-2.1-1.2-2.8-3.7-4-5.8s-3.5-4.1-5.7-3.1c-1.1,0.7-1.9,1.8-2.3,3.1c-6.5,15.6-6.3,33.3-11.5,49.4c-1.4,4.4-4.6,9.4-9.1,8.6&#10;&#9;&#9;c-3.9-0.7-5.6-5.4-6.3-9.3c-1.3-7.5-1.8-15.1-1.4-22.7c0.4-8,1.6-16.5-1.8-23.8c-0.4-0.9-1.1-1.9-2.1-1.9s-1.8,1.1-2.2,2&#10;&#9;&#9;c-2,4.7-1.6,10-3.3,14.8s-7.5,8.9-11.7,6c-2.7-1.8-3.3-5.4-3.6-8.5c-0.2-2.3-0.1-28-3.8-26.9c-3.1,0.9-7.2,6.1-10.9,8.4&#10;&#9;&#9;c0.5-2.5,1.2-4.9,2-7.5c1.4-4.5,3.1-8.9,5.1-13.2c6.9-14.8,16.8-27.9,29.1-38.6c5.1-4.4,10.6-8.2,16.6-11.4&#10;&#9;&#9;c11-5.7,22.6-8.3,33.5-6.3c1.6,0.3,3.2,0.7,4.7,1.1c1.6,0.5,3.1,1.1,4.6,1.8c1.3,0.6,2.6,1.3,3.8,2&#10;&#9;&#9;C346.9,278.8,351.1,282.4,354.7,286.7z" style="fill: rgb(104, 253, 137);"/>
</g>
<g id="Paint_easter-balloon-78">
	<path class="st1_easter-balloon-78" d="M134.9,370.3v44.1c0,5.3,15.6,9.6,34.8,9.6s34.8-4.3,34.8-9.6v-44.1H134.9z"/>
	<path class="st2_easter-balloon-78" d="M169.7,424.7c-17.4,0-35.5-3.9-35.5-10.3v-44.1c0-0.4,0.3-0.7,0.7-0.7c0,0,0,0,0,0h69.6c0.4,0,0.7,0.3,0.7,0.7&#10;&#9;&#9;l0,0v44.1C205.2,420.8,187.1,424.7,169.7,424.7z M135.6,371v43.4c0,4.3,13.7,8.9,34.1,8.9s34.1-4.6,34.1-8.9V371H135.6z"/>
	<path class="st0_easter-balloon-78" d="M169.3,416.4c-8.6,0-17.1-1.2-25.4-3.4c-0.3-0.1-0.5-0.4-0.5-0.7v-26c0-0.2,0.1-0.4,0.3-0.5&#10;&#9;&#9;c0.2-0.1,0.4-0.2,0.6-0.1c29.4,7.5,52.1-0.4,52.3-0.5c0.2-0.1,0.5-0.1,0.6,0.1c0.2,0.1,0.3,0.3,0.3,0.6v23.9c0,0.3-0.1,0.5-0.4,0.6&#10;&#9;&#9;C188.4,414.9,178.3,416.4,169.3,416.4z M144.8,411.7c4,1.1,31.2,8,51.3-2.5v-22.5c-4.6,1.4-25.3,6.9-51.3,0.5L144.8,411.7z"/>
	<ellipse class="st1_easter-balloon-78" cx="169.7" cy="370.3" rx="34.8" ry="9.6"/>
	<path class="st2_easter-balloon-78" d="M169.7,380.6c-17.4,0-35.5-3.9-35.5-10.3s18-10.3,35.5-10.3s35.5,3.9,35.5,10.3S187.1,380.6,169.7,380.6z&#10;&#9;&#9; M169.7,361.3c-20.4,0-34.1,4.6-34.1,8.9s13.7,8.9,34.1,8.9s34.1-4.6,34.1-8.9S190.1,361.3,169.7,361.3z"/>
	<path class="st1_easter-balloon-78" d="M196.8,370.3c0,0.8-0.8,1.7-2.3,2.4c-0.7,0.3-1.4,0.6-2.1,0.9c-4.8,1.6-13.2,2.7-22.7,2.7s-17.9-1.1-22.8-2.7&#10;&#9;&#9;c-0.7-0.2-1.4-0.5-2.1-0.9c-1.5-0.7-2.3-1.5-2.3-2.4c0-3.3,12.1-5.9,27.1-5.9S196.8,367,196.8,370.3z"/>
	<path class="st2_easter-balloon-78" d="M169.7,376.9c-9.3,0-17.9-1-23-2.7c-0.7-0.2-1.5-0.5-2.2-0.9c-1.8-0.9-2.7-1.9-2.7-3c0-4.3,14.3-6.6,27.8-6.6&#10;&#9;&#9;s27.8,2.3,27.8,6.6c0,0.8-0.5,1.9-2.7,3c-0.7,0.3-1.4,0.6-2.2,0.9C187.6,375.9,179,376.9,169.7,376.9z M169.7,365&#10;&#9;&#9;c-16.4,0-26.4,3-26.4,5.2c0,0.5,0.7,1.1,1.9,1.8c0.7,0.3,1.3,0.6,2,0.8c4.9,1.6,13.4,2.6,22.5,2.6s17.6-1,22.5-2.7&#10;&#9;&#9;c0.7-0.2,1.4-0.5,2-0.8c1.2-0.6,1.9-1.2,1.9-1.8C196.1,368.1,186.1,365,169.7,365L169.7,365z"/>
	<path class="st3_easter-balloon-78 targetColor" d="M192.4,373.5c-4.8,1.6-13.2,2.7-22.7,2.7s-17.9-1.1-22.8-2.7c4.8-1.6,13.2-2.7,22.8-2.7&#10;&#9;&#9;S187.6,371.9,192.4,373.5z" style="fill: rgb(104, 253, 137);"/>
	<path class="st2_easter-balloon-78" d="M169.7,376.9c-9.3,0-17.9-1-23-2.7c-0.3-0.1-0.5-0.4-0.5-0.7c0-0.3,0.2-0.6,0.5-0.7c5.1-1.7,13.7-2.7,23-2.7&#10;&#9;&#9;s17.9,1,23,2.7c0.3,0.1,0.5,0.4,0.5,0.7c0,0.3-0.2,0.6-0.5,0.7C187.6,375.9,179,376.9,169.7,376.9z M149.4,373.5&#10;&#9;&#9;c6.6,1.4,13.4,2.1,20.2,2c6.8,0.1,13.6-0.6,20.2-2c-6.6-1.4-13.4-2.1-20.2-2C162.9,371.4,156.1,372.1,149.4,373.5z"/>
	<path class="st3_easter-balloon-78 targetColor" d="M169.7,387.8c0,0.6,0.1,1.3,0.7,1.5s1.1-0.7,1.1-1.4s0.2-1.5,0.9-1.6v9.4c-0.1,3.1,0.1,6.2,0.4,9.3&#10;&#9;&#9;c0.1,0.8,0.3,1.5,0.7,2.1c0.5,0.6,1.3,0.8,2,0.5c0.3-0.2,0.5-0.4,0.6-0.7c1.1-1.9,1-4.3,1-6.5c-0.1-4.2,0-8.5,0.4-12.7&#10;&#9;&#9;c0-0.7,0.2-1.3,0.7-1.8c0.6-0.3,1.3-0.2,1.8,0.2c0.5,0.4,0.9,1,1.2,1.5c0.5,0.8,1.2,1.6,1.9,2.2c0.4,0.4,0.9,0.7,1.4,0.6&#10;&#9;&#9;c0.9-0.3,0.6-1.5,0.4-2.4c-1.2-4.5,1.7-9.4,0.8-14c0-0.6-0.4-1.2-0.9-1.5c-0.4-0.1-0.8-0.1-1.1,0c-3.8,0.7-7.8,0.8-11.6,1.2&#10;&#9;&#9;c-0.4,0-0.9,0.1-1.2,0.3c-0.6,0.5-0.9,1.2-0.9,1.9c0,2-0.1,3.8-0.1,5.8S169.7,385.7,169.7,387.8z" style="fill: rgb(104, 253, 137);"/>
	<path class="st3_easter-balloon-78 targetColor" d="M156.2,419.8c0.4-1.6,1.7-2.8,3.3-3.1c0.5-0.1,1.1-0.1,1.6,0.1c1.7,0.9,1.1,3.7,2.6,4.9&#10;&#9;&#9;c0.8,0.5,1.8,0.7,2.7,0.5c4.9-0.1,9.8,0.4,14.5,1.5c-0.3,1.4-2,1.9-3.4,2.1c-4.2,0.7-8.4,1-12.6,0.9c-0.4-0.1-0.9,0-1.2,0.3&#10;&#9;&#9;c-0.7,0.7,0.4,1.9,1.4,1.9s2.1-0.3,2.9,0.3c0,1.5-2,2-3.5,2c-4.7,0.1-9.5,0.1-14.2,0c-0.5,0-0.9-0.1-1.3-0.3&#10;&#9;&#9;c-0.7-0.5-0.6-1.7-0.2-2.5c0.8-1.6,2.3-2.8,4-3.3c-0.8-0.5-1.7-0.9-2.6-1.1C152.7,422.6,155.4,423.2,156.2,419.8z" style="fill: rgb(104, 253, 137);"/>
</g>
<g id="Left_Hand_easter-balloon-78">
	<path class="st1_easter-balloon-78" d="M376.2,297.6c1.8,4.3,3.3,9,2.8,13.7s-3.3,9.4-7.7,10.9c-13.9,4.6-23.9-18.4-22.6-29.4&#10;&#9;&#9;c0.7-5.5,5.4-9.2,10.9-9.6C368.2,282.6,373.3,290.7,376.2,297.6z"/>
	<path class="st2_easter-balloon-78" d="M367.7,323.4c-3.1-0.1-6.2-1.2-8.5-3.3c-7.5-6.2-12.1-19.6-11.2-27.4c0.7-5.6,5.4-9.8,11.5-10.2&#10;&#9;&#9;c7.1-0.5,13.1,4.6,17.4,14.9c1.6,3.8,3.4,8.9,2.9,14c-0.4,4.5-3.1,9.8-8.2,11.5C370.3,323.2,369,323.4,367.7,323.4z M360.5,283.8&#10;&#9;&#9;h-0.9c-5.4,0.4-9.6,4.1-10.2,9c-0.9,7.4,3.6,20.4,10.6,26.2c3.5,2.9,7.2,3.7,11,2.4c4.5-1.5,6.9-6.2,7.2-10.3&#10;&#9;&#9;c0.5-4.8-1.2-9.6-2.8-13.3l0,0C371.7,288.6,366.6,283.9,360.5,283.8L360.5,283.8z"/>
	<path class="st2_easter-balloon-78" d="M349.7,303.5c-0.3,0-0.6-0.2-0.7-0.5c-0.4-1.4,7.6-7.8,12.9-10.2c0.3-0.2,0.8,0,0.9,0.3c0.2,0.3,0,0.8-0.3,0.9&#10;&#9;&#9;l0,0c-5.9,2.7-11.5,7.9-12.1,8.9c-0.1,0.3-0.3,0.5-0.5,0.5C349.9,303.5,349.8,303.5,349.7,303.5z"/>
	<path class="st2_easter-balloon-78" d="M354,313.5c-0.2,0-0.5-0.1-0.6-0.3c-0.1-0.2-0.1-0.4-0.1-0.6c0.2-0.8,8.2-8,13.1-10.6c0.4-0.1,0.8,0,0.9,0.4&#10;&#9;&#9;c0.1,0.3,0,0.7-0.2,0.8c-5,2.8-11.9,9.2-12.5,10c-0.1,0.1-0.1,0.2-0.2,0.2C354.3,313.5,354.1,313.6,354,313.5z"/>
	<path class="st2_easter-balloon-78" d="M361.8,321.6c-0.1,0-0.2,0-0.3-0.1c-0.3-0.1-0.5-0.5-0.4-0.9c0,0,0,0,0,0c0.1-0.3,3.5-7.5,9.7-10.3&#10;&#9;&#9;c0.4-0.2,0.8,0,0.9,0.4c0.2,0.4,0,0.8-0.4,0.9c-5.7,2.6-8.9,9.5-9,9.6C362.3,321.5,362.1,321.6,361.8,321.6z"/>
</g>
<g id="Hats_easter-balloon-78">
	<path class="st3_easter-balloon-78 targetColor" d="M285.8,169.4c0,0-13.1,4.6-26.1-0.7c-2.2-0.9-4.3-2-6.2-3.4c-0.6-0.4-1.2-0.9-1.8-1.3l2.3-5.8l1.9-4.6l3.9-9.6&#10;&#9;&#9;l2-4.9l4.3-10.8l2.3-5.8l7.1-17.6l2,12.1l0.8,4.6l1.3,7.8l0.8,4.8l1.1,6.8l0.8,4.8l1.4,8.7l0.8,4.7L285.8,169.4z" style="fill: rgb(104, 253, 137);"/>
	<path class="st2_easter-balloon-78" d="M275.4,104.9l2,12.1l0.8,4.6l1.3,7.8l0.8,4.8l1.1,6.8l0.8,4.8l1.4,8.7l0.8,4.7l1.7,10.2&#10;&#9;&#9;c-4,1.3-8.3,1.9-12.5,1.9c-4.7,0-9.3-0.8-13.6-2.6c-2.2-0.9-4.3-2-6.2-3.4c-0.6-0.4-1.2-0.9-1.8-1.3l2.3-5.8l1.9-4.6l3.9-9.6l2-4.9&#10;&#9;&#9;l4.2-10.8l2.3-5.8L275.4,104.9 M275.4,103.5c-0.6,0-1.1,0.3-1.3,0.9l-7.1,17.6l-2.3,5.8l-4.3,10.8l-2,4.9l-3.8,9.6l-1.9,4.6&#10;&#9;&#9;l-2.3,5.8c-0.2,0.6-0.1,1.2,0.4,1.6c0.7,0.5,1.3,1,1.8,1.4c2,1.4,4.2,2.6,6.5,3.5c4.5,1.8,9.3,2.7,14.2,2.6c4.4,0,8.8-0.7,13-2&#10;&#9;&#9;c0.6-0.2,1-0.9,0.9-1.5l-1.7-10.2l-0.8-4.7l-1.4-8.7l-0.8-4.8l-1.1-6.8l-0.8-4.8l-1.3-7.8l-0.8-4.6l-2-12.1&#10;&#9;&#9;c-0.1-0.6-0.6-1.1-1.2-1.2L275.4,103.5z"/>
	<path class="st1_easter-balloon-78" d="M284.2,159.1c-7.2,5.2-15.6,8.2-24.5,9.5c-2.2-0.9-4.3-2-6.2-3.4c7.2-0.4,14.2-2.1,20.8-5.1&#10;&#9;&#9;c3.3-1.5,6.4-3.5,9.2-5.8L284.2,159.1z"/>
	<path class="st1_easter-balloon-78" d="M282,145.7c-8.2,6.3-17.8,10.6-28,12.5l1.9-4.6c9.3-2.1,18-6.5,25.4-12.6L282,145.7z"/>
	<path class="st1_easter-balloon-78" d="M280.1,134.1c-1.1,0.8-2.2,1.6-3.3,2.4c-5.3,3.4-11,5.9-17.1,7.5l2-4.9c4.6-1.4,9-3.5,13-6.2&#10;&#9;&#9;c1.6-1.1,3.2-2.2,4.7-3.5L280.1,134.1z"/>
	<path class="st1_easter-balloon-78" d="M278.1,121.6c-0.3,0.2-0.6,0.4-1,0.7c-3.1,2-6.3,3.8-9.7,5.3l-1.4,0.7l2.3-5.8c2.3-1.1,4.5-2.4,6.6-3.8&#10;&#9;&#9;c0.8-0.5,1.6-1.1,2.4-1.7L278.1,121.6z"/>
</g>
</svg>