<?xml version="1.0" encoding="utf-8"?>
<!-- Generator: Adobe Illustrator 19.2.1, SVG Export Plug-In . SVG Version: 6.00 Build 0)  -->
<svg version="1.1" id="Layer_1" xmlns="http://www.w3.org/2000/svg" xmlns:xlink="http://www.w3.org/1999/xlink" x="0px" y="0px"
	 viewBox="0 0 133.94 150" style="enable-background:new 0 0 133.94 150;" xml:space="preserve">
<style type="text/css">
	.st0{fill:#895734;}
	.st1{fill:#FFFFFF;}
	.st2{fill:#CBDEAE;}
	.st3{fill:#869A42;}
	.st4{fill:#6D6E71;}
	.st5{fill:#B6B8BA;}
	.st6{fill:#414042;}
	.st7{fill:#C6C5C6;}
	.st8{fill:#333233;}
	.st9{fill:#D7AC79;}
	.st10{fill:#FFD425;}
	.st11{fill:#C18049;}
	.st12{fill:#C39A61;}
	.st13{fill:#FFBB28;}
	.st14{fill:#B16F3B;}
	.st15{fill:#474A4C;}
	.st16{fill:#E0E1E2;}
	.st17{fill:#CED0D1;}
	.st18{fill:#6DD093;}
	.st19{fill:#73D9FF;}
	.st20{fill:#B3A092;}
	.st21{fill:#73747A;}
	.st22{fill:#E58B7E;}
	.st23{fill:#A3D3E3;}
	.st24{fill:#EDC98B;}
	.st25{fill:#C2E0BB;}
	.st26{fill:#F1B2AD;}
	.st27{fill:#EDB86E;}
	.st28{fill:#F1999C;}
	.st29{fill:#9F755A;}
	.st30{fill:#D8A899;}
	.st31{fill:#F5AA40;}
	.st32{fill:#C88F7B;}
	.st33{fill:#EBECEC;}
	.st34{fill:#F19C1A;}
	.st35{fill:#594A42;}
	.st36{fill:#84949D;}
	.st37{fill:#CBCDCE;}
	.st38{fill:#B4CDFF;}
	.st39{fill:#9CCCA1;}
	.st40{fill:#86BB8B;}
	.st41{fill:#99B5E8;}
	.st42{fill:#4A5F68;}
	.st43{fill:#FFB455;}
	.st44{fill:#E99443;}
	.st45{fill:#FFC75D;}
	.st46{fill:#F12C23;}
	.st47{fill:#8E1E1A;}
	.st48{opacity:0.4;}
	.st49{fill:none;}
	.st50{fill:#BCD6FF;}
	.st51{fill:#475CCA;}
	.st52{fill:#958079;}
	.st53{fill:#D0945B;}
	.st54{fill:#7C6A64;}
	.st55{fill:#B3804D;}
	.st56{fill:#5E3D56;}
	.st57{fill:#4A4A4B;}
	.st58{fill:#FFBD56;}
	.st59{opacity:0.7;fill:#FFB13C;}
	.st60{fill:#312E32;}
	.st61{fill:#DFA74D;}
	.st62{fill:#F2F2F2;}
	.st63{fill:#2B4980;}
	.st64{fill:#4B5974;}
	.st65{fill:#647597;}
	.st66{fill:#A1DB93;}
	.st67{fill:#FFE98C;}
	.st68{fill:#393C5D;}
	.st69{fill:#73DEDF;}
	.st70{fill:#3CC9D1;}
	.st71{fill:#91E7E9;}
	.st72{fill:#231F3A;}
	.st73{fill:#739EAD;}
	.st74{fill:#A9BB83;}
	.st75{fill:#92AD6D;}
	.st76{fill:#6083A0;}
	.st77{fill:#FAA969;}
	.st78{fill:#E6965F;}
	.st79{fill:#F4909D;}
	.st80{fill:#E07A86;}
	.st81{fill:#344072;}
	.st82{fill:#BEE077;}
	.st83{fill:#9FC168;}
	.st84{fill:#84A64E;}
	.st85{fill:#8F7F6E;}
	.st86{fill:#75695A;}
	.st87{fill:#4F5942;}
	.st88{fill:#F5E9B4;}
	.st89{fill:#E75C54;}
	.st90{fill:#F3D18C;}
	.st91{fill:#B81E2D;}
	.st92{fill:#C2A161;}
	.st93{fill:#E0D0B0;}
	.st94{fill:#D7BE7C;}
	.st95{fill:#D6AA60;}
	.st96{fill:#CB4B3A;}
	.st97{fill:#A2181F;}
	.st98{fill:#AB8343;}
	.st99{fill:#FF9598;}
	.st100{fill:#DDC2C1;}
	.st101{fill:#5C1825;}
	.st102{fill:#FFE1C7;}
	.st103{fill:#FFEFE0;}
	.st104{fill:#E8C59E;}
	.st105{fill:#BCAF95;}
	.st106{fill:#A89D85;}
	.st107{fill:#998F79;}
	.st108{fill:#C7B99E;}
	.st109{fill:#F4C46D;}
	.st110{fill:#F4B23B;}
	.st111{fill:#8A755F;}
	.st112{fill:#70CF89;}
	.st113{fill:#1CC7C7;}
	.st114{fill:#148A8A;}
	.st115{fill:#B07A2E;}
	.st116{fill:#595A5C;}
	.st117{fill:#73635E;}
	.st118{fill:#4C8C5D;}
	.st119{fill:#4C4148;}
</style>
<g>
	<g>
		<path class="st112" d="M125.57,62H90.31c-2.44,0-4.43-1.93-4.52-4.37l-1.82-54.6C83.96,2.47,84.41,2,84.97,2h45.94
			c0.56,0,1.01,0.47,1,1.03l-1.82,54.6C130,60.07,128.01,62,125.57,62z M122.94,54V10h-6v44H122.94z M110.94,54V10h-6v44H110.94z
			 M98.94,54V10h-6v44H98.94z"/>
	</g>
	<g>
		<path class="st4" d="M112.94,92v51c0,2.76-2.24,5-5,5s-5-2.24-5-5V92h5H112.94z"/>
	</g>
	<g>
		<path class="st31" d="M86.94,93v50c0,2.76-2.24,5-5,5h-32c-2.76,0-5-2.24-5-5V93c0-2.76,2.24-5,5-5h16h16
			C84.7,88,86.94,90.24,86.94,93z"/>
	</g>
	<g>
		<path class="st52" d="M70.94,4.92V71h-5h-5V7c0-4.29,5.42-7.33,9.79-2.63C70.86,4.52,70.94,4.72,70.94,4.92z"/>
	</g>
	<g>
		<path class="st4" d="M28.94,107v36c0,2.76-2.24,5-5,5s-5-2.24-5-5v-36h5H28.94z"/>
	</g>
	<g>
		<path class="st113" d="M41.13,2c2.59,0,4.63,2.21,4.43,4.8l-3.09,38.52c-0.3,3.77-3.45,6.68-7.23,6.68h-11.3h-11.3
			c-3.78,0-6.93-2.91-7.23-6.68L2.32,6.8C2.12,4.21,4.16,2,6.75,2H41.13z"/>
	</g>
	<g>
		<path class="st114" d="M20.043,45.32L16.953,6.8c-0.2-2.59,1.84-4.8,4.43-4.8H6.75C4.16,2,2.12,4.21,2.32,6.8l3.09,38.52
			C5.71,49.09,8.86,52,12.64,52h11.3h3.333C23.493,52,20.343,49.09,20.043,45.32z"/>
	</g>
	<g>
		<path class="st115" d="M59.573,143V93c0-2.76,2.24-5,5-5H49.94c-2.76,0-5,2.24-5,5v50c0,2.76,2.24,5,5,5h14.634
			C61.813,148,59.573,145.76,59.573,143z"/>
	</g>
	<g>
		<path class="st116" d="M106.94,143V92h-4v51c0,2.76,2.24,5,5,5c0.712,0,1.387-0.154,2-0.423
			C108.176,146.805,106.94,145.048,106.94,143z"/>
	</g>
	<g>
		<path class="st117" d="M67.973,2.417C64.37,0.98,60.94,3.587,60.94,7v64h4V7C64.94,4.942,66.193,3.183,67.973,2.417z"/>
	</g>
	<path class="st118" d="M100.423,57.63L98.94,13.124V54h-6V10h5.896l-0.232-6.97c-0.01-0.56,0.44-1.03,1-1.03H84.97
		c-0.56,0-1.01,0.47-1,1.03l1.82,54.6c0.09,2.44,2.08,4.37,4.52,4.37h14.633C102.503,62,100.513,60.07,100.423,57.63z"/>
	<g>
		<path class="st116" d="M22.94,143v-36h-4v36c0,2.76,2.24,5,5,5c0.712,0,1.387-0.154,2-0.423
			C24.176,146.805,22.94,145.048,22.94,143z"/>
	</g>
	<g>
		<path class="st119" d="M47.554,6.954c0.139-1.791-0.481-3.573-1.699-4.889C44.639,0.753,42.917,0,41.13,0H6.75
			C4.963,0,3.24,0.753,2.025,2.065C0.807,3.381,0.187,5.164,0.327,6.96l3.089,38.519C3.797,50.257,7.847,54,12.639,54h9.301v51h-3
			c-1.104,0-2,0.896-2,2v36c0,3.859,3.141,7,7,7s7-3.141,7-7v-36c0-1.104-0.896-2-2-2h-3V54h9.3c4.792,0,8.843-3.743,9.223-8.521
			L47.554,6.954z M26.94,143c0,1.654-1.346,3-3,3s-3-1.346-3-3v-34h6V143z M40.475,45.161C40.26,47.875,37.96,50,35.24,50H12.639
			c-2.72,0-5.02-2.125-5.236-4.84L4.314,6.646C4.261,5.953,4.49,5.291,4.961,4.783C5.428,4.278,6.063,4,6.75,4h34.38
			c0.687,0,1.322,0.278,1.789,0.783c0.471,0.508,0.7,1.17,0.647,1.857L40.475,45.161z"/>
		<path class="st119" d="M12.94,14c-1.104,0-2,0.896-2,2v23c0,1.104,0.896,2,2,2s2-0.896,2-2V16C14.94,14.896,14.045,14,12.94,14z"
			/>
		<path class="st119" d="M23.94,14c-1.104,0-2,0.896-2,2v23c0,1.104,0.896,2,2,2s2-0.896,2-2V16C25.94,14.896,25.045,14,23.94,14z"
			/>
		<path class="st119" d="M34.94,14c-1.104,0-2,0.896-2,2v23c0,1.104,0.896,2,2,2s2-0.896,2-2V16C36.94,14.896,36.045,14,34.94,14z"
			/>
		<path class="st119" d="M133.044,0.897C132.475,0.319,131.718,0,130.91,0H84.97c-0.808,0-1.565,0.319-2.134,0.897
			c-0.564,0.574-0.88,1.364-0.865,2.199l1.82,54.607C83.922,61.234,86.784,64,90.309,64h15.631v26h-3c-1.104,0-2,0.896-2,2v51
			c0,3.859,3.141,7,7,7s7-3.141,7-7V92c0-1.104-0.896-2-2-2h-3V64h15.63c3.525,0,6.388-2.766,6.519-6.296c0-0.002,0-0.005,0-0.007
			l1.821-54.632C133.924,2.261,133.608,1.471,133.044,0.897z M110.94,143c0,1.654-1.346,3-3,3s-3-1.346-3-3V94h6V143z
			 M128.091,57.558C128.04,58.927,126.932,60,125.57,60H90.309c-1.363,0-2.471-1.073-2.521-2.437L86.003,4h43.874L128.091,57.558z"
			/>
		<path class="st119" d="M92.94,56h6c1.104,0,2-0.896,2-2V10c0-1.104-0.896-2-2-2h-6c-1.104,0-2,0.896-2,2v44
			C90.94,55.104,91.836,56,92.94,56z M94.94,12h2v40h-2V12z"/>
		<path class="st119" d="M104.94,56h6c1.104,0,2-0.896,2-2V10c0-1.104-0.896-2-2-2h-6c-1.104,0-2,0.896-2,2v44
			C102.94,55.104,103.836,56,104.94,56z M106.94,12h2v40h-2V12z"/>
		<path class="st119" d="M116.94,56h6c1.104,0,2-0.896,2-2V10c0-1.104-0.896-2-2-2h-6c-1.104,0-2,0.896-2,2v44
			C114.94,55.104,115.836,56,116.94,56z M118.94,12h2v40h-2V12z"/>
		<path class="st119" d="M81.94,86h-14V73h3c1.104,0,2-0.896,2-2V4.92c0-0.683-0.25-1.345-0.704-1.865
			c-0.014-0.016-0.027-0.031-0.042-0.046c-2.553-2.747-5.847-3.689-8.811-2.525C60.684,1.544,58.94,4.102,58.94,7v64
			c0,1.104,0.896,2,2,2h3v13h-14c-3.859,0-7,3.141-7,7v50c0,3.859,3.141,7,7,7h32c3.859,0,7-3.141,7-7V93
			C88.94,89.141,85.8,86,81.94,86z M62.94,7c0-1.242,0.748-2.338,1.906-2.793c1.293-0.507,2.765-0.07,4.094,1.197V69h-6V7z
			 M84.94,143c0,1.654-1.346,3-3,3h-32c-1.654,0-3-1.346-3-3V93c0-1.654,1.346-3,3-3h32c1.654,0,3,1.346,3,3V143z"/>
		<path class="st119" d="M76.94,94c-1.104,0-2,0.896-2,2v44c0,1.104,0.896,2,2,2s2-0.896,2-2V96C78.94,94.896,78.045,94,76.94,94z"
			/>
		<path class="st119" d="M65.94,94c-1.104,0-2,0.896-2,2v44c0,1.104,0.896,2,2,2s2-0.896,2-2V96C67.94,94.896,67.045,94,65.94,94z"
			/>
		<path class="st119" d="M54.94,94c-1.104,0-2,0.896-2,2v44c0,1.104,0.896,2,2,2s2-0.896,2-2V96C56.94,94.896,56.045,94,54.94,94z"
			/>
	</g>
</g>
</svg>
