<?xml version="1.0" encoding="utf-8"?>
<!-- Generator: Adobe Illustrator 19.2.1, SVG Export Plug-In . SVG Version: 6.00 Build 0)  -->
<svg version="1.1" id="Layer_1" xmlns="http://www.w3.org/2000/svg" xmlns:xlink="http://www.w3.org/1999/xlink" x="0px" y="0px"
	 viewBox="0 0 151 150" style="enable-background:new 0 0 151 150;" xml:space="preserve">
<style type="text/css">
	.st0{fill:#B3C471;}
	.st1{fill:#CAD681;}
	.st2{fill:#585948;}
	.st3{fill:#7D1F4D;}
	.st4{fill:#FFFFFF;}
	.st5{fill:#5CD7FF;}
	.st6{fill:#7BF0D3;}
	.st7{fill:#4579B3;}
	.st8{fill:#E75C54;}
	.st9{fill:#FFE75B;}
	.st10{fill:#C55049;}
	.st11{fill:#E3B347;}
	.st12{fill:#A54242;}
	.st13{fill:#F7CC46;}
	.st14{fill:#E5B72D;}
	.st15{fill:#644E35;}
	.st16{opacity:0.2;}
	.st17{fill:#E5A13F;}
	.st18{fill:#A0A1A4;}
	.st19{fill:#6A5C4F;}
	.st20{fill:#D8F0F3;}
	.st21{fill:#64574B;}
	.st22{fill:#B6D7E0;}
	.st23{fill:#564B40;}
	.st24{fill:#99BCC8;}
	.st25{fill:#49494B;}
	.st26{fill:#EAFFFF;}
	.st27{fill:#756557;}
	.st28{fill:#383A3B;}
	.st29{fill:#2EB67F;}
	.st30{fill:#6D6D70;}
	.st31{fill:#59595B;}
	.st32{fill:#51DEFF;}
	.st33{fill:#40E0D6;}
	.st34{fill:#8FD7FF;}
	.st35{fill:#40CFE9;}
	.st36{fill:#3ED1BC;}
	.st37{fill:#8EB9FF;}
	.st38{fill:#425DB4;}
	.st39{fill:#F2557C;}
	.st40{fill:#CE3A62;}
	.st41{fill:#E3396F;}
	.st42{fill:#F4B0C5;}
	.st43{fill:#E73B60;}
	.st44{fill:#C5284C;}
	.st45{fill:#D92756;}
	.st46{fill:#EAEBEB;}
	.st47{clip-path:url(#SVGID_2_);fill:#E5E5E5;}
	.st48{fill:#D3D3D3;}
	.st49{fill:#E5E5E5;}
	.st50{fill:#254DAA;}
	.st51{fill:#214599;}
	.st52{fill:#F7ACAF;}
	.st53{fill:#EB2E38;}
	.st54{fill:#FFD66F;}
	.st55{fill:#CFA353;}
	.st56{fill:#CFC3BE;}
	.st57{fill:#87685C;}
	.st58{fill:#82D5A2;}
	.st59{fill:#56C681;}
	.st60{fill:#4AB569;}
	.st61{fill:#65CB8C;}
	.st62{fill:#DFE0E1;}
	.st63{fill:#1C9046;}
	.st64{fill:#76D8E8;}
	.st65{fill:#D393FF;}
	.st66{fill:#76D0E3;}
	.st67{fill:#D888FF;}
	.st68{fill:#715D94;}
</style>
<g>
	<g id="XMLID_8_">
		<g>
			<path class="st64" d="M135.345,105.49c5.36,0,10.1-2.67,13-6.75v20.08c-1.27-0.06-2.52-0.57-3.52-1.52l-11.62-11.31l0.09-0.64
				C133.965,105.45,134.655,105.49,135.345,105.49z"/>
			<path class="st64" d="M119.345,89.38c0,0.83,0.06,1.65,0.18,2.45l-0.71,0.16l-57.53-55.96c-1.99-1.93-3.78-3.96-5.38-6.06h22.88
				c-3.33-2.95-5.44-7.26-5.44-12.08c0-8.9,7.16-16.11,16-16.11c7.29,0,13.44,4.91,15.37,11.62c0.41,1.42,0.63,2.93,0.63,4.49
				c0,4.82-2.11,9.13-5.44,12.08h48.44v50.04c-2.9-4.08-7.64-6.74-13-6.74C126.505,73.27,119.345,80.48,119.345,89.38z"/>
			<path class="st65" d="M148.345,118.82v29.17h-48.4c3.31-2.95,5.4-7.1,5.4-11.89c0-5.56-2.8-10.46-7.05-13.36
				c-2.56-1.74-5.63-2.75-8.95-2.75c-8.48,0-15.41,6.63-15.96,15.03c-0.03,0.36-0.04,0.72-0.04,1.08c0,4.79,2.09,8.94,5.4,11.89
				h-48.4v-22.44V99.69c-2.9,3.54-7.29,5.8-12.2,5.8c-8.73,0-15.8-7.12-15.8-15.91s7.07-15.91,15.8-15.91c4.91,0,9.3,2.25,12.2,5.79
				V29.97h25.56c1.6,2.1,3.39,4.13,5.38,6.06l57.53,55.96l0.71-0.16c1.08,7.07,6.7,12.62,13.77,13.52l-0.09,0.64l11.62,11.31
				C145.825,118.25,147.075,118.76,148.345,118.82z"/>
		</g>
	</g>
	<path class="st66" d="M130.23,74.07L91.122,36.03c-1.99-1.93-3.78-3.96-5.38-6.06h14.013c0.007-0.006,0.013-0.014,0.02-0.02H85.292
		v-0.74c-4.694-6.384-7.672-13.451-9.096-20.69c-1.881,2.641-3,5.87-3,9.37c0,4.82,2.11,9.13,5.44,12.08h-22.88
		c1.6,2.1,3.39,4.13,5.38,6.06l57.53,55.96l0.71-0.16c-0.12-0.8-0.18-1.62-0.18-2.45C119.196,82.227,123.825,76.174,130.23,74.07z"
		/>
	<path class="st67" d="M30.305,29.95v49.466c-2.9-3.514-7.271-5.746-12.16-5.746c-8.73,0-15.8,7.12-15.8,15.91
		c0,8.79,7.07,15.91,15.8,15.91c4.889,0,9.26-2.243,12.16-5.756v48.256h9.896V29.95H30.305z"/>
	<path class="st68" d="M150.349,118.867c0-0.018-0.004-0.034-0.004-0.051V98.74c0-0.87-0.562-1.641-1.392-1.905
		c-0.826-0.267-1.734,0.037-2.238,0.746c-2.63,3.7-6.881,5.909-11.37,5.909c-0.639,0-1.229-0.04-1.798-0.124
		c-6.147-0.782-11.101-5.65-12.045-11.833c-0.104-0.696-0.157-1.421-0.157-2.153c0-7.78,6.28-14.109,14-14.109
		c4.494,0,8.744,2.205,11.37,5.899c0.504,0.709,1.413,1.012,2.238,0.746c0.829-0.265,1.392-1.035,1.392-1.905V29.97
		c0-1.104-0.896-2-2-2h-44.062c1.977-2.957,3.062-6.46,3.062-10.08c0-1.716-0.238-3.413-0.708-5.043
		C104.423,5.153,97.313-0.22,89.345-0.22c-9.925,0-18,8.124-18,18.11c0,3.62,1.085,7.124,3.062,10.08H30.345c-1.104,0-2,0.896-2,2
		v44.922c-2.957-2.081-6.499-3.222-10.2-3.222c-9.814,0-17.8,8.035-17.8,17.91c0,9.876,7.985,17.91,17.8,17.91
		c3.698,0,7.241-1.145,10.2-3.229v43.729c0,1.104,0.896,2,2,2h48.399c0.83,0,1.573-0.513,1.869-1.288
		c0.295-0.775,0.081-1.652-0.538-2.205c-3.051-2.719-4.73-6.411-4.73-10.396c0-0.305,0.008-0.608,0.036-0.949
		c0.482-7.38,6.616-13.161,13.964-13.161c2.806,0,5.512,0.831,7.822,2.402c3.868,2.64,6.178,7.017,6.178,11.708
		c0,3.984-1.681,7.677-4.731,10.396c-0.619,0.553-0.833,1.43-0.538,2.205c0.296,0.775,1.039,1.288,1.869,1.288h48.4
		c1.104,0,2-0.896,2-2v-29.091C150.346,118.888,150.349,118.877,150.349,118.867z M146.345,103.691v12.276
		c-0.041-0.035-0.087-0.063-0.126-0.1l-8.753-8.52C140.709,106.954,143.781,105.689,146.345,103.691z M80.111,28.473
		c-3.028-2.683-4.766-6.54-4.766-10.583c0-7.78,6.28-14.11,14-14.11c6.194,0,11.725,4.183,13.448,10.174
		c0.366,1.271,0.552,2.595,0.552,3.936c0,4.042-1.737,7.9-4.767,10.583c-0.622,0.551-0.839,1.429-0.544,2.206
		c0.295,0.777,1.039,1.291,1.87,1.291h46.44v43.091c-3.117-2.425-6.981-3.791-11-3.791c-9.41,0-17.145,7.307-17.923,16.575
		L62.677,34.594c-0.869-0.842-1.708-1.721-2.518-2.624h18.625c0.831,0,1.575-0.514,1.87-1.291
		C80.95,29.902,80.733,29.023,80.111,28.473z M104.337,145.99c1.961-2.91,3.009-6.306,3.009-9.89c0-6.015-2.962-11.626-7.927-15.015
		c-2.979-2.025-6.462-3.096-10.073-3.096c-9.448,0-17.336,7.423-17.953,16.862c-0.035,0.415-0.047,0.832-0.047,1.248
		c0,3.584,1.048,6.979,3.008,9.89H32.345v-46.3c0-0.845-0.531-1.599-1.327-1.884c-0.794-0.282-1.686-0.039-2.22,0.616
		c-2.639,3.221-6.521,5.067-10.653,5.067c-7.609,0-13.8-6.24-13.8-13.91s6.19-13.91,13.8-13.91c4.137,0,8.02,1.843,10.653,5.057
		c0.536,0.654,1.427,0.897,2.22,0.616c0.796-0.285,1.327-1.039,1.327-1.884V31.97h22.593c1.527,1.931,3.185,3.78,4.952,5.494
		l57.53,55.96c0.138,0.134,0.294,0.236,0.455,0.322c1.655,6.679,7.001,11.898,13.654,13.331c0.08,0.123,0.171,0.24,0.281,0.347
		l11.638,11.327c0.835,0.793,1.828,1.377,2.897,1.72v25.52H104.337z"/>
</g>
</svg>
