<?xml version="1.0" encoding="utf-8"?>
<!-- Generator: Adobe Illustrator 19.2.1, SVG Export Plug-In . SVG Version: 6.00 Build 0)  -->
<svg version="1.1" id="Layer_1" xmlns="http://www.w3.org/2000/svg" xmlns:xlink="http://www.w3.org/1999/xlink" x="0px" y="0px"
	 viewBox="0 0 146.085 150" style="enable-background:new 0 0 146.085 150;" xml:space="preserve">
<style type="text/css">
	.st0{fill:#895734;}
	.st1{fill:#FFFFFF;}
	.st2{fill:#CBDEAE;}
	.st3{fill:#869A42;}
	.st4{fill:#6D6E71;}
	.st5{fill:#B6B8BA;}
	.st6{fill:#414042;}
	.st7{fill:#C6C5C6;}
	.st8{fill:#333233;}
	.st9{fill:#D7AC79;}
	.st10{fill:#FFD425;}
	.st11{fill:#C18049;}
	.st12{fill:#C39A61;}
	.st13{fill:#FFBB28;}
	.st14{fill:#B16F3B;}
	.st15{fill:#474A4C;}
	.st16{fill:#E0E1E2;}
	.st17{fill:#CED0D1;}
	.st18{fill:#6DD093;}
	.st19{fill:#73D9FF;}
	.st20{fill:#B3A092;}
	.st21{fill:#73747A;}
	.st22{fill:#E58B7E;}
	.st23{fill:#A3D3E3;}
	.st24{fill:#EDC98B;}
	.st25{fill:#C2E0BB;}
	.st26{fill:#F1B2AD;}
	.st27{fill:#EDB86E;}
	.st28{fill:#F1999C;}
	.st29{fill:#9F755A;}
	.st30{fill:#D8A899;}
	.st31{fill:#F5AA40;}
	.st32{fill:#C88F7B;}
	.st33{fill:#EBECEC;}
	.st34{fill:#F19C1A;}
	.st35{fill:#594A42;}
	.st36{fill:#84949D;}
	.st37{fill:#CBCDCE;}
	.st38{fill:#B4CDFF;}
	.st39{fill:#9CCCA1;}
	.st40{fill:#86BB8B;}
	.st41{fill:#99B5E8;}
	.st42{fill:#4A5F68;}
	.st43{fill:#FFB455;}
	.st44{fill:#E99443;}
	.st45{fill:#FFC75D;}
	.st46{fill:#F12C23;}
	.st47{fill:#8E1E1A;}
	.st48{opacity:0.4;}
	.st49{fill:none;}
	.st50{fill:#BCD6FF;}
	.st51{fill:#475CCA;}
	.st52{fill:#958079;}
	.st53{fill:#D0945B;}
	.st54{fill:#7C6A64;}
	.st55{fill:#B3804D;}
	.st56{fill:#5E3D56;}
	.st57{fill:#4A4A4B;}
	.st58{fill:#FFBD56;}
	.st59{opacity:0.7;fill:#FFB13C;}
	.st60{fill:#312E32;}
	.st61{fill:#DFA74D;}
	.st62{fill:#F2F2F2;}
	.st63{fill:#2B4980;}
	.st64{fill:#4B5974;}
	.st65{fill:#647597;}
	.st66{fill:#A1DB93;}
	.st67{fill:#FFE98C;}
	.st68{fill:#393C5D;}
	.st69{fill:#73DEDF;}
	.st70{fill:#3CC9D1;}
	.st71{fill:#91E7E9;}
	.st72{fill:#231F3A;}
	.st73{fill:#739EAD;}
	.st74{fill:#A9BB83;}
	.st75{fill:#92AD6D;}
	.st76{fill:#6083A0;}
	.st77{fill:#FAA969;}
	.st78{fill:#E6965F;}
	.st79{fill:#F4909D;}
	.st80{fill:#E07A86;}
	.st81{fill:#344072;}
	.st82{fill:#BEE077;}
	.st83{fill:#9FC168;}
	.st84{fill:#84A64E;}
	.st85{fill:#8F7F6E;}
	.st86{fill:#75695A;}
	.st87{fill:#4F5942;}
	.st88{fill:#F5E9B4;}
	.st89{fill:#E75C54;}
	.st90{fill:#F3D18C;}
	.st91{fill:#B81E2D;}
	.st92{fill:#C2A161;}
	.st93{fill:#E0D0B0;}
	.st94{fill:#D7BE7C;}
	.st95{fill:#D6AA60;}
	.st96{fill:#CB4B3A;}
	.st97{fill:#A2181F;}
	.st98{fill:#AB8343;}
</style>
<g>
	<path class="st88" d="M142.085,78h-70l13.72,24.7l-0.54,0.3c-4.22,1.86-7.18,6.08-7.18,11c0,6.62,5.38,12,12,12
		c2.46,0,4.74-0.74,6.64-2l0.7-0.38l8.66,15.58c-10.06,5.6-21.66,8.8-34,8.8c-38.66,0-70-31.34-70-70c0-38.66,31.34-70,70-70
		C110.744,8,142.085,39.34,142.085,78 M100.085,42c0-6.64-5.38-12-12-12c-6.62,0-12,5.36-12,12c0,6.62,5.38,12,12,12
		C94.705,54,100.085,48.62,100.085,42 M58.085,104c0-6.62-5.38-12-12-12c-6.64,0-12,5.38-12,12c0,6.62,5.36,12,12,12
		C52.704,116,58.085,110.62,58.085,104 M56.085,56c0-6.64-5.38-12-12-12s-12,5.36-12,12c0,6.62,5.38,12,12,12
		S56.085,62.62,56.085,56"/>
	<path class="st89" d="M85.805,102.7l11.62,20.92l-0.7,0.38c-1.9,1.26-4.18,2-6.64,2c-6.62,0-12-5.38-12-12
		c0-4.92,2.96-9.14,7.18-11L85.805,102.7z"/>
	<path class="st89" d="M88.085,30c6.62,0,12,5.36,12,12c0,6.62-5.38,12-12,12s-12-5.38-12-12C76.085,35.36,81.465,30,88.085,30z"/>
	<path class="st89" d="M46.085,92c6.62,0,12,5.38,12,12c0,6.62-5.38,12-12,12c-6.64,0-12-5.38-12-12
		C34.085,97.38,39.445,92,46.085,92"/>
	<path class="st89" d="M44.085,44c6.62,0,12,5.36,12,12c0,6.62-5.38,12-12,12s-12-5.38-12-12C32.085,49.36,37.465,44,44.085,44"/>
	<path class="st90" d="M78.085,114c0-4.92,2.96-9.14,7.18-11l0.54-0.3L72.085,78h48c0-16.265-8.097-30.63-20.473-39.312
		c0.302,1.053,0.473,2.161,0.473,3.312c0,6.62-5.38,12-12,12c-6.62,0-12-5.38-12-12c0-4.748,2.758-8.83,6.746-10.777
		C79.375,30.432,75.781,30,72.085,30c-26.51,0-48,21.49-48,48c0,11.523,4.064,22.094,10.832,30.368
		c-0.531-1.355-0.832-2.825-0.832-4.368c0-6.62,5.36-12,12-12c6.62,0,12,5.38,12,12c0,6.62-5.38,12-12,12
		c-1.543,0-3.013-0.301-4.367-0.831C49.991,121.936,60.562,126,72.085,126c4.187,0,8.248-0.541,12.121-1.549
		C80.556,122.391,78.085,118.483,78.085,114 M44.085,68c-6.62,0-12-5.38-12-12c0-6.64,5.38-12,12-12c6.62,0,12,5.36,12,12
		C56.085,62.62,50.705,68,44.085,68"/>
	<path class="st91" d="M44.084,70c-7.72,0-14-6.28-14-14c0-7.72,6.28-14,14-14c7.72,0,14,6.28,14,14
		C58.084,63.72,51.804,70,44.084,70 M44.084,46c-5.513,0-10,4.486-10,10c0,5.514,4.486,10,10,10c5.514,0,10-4.486,10-10
		C54.085,50.486,49.598,46,44.084,46"/>
	<path class="st91" d="M88.084,56c-7.72,0-14-6.28-14-14s6.28-14,14-14s14,6.28,14,14S95.804,56,88.084,56z M88.084,32
		c-5.514,0-10,4.486-10,10s4.486,10,10,10s10-4.486,10-10S93.598,32,88.084,32z"/>
	<path class="st91" d="M46.085,118c-7.72,0-14-6.28-14-14c0-7.72,6.28-14,14-14c7.72,0,14,6.28,14,14
		C60.084,111.72,53.804,118,46.085,118 M46.085,94c-5.514,0-10,4.487-10,10c0,5.513,4.486,10,10,10c5.513,0,10-4.487,10-10
		C56.085,98.486,51.598,94,46.085,94"/>
	<path class="st91" d="M90.084,128c-7.72,0-14-6.28-14-14c0-5.552,3.287-10.588,8.374-12.83c1.013-0.443,2.191,0.014,2.637,1.023
		c0.445,1.011-0.013,2.191-1.023,2.637c-3.637,1.604-5.987,5.202-5.987,9.17c0,5.514,4.486,10,10,10
		c1.977,0,3.891-0.576,5.535-1.667c0.923-0.613,2.162-0.357,2.772,0.562c0.61,0.921,0.358,2.162-0.562,2.772
		C95.528,127.193,92.849,128,90.084,128z"/>
	<path class="st92" d="M72.085,150c-39.701,0-72-32.299-72-72c0-39.701,32.299-72,72-72c39.701,0,72,32.299,72,72
		c0,1.104-0.896,2-2,2H75.483l32.35,58.228c0.536,0.965,0.189,2.183-0.775,2.719C96.419,146.87,84.325,150,72.085,150 M72.085,10
		c-37.496,0-68,30.505-68,68s30.505,68,68,68c10.891,0,21.657-2.623,31.266-7.602L70.336,78.97
		c-0.345-0.619-0.335-1.374,0.024-1.985C70.72,76.375,71.375,76,72.085,76h67.97C138.995,39.425,108.912,10,72.085,10"/>
	<path class="st93" d="M72.093,5.944c-39.72,0-72.036,32.315-72.036,72.036c0,39.72,32.316,72.036,72.036,72.036
		c7.385,0,14.715-1.147,21.707-3.351c-0.005-0.002-0.011-0.004-0.017-0.005C86.794,148.862,79.467,150,72.085,150
		c-39.701,0-72-32.299-72-72c0-39.701,32.299-72,72-72c7.536,0,14.802,1.163,21.634,3.32c0.028-0.009,0.055-0.017,0.083-0.026
		C86.948,7.122,79.656,5.944,72.093,5.944"/>
	<path class="st94" d="M72.085,10c-37.496,0-68,30.505-68,68s30.505,68,68,68c5.149,0,10.27-0.586,15.254-1.731
		c-10.352-4.416-19.466-11.186-26.667-19.635c-5.474-1.336-10.58-3.611-15.138-6.645c-7.283-0.283-13.156-6.156-13.439-13.439
		c-5.06-7.604-8.01-16.732-8.01-26.55c0-8.487,2.202-16.459,6.067-23.376c0.539-5.501,4.275-10.077,9.319-11.843
		c5.877-5.445,13.121-9.438,21.158-11.406c7.195-8.458,16.307-15.238,26.656-19.663C82.397,10.592,77.308,10,72.085,10"/>
	<path class="st95" d="M54.047,115.509c-2.262,1.57-5.007,2.491-7.963,2.491c-0.184,0-0.368-0.004-0.551-0.011
		c4.558,3.033,9.664,5.309,15.138,6.645C58.236,121.776,56.019,118.725,54.047,115.509 M30.152,54.624
		c-3.864,6.917-6.067,14.89-6.067,23.376c0,9.818,2.951,18.946,8.01,26.55c-0.007-0.183-0.011-0.366-0.011-0.55
		c0-7.182,5.436-13.118,12.41-13.91c-0.669-3.938-1.018-7.985-1.018-12.11c0-2.697,0.149-5.36,0.439-7.981
		C36.273,69.908,30.084,63.663,30.084,56C30.084,55.536,30.107,55.076,30.152,54.624 M60.629,31.375
		c-8.037,1.968-15.281,5.961-21.158,11.406C40.916,42.275,42.469,42,44.084,42c2.86,0,5.523,0.862,7.742,2.34
		C54.29,39.695,57.248,35.35,60.629,31.375"/>
	<path class="st96" d="M44.084,46c-5.513,0-10,4.486-10,10c0,5.514,4.486,10,10,10c0.13,0,0.26-0.003,0.389-0.007
		c1.064-6.326,2.954-12.371,5.558-18.027C48.368,46.731,46.31,46,44.084,46"/>
	<path class="st96" d="M45.279,94.032c-5.138,0.412-9.194,4.726-9.194,9.968c0,5.513,4.486,10,10,10
		c2.231,0,4.293-0.735,5.959-1.974C49.027,106.428,46.732,100.39,45.279,94.032"/>
	<path class="st97" d="M44.084,42c-1.616,0-3.168,0.275-4.613,0.781c-5.045,1.766-8.781,6.342-9.319,11.843
		c-0.044,0.453-0.067,0.912-0.067,1.376c0,7.663,6.189,13.908,13.831,13.999c0.149-1.347,0.336-2.683,0.558-4.007
		C44.344,65.997,44.214,66,44.084,66c-5.513,0-10-4.486-10-10c0-5.514,4.486-10,10-10c2.226,0,4.284,0.731,5.947,1.965
		c0.565-1.227,1.164-2.437,1.794-3.625C49.607,42.862,46.944,42,44.084,42"/>
	<path class="st97" d="M44.494,90.09c-6.974,0.792-12.41,6.728-12.41,13.91c0,0.184,0.004,0.367,0.011,0.55
		c0.283,7.283,6.155,13.156,13.439,13.439C45.716,117.996,45.9,118,46.085,118c2.956,0,5.701-0.921,7.963-2.491
		c-0.699-1.14-1.368-2.303-2.004-3.483c-1.665,1.24-3.728,1.974-5.959,1.974c-5.514,0-10-4.487-10-10
		c0-5.243,4.056-9.556,9.194-9.968C44.982,92.731,44.72,91.416,44.494,90.09"/>
	<path class="st98" d="M72.085,6c-39.701,0-72,32.299-72,72c0,39.701,32.299,72,72,72c7.382,0,14.71-1.138,21.698-3.341
		c-2.195-0.696-4.345-1.495-6.444-2.39C82.355,145.414,77.233,146,72.085,146c-37.496,0-68-30.505-68-68s30.505-68,68-68
		c5.224,0,10.312,0.592,15.201,1.713c2.094-0.895,4.243-1.696,6.433-2.392C86.887,7.163,79.621,6,72.085,6"/>
	<circle class="st92" cx="91.704" cy="88.619" r="1.62"/>
	<circle class="st92" cx="102.465" cy="97.619" r="1.62"/>
	<circle class="st92" cx="112.704" cy="97.619" r="1.62"/>
	<circle class="st92" cx="103.704" cy="112.619" r="1.62"/>
	<circle class="st92" cx="133.704" cy="97.619" r="1.62"/>
	<circle class="st92" cx="144.465" cy="108.381" r="1.62"/>
</g>
</svg>
