<?xml version="1.0" encoding="utf-8"?>
<!-- Generator: Adobe Illustrator 19.2.1, SVG Export Plug-In . SVG Version: 6.00 Build 0)  -->
<svg version="1.1" id="Layer_1" xmlns="http://www.w3.org/2000/svg" xmlns:xlink="http://www.w3.org/1999/xlink" x="0px" y="0px"
	 viewBox="0 0 151 150" style="enable-background:new 0 0 151 150;" xml:space="preserve">
<style type="text/css">
	.st0{display:none;fill:none;stroke:#FFFFFF;stroke-width:2;stroke-linecap:round;stroke-miterlimit:10;}
	.st1{fill:#9D2106;}
	.st2{fill:#822104;}
	.st3{fill:#951B05;}
	.st4{fill:#FFFFFF;}
	.st5{fill:#8A1F0C;}
	.st6{fill:#E2E3E4;}
	.st7{fill:#6DA2C8;}
	.st8{fill:#D6E6EF;}
	.st9{fill:#B49CB5;}
	.st10{fill:#AC9EB6;}
	.st11{fill:#EBF3F7;}
	.st12{fill:#A69FB5;}
	.st13{fill:#B99FB5;}
	.st14{fill:#D093FB;}
	.st15{fill:#45F8B9;}
	.st16{fill:#41E8A3;}
	.st17{fill:#3072AA;}
	.st18{fill:#FD9E99;}
	.st19{fill:#9ED098;}
	.st20{fill:#75C5B6;}
	.st21{fill:#8DB485;}
	.st22{fill:#5AB49E;}
	.st23{fill:#E4E5E6;}
	.st24{fill:#788782;}
	.st25{fill:#CFD1D2;}
	.st26{fill:#BABCBE;}
	.st27{fill:#998379;}
	.st28{fill:#826D64;}
	.st29{fill:#EFF0F0;}
	.st30{fill:#58515B;}
	.st31{fill:#B98BD2;}
	.st32{fill:#9756AC;}
	.st33{fill:#814497;}
	.st34{fill:#25B598;}
	.st35{fill:#008B84;}
	.st36{fill:#7BE4C2;}
	.st37{fill:#25A48D;}
	.st38{fill:#68DAB4;}
	.st39{fill:#FD76A2;}
	.st40{fill:#E76899;}
	.st41{fill:#9CFFB4;}
	.st42{fill:#4D5CEA;}
	.st43{fill:#FF9B95;}
	.st44{fill:#FF868C;}
	.st45{fill:#FF6B77;}
	.st46{fill:#EF85FF;}
	.st47{fill:#C44FD7;}
	.st48{fill:#2DAB5B;}
	.st49{fill:#4EC5FF;}
	.st50{fill:#3EA2FF;}
	.st51{fill:#D898FF;}
	.st52{fill:#76DDED;}
	.st53{fill:#D888FF;}
	.st54{fill:#A37550;}
	.st55{fill:#956744;}
	.st56{fill:#006838;}
	.st57{fill:#005E26;}
	.st58{fill:#5D3A47;}
	.st59{fill:#FFBC13;}
	.st60{fill:#808083;}
	.st61{fill:#56C681;}
	.st62{fill:#6D6E71;}
	.st63{fill:#D3951D;}
	.st64{fill:#3FB068;}
	.st65{fill:#FBEEEE;}
	.st66{fill:#FBF0F1;}
	.st67{fill:#F9E7E8;}
	.st68{fill:#F5D9DB;}
	.st69{fill:#F1C9CC;}
	.st70{fill:#44A468;}
	.st71{fill:#389D61;}
	.st72{fill:#E7A1A5;}
	.st73{fill:#00774E;}
	.st74{fill:#673DAB;}
	.st75{fill:#DEFF5C;}
	.st76{fill:#00BFE0;}
	.st77{fill:#E1329F;}
	.st78{fill:#00BAA3;}
	.st79{fill:#00DCA3;}
	.st80{fill:#00A9E0;}
	.st81{fill:#FF329F;}
	.st82{fill:#504239;}
	.st83{fill:#FD86AE;}
	.st84{fill:#F5A7D6;}
	.st85{fill:#A54A78;}
	.st86{fill:#715D94;}
	.st87{fill:#52A871;}
	.st88{fill:#F9CA40;}
	.st89{fill:#F9B240;}
</style>
<g id="XMLID_22_">
	<g>
		<g id="XMLID_24_">
			<g>
				<path class="st51" d="M135.944,76.96c0.36,0.03,0.72,0.04,1.08,0.04c4.79,0,9.09-2.09,12.04-5.4V120h-22.59
					c9.69-12.78,12.42-28.47,9.45-42.8L135.944,76.96z"/>
				<path class="st52" d="M105.814,132.2c0,8.73-7.12,15.8-15.91,15.8s-15.91-7.07-15.91-15.8c0-4.91,2.25-9.3,5.79-12.2h-49.49
					V71.56c-2.95,3.33-7.26,5.44-12.08,5.44c-8.9,0-16.11-7.16-16.11-16c0-7.29,4.91-13.44,11.62-15.37
					c4.4,2.71,8.45,5.93,12.05,9.58c6.5,6.5,6.75,7.4,14.15,0c11.53-11.7,27.62-19.03,45.39-19.03c2.1,0,4.21,0.08,6.23,0.34
					c13.1,1.26,23.82,7.1,31.56,15.48l0.56,0.05c-1.74,2.56-2.75,5.63-2.75,8.95c0,8.48,6.63,15.41,15.03,15.96l-0.02,0.24
					c2.97,14.33,0.24,30.02-9.45,42.8h-26.46C103.554,122.9,105.814,127.29,105.814,132.2z"/>
				<path class="st51" d="M18.214,45c4.82,0,9.13,2.11,12.08,5.44V2h50.04c-4.08,2.9-6.74,7.64-6.74,13c0,8.84,7.21,16,16.11,16
					s16.11-7.16,16.11-16c0-5.36-2.67-10.1-6.75-13h50v48.4c-2.95-3.31-7.25-5.4-12.04-5.4c-5.56,0-10.46,2.8-13.36,7.05l-0.56-0.05
					c-7.74-8.38-18.46-14.22-31.56-15.48c-2.02-0.26-4.13-0.34-6.23-0.34c-17.77,0-33.86,7.33-45.39,19.03
					c-7.4,7.4-7.65,6.5-14.15,0c-3.6-3.65-7.65-6.87-12.05-9.58C15.144,45.22,16.654,45,18.214,45z"/>
			</g>
		</g>
	</g>
</g>
<g>
	<path class="st53" d="M32.295,4v8.091c14.395,0.545,28.081,3.854,40.543,9.414c-0.792-2.021-1.243-4.209-1.243-6.505
		c0-4.018,1.366-7.883,3.791-11H32.295z"/>
	<path class="st53" d="M136.649,104.338c0.72,4.468,1.154,9.031,1.319,13.662h9.096V75.962c-2.604,1.733-5.643,2.796-8.792,3
		C139.709,87.562,139.116,96.241,136.649,104.338z"/>
	<path class="st53" d="M147.064,46.038V4h-43.049c2.43,3.118,3.799,6.984,3.799,11c0,9.014-6.708,16.48-15.42,17.779
		c1.01,0.73,2.01,1.472,2.994,2.235c10.732,1.753,20.296,6.637,27.882,14.28c3.428-3.971,8.432-6.294,13.754-6.294
		C140.626,43,144.116,44.077,147.064,46.038z"/>
</g>
<path class="st86" d="M137.024,47c4.023,0,7.867,1.724,10.547,4.73c0.553,0.621,1.433,0.834,2.205,0.539
	c0.775-0.295,1.288-1.039,1.288-1.869V2c0-1.104-0.896-2-2-2h-50c-0.87,0-1.641,0.563-1.905,1.392s0.037,1.734,0.747,2.238
	c3.699,2.629,5.908,6.88,5.908,11.37c0,7.72-6.33,14-14.11,14s-14.109-6.28-14.109-14c0-4.495,2.205-8.745,5.897-11.37
	c0.71-0.504,1.012-1.409,0.747-2.238S81.204,0,80.334,0h-50.04c-1.104,0-2,0.896-2,2v44.062C25.338,44.085,21.834,43,18.215,43
	c-1.682,0-3.343,0.232-4.938,0.682c-0.012,0.003-0.023,0.006-0.035,0.009c-0.023,0.007-0.047,0.011-0.071,0.018
	C5.478,45.921,0.104,53.032,0.104,61c0,9.925,8.124,18,18.11,18c3.619,0,7.123-1.085,10.079-3.062V120c0,1.104,0.896,2,2,2h44.923
	c-2.081,2.957-3.223,6.499-3.223,10.2c0,9.814,8.034,17.8,17.91,17.8s17.91-7.985,17.91-17.8c0-3.698-1.145-7.241-3.229-10.2h44.479
	c1.104,0,2-0.896,2-2V71.6c0-0.83-0.513-1.574-1.288-1.869c-0.773-0.295-1.652-0.083-2.205,0.539
	c-2.68,3.006-6.523,4.73-10.547,4.73c-0.305,0-0.608-0.007-0.949-0.036c-7.38-0.483-13.161-6.617-13.161-13.964
	c0-2.805,0.831-5.511,2.404-7.826C127.958,49.308,132.334,47,137.024,47z M28.797,51.766c0.551,0.623,1.432,0.837,2.206,0.544
	c0.777-0.294,1.291-1.039,1.291-1.87V4h43.091c-2.424,3.117-3.79,6.982-3.79,11c0,9.925,8.124,18,18.109,18
	c9.986,0,18.11-8.075,18.11-18c0-4.017-1.369-7.881-3.798-11h43.048v42.038c-2.948-1.961-6.438-3.038-10.04-3.038
	c-5.323,0-10.327,2.322-13.755,6.294c-8.423-8.488-19.28-13.586-31.47-14.757c-1.887-0.243-3.947-0.356-6.485-0.356
	c-17.718,0-34.343,6.97-46.804,19.616c-2.344,2.344-4.725,4.632-5.824,4.632h-0.001c-0.885-0.001-2.572-1.696-4.709-3.841
	l-0.778-0.781c-2.416-2.45-5.049-4.691-7.832-6.744C22.982,47.358,26.371,49.027,28.797,51.766z M147.064,75.963V118h-16.765
	c7.403-11.409,10.263-25.33,7.973-39.038C141.42,78.757,144.459,77.695,147.064,75.963z M134.176,78.77
	c2.552,13.881-0.598,28.055-8.728,39.23h-25.433c-0.845,0-1.599,0.531-1.884,1.327c-0.284,0.796-0.037,1.685,0.616,2.22
	c3.221,2.639,5.067,6.521,5.067,10.653c0,7.609-6.24,13.8-13.91,13.8s-13.91-6.19-13.91-13.8c0-4.137,1.844-8.02,5.058-10.653
	c0.653-0.535,0.9-1.424,0.616-2.22c-0.285-0.796-1.039-1.327-1.884-1.327h-47.49V71.56c0-0.831-0.514-1.576-1.291-1.87
	c-0.773-0.293-1.655-0.079-2.206,0.544C26.114,73.263,22.258,75,18.215,75c-7.78,0-14.11-6.28-14.11-14
	c0-5.898,3.797-11.186,9.331-13.168c3.965,2.523,7.642,5.464,10.925,8.792l0.782,0.785c3.114,3.128,4.994,5.017,7.539,5.019
	c0.001,0,0.003,0,0.005,0c2.656,0,5.042-2.193,8.663-5.814C53.062,44.727,68.677,38.18,85.314,38.18
	c2.363,0,4.262,0.103,6.038,0.331c11.572,1.113,21.789,6.011,29.623,14.163c-1.346,2.56-2.061,5.4-2.061,8.326
	C118.914,69.906,125.512,77.42,134.176,78.77z"/>
</svg>
