<?xml version="1.0" encoding="UTF-8"?>
<svg enable-background="new -4.718 167.7 576.61 548.292" viewBox="-4.718 167.7 576.61 548.292" xmlns="http://www.w3.org/2000/svg">
 <defs>
  <linearGradient id="l" x1="455.21" x2="461.83" y1="789.76" y2="789.76" gradientUnits="userSpaceOnUse">
   <stop stop-color="#cdb16a" offset="0"/>
   <stop stop-color="#ad9d5f" offset=".0944"/>
   <stop stop-color="#b7a154" offset=".1416"/>
   <stop stop-color="#c28947" offset=".1652"/>
   <stop stop-color="#c9ac46" offset=".1888"/>
   <stop stop-color="#c0891f" offset=".1888"/>
   <stop stop-color="#ba883a" offset=".1888"/>
   <stop stop-color="#bda976" offset=".1888"/>
   <stop stop-color="#c5ad4a" offset=".7132"/>
   <stop stop-color="#cda955" offset=".7263"/>
   <stop stop-color="#d5ad43" offset=".7263"/>
   <stop stop-color="#d7a13c" offset=".7394"/>
   <stop stop-color="#b5955b" offset=".7525"/>
   <stop stop-color="#beb459" offset=".7656"/>
   <stop stop-color="#b8a46c" offset=".8173"/>
   <stop stop-color="#a39e35" offset=".869"/>
   <stop stop-color="#a8a056" offset="1"/>
  </linearGradient>
  <linearGradient id="k" x1="768.13" x2="779.9" y1="119.42" y2="113.92" gradientTransform="matrix(1.5188 .0028 .5171 -.4075 -703.19 688.55)" gradientUnits="userSpaceOnUse">
   <stop stop-color="#cdb16a" offset="0"/>
   <stop stop-color="#ad9d5f" offset=".0944"/>
   <stop stop-color="#b7a154" offset=".1416"/>
   <stop stop-color="#c28947" offset=".1652"/>
   <stop stop-color="#c9ac46" offset=".1888"/>
   <stop stop-color="#c0891f" offset=".1888"/>
   <stop stop-color="#ba883a" offset=".1888"/>
   <stop stop-color="#bda976" offset=".1888"/>
   <stop stop-color="#c5ad4a" offset=".7132"/>
   <stop stop-color="#cda955" offset=".7263"/>
   <stop stop-color="#d5ad43" offset=".7263"/>
   <stop stop-color="#d7a13c" offset=".7394"/>
   <stop stop-color="#b5955b" offset=".7525"/>
   <stop stop-color="#beb459" offset=".7656"/>
   <stop stop-color="#b8a46c" offset=".8173"/>
   <stop stop-color="#a39e35" offset=".869"/>
   <stop stop-color="#a8a056" offset="1"/>
  </linearGradient>
  <linearGradient id="j" x1="861.95" x2="864.96" y1="508.59" y2="528.35" gradientTransform="matrix(-3.3259e-5 1.5124 -.5202 .4082 1017.5 -806.72)" gradientUnits="userSpaceOnUse">
   <stop stop-color="#cdb16a" offset="0"/>
   <stop stop-color="#ad9d5f" offset=".0944"/>
   <stop stop-color="#b7a154" offset=".1416"/>
   <stop stop-color="#c28947" offset=".1652"/>
   <stop stop-color="#c9ac46" offset=".1888"/>
   <stop stop-color="#c0891f" offset=".1888"/>
   <stop stop-color="#ba883a" offset=".1888"/>
   <stop stop-color="#bda976" offset=".1888"/>
   <stop stop-color="#c5ad4a" offset=".7132"/>
   <stop stop-color="#cda955" offset=".7263"/>
   <stop stop-color="#d5ad43" offset=".7263"/>
   <stop stop-color="#d7a13c" offset=".7394"/>
   <stop stop-color="#b5955b" offset=".7525"/>
   <stop stop-color="#beb459" offset=".7656"/>
   <stop stop-color="#b8a46c" offset=".8173"/>
   <stop stop-color="#a39e35" offset=".869"/>
   <stop stop-color="#a8a056" offset="1"/>
  </linearGradient>
  <linearGradient id="a" x1="1345.8" x2="1352.3" y1="-403.68" y2="-404.12" gradientTransform="matrix(1.5188 .0028 .5171 -.4075 -1340.3 482.83)" gradientUnits="userSpaceOnUse">
   <stop stop-color="#cdb16a" offset="0"/>
   <stop stop-color="#ad9d5f" offset=".0944"/>
   <stop stop-color="#b7a154" offset=".1416"/>
   <stop stop-color="#c28947" offset=".1652"/>
   <stop stop-color="#c9ac46" offset=".1888"/>
   <stop stop-color="#c0891f" offset=".1888"/>
   <stop stop-color="#ba883a" offset=".1888"/>
   <stop stop-color="#bda976" offset=".1888"/>
   <stop stop-color="#c5ad4a" offset=".7132"/>
   <stop stop-color="#cda955" offset=".7263"/>
   <stop stop-color="#d5ad43" offset=".7263"/>
   <stop stop-color="#d7a13c" offset=".7394"/>
   <stop stop-color="#b5955b" offset=".7525"/>
   <stop stop-color="#beb459" offset=".7656"/>
   <stop stop-color="#b8a46c" offset=".8173"/>
   <stop stop-color="#a39e35" offset=".869"/>
   <stop stop-color="#a8a056" offset="1"/>
  </linearGradient>
  <linearGradient id="i" x1="743.25" x2="749.87" y1="731.18" y2="731.18" gradientUnits="userSpaceOnUse">
   <stop stop-color="#cdb16a" offset="0"/>
   <stop stop-color="#ad9d5f" offset=".0944"/>
   <stop stop-color="#b7a154" offset=".1416"/>
   <stop stop-color="#c28947" offset=".1652"/>
   <stop stop-color="#c9ac46" offset=".1888"/>
   <stop stop-color="#c0891f" offset=".1888"/>
   <stop stop-color="#ba883a" offset=".1888"/>
   <stop stop-color="#bda976" offset=".1888"/>
   <stop stop-color="#c5ad4a" offset=".7132"/>
   <stop stop-color="#cda955" offset=".7263"/>
   <stop stop-color="#d5ad43" offset=".7263"/>
   <stop stop-color="#d7a13c" offset=".7394"/>
   <stop stop-color="#b5955b" offset=".7525"/>
   <stop stop-color="#beb459" offset=".7656"/>
   <stop stop-color="#b8a46c" offset=".8173"/>
   <stop stop-color="#a39e35" offset=".869"/>
   <stop stop-color="#a8a056" offset="1"/>
  </linearGradient>
  <linearGradient id="h" x1="768.13" x2="779.9" y1="119.42" y2="113.92" gradientTransform="matrix(1.5188 .0028 .5171 -.4075 -415.14 629.97)" gradientUnits="userSpaceOnUse">
   <stop stop-color="#cdb16a" offset="0"/>
   <stop stop-color="#ad9d5f" offset=".0944"/>
   <stop stop-color="#b7a154" offset=".1416"/>
   <stop stop-color="#c28947" offset=".1652"/>
   <stop stop-color="#c9ac46" offset=".1888"/>
   <stop stop-color="#c0891f" offset=".1888"/>
   <stop stop-color="#ba883a" offset=".1888"/>
   <stop stop-color="#bda976" offset=".1888"/>
   <stop stop-color="#c5ad4a" offset=".7132"/>
   <stop stop-color="#cda955" offset=".7263"/>
   <stop stop-color="#d5ad43" offset=".7263"/>
   <stop stop-color="#d7a13c" offset=".7394"/>
   <stop stop-color="#b5955b" offset=".7525"/>
   <stop stop-color="#beb459" offset=".7656"/>
   <stop stop-color="#b8a46c" offset=".8173"/>
   <stop stop-color="#a39e35" offset=".869"/>
   <stop stop-color="#a8a056" offset="1"/>
  </linearGradient>
  <linearGradient id="g" x1="861.95" x2="864.96" y1="508.59" y2="528.35" gradientTransform="matrix(-3.3259e-5 1.5124 -.5202 .4082 1305.5 -865.3)" gradientUnits="userSpaceOnUse">
   <stop stop-color="#cdb16a" offset="0"/>
   <stop stop-color="#ad9d5f" offset=".0944"/>
   <stop stop-color="#b7a154" offset=".1416"/>
   <stop stop-color="#c28947" offset=".1652"/>
   <stop stop-color="#c9ac46" offset=".1888"/>
   <stop stop-color="#c0891f" offset=".1888"/>
   <stop stop-color="#ba883a" offset=".1888"/>
   <stop stop-color="#bda976" offset=".1888"/>
   <stop stop-color="#c5ad4a" offset=".7132"/>
   <stop stop-color="#cda955" offset=".7263"/>
   <stop stop-color="#d5ad43" offset=".7263"/>
   <stop stop-color="#d7a13c" offset=".7394"/>
   <stop stop-color="#b5955b" offset=".7525"/>
   <stop stop-color="#beb459" offset=".7656"/>
   <stop stop-color="#b8a46c" offset=".8173"/>
   <stop stop-color="#a39e35" offset=".869"/>
   <stop stop-color="#a8a056" offset="1"/>
  </linearGradient>
  <linearGradient id="f" x1="1345.8" x2="1352.3" y1="-403.68" y2="-404.12" gradientTransform="matrix(1.5188 .0028 .5171 -.4075 -1052.3 424.26)" gradientUnits="userSpaceOnUse">
   <stop stop-color="#cdb16a" offset="0"/>
   <stop stop-color="#ad9d5f" offset=".0944"/>
   <stop stop-color="#b7a154" offset=".1416"/>
   <stop stop-color="#c28947" offset=".1652"/>
   <stop stop-color="#c9ac46" offset=".1888"/>
   <stop stop-color="#c0891f" offset=".1888"/>
   <stop stop-color="#ba883a" offset=".1888"/>
   <stop stop-color="#bda976" offset=".1888"/>
   <stop stop-color="#c5ad4a" offset=".7132"/>
   <stop stop-color="#cda955" offset=".7263"/>
   <stop stop-color="#d5ad43" offset=".7263"/>
   <stop stop-color="#d7a13c" offset=".7394"/>
   <stop stop-color="#b5955b" offset=".7525"/>
   <stop stop-color="#beb459" offset=".7656"/>
   <stop stop-color="#b8a46c" offset=".8173"/>
   <stop stop-color="#a39e35" offset=".869"/>
   <stop stop-color="#a8a056" offset="1"/>
  </linearGradient>
  <linearGradient id="e" x1="527.42" x2="534.04" y1="516.28" y2="516.28" gradientUnits="userSpaceOnUse">
   <stop stop-color="#cdb16a" offset="0"/>
   <stop stop-color="#ad9d5f" offset=".0944"/>
   <stop stop-color="#b7a154" offset=".1416"/>
   <stop stop-color="#c28947" offset=".1652"/>
   <stop stop-color="#c9ac46" offset=".1888"/>
   <stop stop-color="#c0891f" offset=".1888"/>
   <stop stop-color="#ba883a" offset=".1888"/>
   <stop stop-color="#bda976" offset=".1888"/>
   <stop stop-color="#c5ad4a" offset=".7132"/>
   <stop stop-color="#cda955" offset=".7263"/>
   <stop stop-color="#d5ad43" offset=".7263"/>
   <stop stop-color="#d7a13c" offset=".7394"/>
   <stop stop-color="#b5955b" offset=".7525"/>
   <stop stop-color="#beb459" offset=".7656"/>
   <stop stop-color="#b8a46c" offset=".8173"/>
   <stop stop-color="#a39e35" offset=".869"/>
   <stop stop-color="#a8a056" offset="1"/>
  </linearGradient>
  <linearGradient id="d" x1="768.13" x2="779.9" y1="119.42" y2="113.92" gradientTransform="matrix(1.5188 .0028 .5171 -.4075 -630.98 415.08)" gradientUnits="userSpaceOnUse">
   <stop stop-color="#cdb16a" offset="0"/>
   <stop stop-color="#ad9d5f" offset=".0944"/>
   <stop stop-color="#b7a154" offset=".1416"/>
   <stop stop-color="#c28947" offset=".1652"/>
   <stop stop-color="#c9ac46" offset=".1888"/>
   <stop stop-color="#c0891f" offset=".1888"/>
   <stop stop-color="#ba883a" offset=".1888"/>
   <stop stop-color="#bda976" offset=".1888"/>
   <stop stop-color="#c5ad4a" offset=".7132"/>
   <stop stop-color="#cda955" offset=".7263"/>
   <stop stop-color="#d5ad43" offset=".7263"/>
   <stop stop-color="#d7a13c" offset=".7394"/>
   <stop stop-color="#b5955b" offset=".7525"/>
   <stop stop-color="#beb459" offset=".7656"/>
   <stop stop-color="#b8a46c" offset=".8173"/>
   <stop stop-color="#a39e35" offset=".869"/>
   <stop stop-color="#a8a056" offset="1"/>
  </linearGradient>
  <linearGradient id="c" x1="861.95" x2="864.96" y1="508.59" y2="528.35" gradientTransform="matrix(-3.3259e-5 1.5124 -.5202 .4082 1089.7 -1080.2)" gradientUnits="userSpaceOnUse">
   <stop stop-color="#cdb16a" offset="0"/>
   <stop stop-color="#ad9d5f" offset=".0944"/>
   <stop stop-color="#b7a154" offset=".1416"/>
   <stop stop-color="#c28947" offset=".1652"/>
   <stop stop-color="#c9ac46" offset=".1888"/>
   <stop stop-color="#c0891f" offset=".1888"/>
   <stop stop-color="#ba883a" offset=".1888"/>
   <stop stop-color="#bda976" offset=".1888"/>
   <stop stop-color="#c5ad4a" offset=".7132"/>
   <stop stop-color="#cda955" offset=".7263"/>
   <stop stop-color="#d5ad43" offset=".7263"/>
   <stop stop-color="#d7a13c" offset=".7394"/>
   <stop stop-color="#b5955b" offset=".7525"/>
   <stop stop-color="#beb459" offset=".7656"/>
   <stop stop-color="#b8a46c" offset=".8173"/>
   <stop stop-color="#a39e35" offset=".869"/>
   <stop stop-color="#a8a056" offset="1"/>
  </linearGradient>
  <linearGradient id="b" x1="1345.8" x2="1352.3" y1="-403.68" y2="-404.12" gradientTransform="matrix(1.5188 .0028 .5171 -.4075 -1268.1 209.36)" gradientUnits="userSpaceOnUse">
   <stop stop-color="#cdb16a" offset="0"/>
   <stop stop-color="#ad9d5f" offset=".0944"/>
   <stop stop-color="#b7a154" offset=".1416"/>
   <stop stop-color="#c28947" offset=".1652"/>
   <stop stop-color="#c9ac46" offset=".1888"/>
   <stop stop-color="#c0891f" offset=".1888"/>
   <stop stop-color="#ba883a" offset=".1888"/>
   <stop stop-color="#bda976" offset=".1888"/>
   <stop stop-color="#c5ad4a" offset=".7132"/>
   <stop stop-color="#cda955" offset=".7263"/>
   <stop stop-color="#d5ad43" offset=".7263"/>
   <stop stop-color="#d7a13c" offset=".7394"/>
   <stop stop-color="#b5955b" offset=".7525"/>
   <stop stop-color="#beb459" offset=".7656"/>
   <stop stop-color="#b8a46c" offset=".8173"/>
   <stop stop-color="#a39e35" offset=".869"/>
   <stop stop-color="#a8a056" offset="1"/>
  </linearGradient>
 </defs>
 <g transform="translate(-459.9 -181.94)">
  <path d="m455.21 681.93h215.18v215.66h-215.18z" fill="url(#l)"/>
  <path d="m528.47 624.19 215.23 0.396-73.286 57.756-215.23-0.396z" fill="url(#k)"/>
  <path d="m669.75 682.56-5e-3 215.13 73.994-58.059 5e-3 -215.13z" fill="url(#j)"/>
  <path d="m481.36 692.05c-8.612 0-15.562 6.918-15.562 15.531v161.06c0 8.611 6.95 15.531 15.562 15.531h162.91c8.612 0 15.562-6.92 15.562-15.531v-161.06c0-8.613-6.95-15.531-15.562-15.531h-162.91zm15.531 17.094h129.97c8.612 0 15.562 6.918 15.562 15.531v126.25c0 8.611-6.95 15.531-15.562 15.531h-129.97c-8.612 0-15.531-6.92-15.531-15.531v-126.25c0-8.613 6.919-15.531 15.531-15.531z" fill="#009815"/>
  <path d="m528.47 624.19 215.23 0.396-73.286 57.756-215.23-0.396z" fill="url(#a)"/>
  <path d="m546.3 630.18c-8.499 0-17.315 1.635-19.751 3.668l-45.562 38.039c-2.436 2.033 2.465 3.668 10.964 3.668h160.76c8.499 0 17.315-1.635 19.751-3.668l45.562-38.039c2.437-2.033-2.465-3.668-10.964-3.668h-160.76zm10.491 4.037h128.26c8.499 0 13.4 1.635 10.964 3.668l-35.714 29.817c-2.437 2.035-11.252 3.668-19.751 3.668h-128.26c-8.499 0-13.369-1.633-10.933-3.668l35.714-29.816c2.437-2.034 11.222-3.669 19.721-3.669z" fill="#009815"/>
  <path d="m679.063,701.188c-.018-8.676 2.062-17.318 4.671-19.361l48.776-38.215c2.607-2.043 4.718,3.316 4.736,11.992l.342,164.09c.019,8.676-2.062,17.316-4.671,19.361l-48.776,38.213c-2.608,2.045-4.718-3.314-4.736-11.99l-.342-164.09zm5.209,11.588 .272,130.914c.019,8.674 2.129,14.033 4.736,11.99l38.234-29.955c2.608-2.043 4.688-10.686 4.671-19.359l-.273-130.914c-.018-8.676-2.128-14.002-4.736-11.959l-38.233,29.955c-2.608,2.043-4.689,10.654-4.671,19.328z" fill="#009815"/>
  <g enable-background="new">
   <path d="m532.901,803.771c-1.481,3.494-10.554,26.288-10.554,31.612 0,3.661 1.667,7.654 7.221,7.654h6.48c1.852,0 2.037.665 2.037,1.331v3.66c0,1.331-.185,1.83-1.667,1.83-2.407,0-9.998-.499-25.18-.499-13.516,0-17.589.499-20.182.499-1.111,0-1.296-.998-1.296-2.163v-3.161c0-.998.185-1.497 1.296-1.497h4.814c4.444,0 8.887-2.33 12.59-7.321 2.592-3.494 15.738-32.444 21.848-47.086 1.481-3.327 16.479-39.1 18.145-43.592 .556-1.664 1.481-3.827.185-5.657-.555-.665-1.296-1.497-1.296-2.163 0-.499.371-1.164 1.852-1.497 5.925-1.165 17.959-5.49 20.737-8.319 .926-.832 1.481-1.497 2.407-1.497 1.111,0 1.481.998 2.037,2.828 3.518,10.482 17.959,47.752 21.477,58.4 4.259,12.978 16.293,43.925 18.885,48.417 3.148,5.49 7.962,7.487 10.739,7.487h6.295c1.111,0 1.296.665 1.296,1.497v3.161c0,.998-.185,2.163-1.667,2.163-3.518,0-7.406-.499-31.105-.499-15.368,0-21.848.499-25.551.499-1.852,0-2.037-.998-2.037-2.163v-3.161c0-.832.185-1.497 1.111-1.497h5.184c4.999,0 6.666-1.664 5.555-5.99-1.667-5.989-8.887-27.286-11.109-33.276h-40.547zm38.882-6.655c-1.667-4.991-12.59-39.932-13.886-44.091-.741-2.496-1.111-3.66-2.037-3.66-1.111,0-1.667.665-2.222,2.163-.926,2.162-16.849,41.429-18.33,45.588h36.475z" fill="#009815"/>
  </g>
  <g enable-background="new">
   <path d="m565.204,654.556c-2.412.754-17.562,5.67-18.981,6.818-.976.789-.374,1.65 5.181,1.65h6.48c1.852,0 1.86.144 1.683.287l-.976.789c-.354.287-.674.395-2.154.395-2.408,0-9.866-.107-25.048-.107-13.516,0-17.724.107-20.315.107-1.109,0-1.028-.215-.718-.466l.843-.682c.266-.216.584-.323 1.693-.323h4.814c4.443,0 9.508-.503 14.542-1.579 3.522-.753 24.388-6.997 34.4-10.154 2.369-.718 26.902-8.433 29.767-9.401 1-.359 2.502-.825 1.693-1.22-.378-.145-.896-.323-.719-.467 .133-.107.68-.251 2.251-.323 6.234-.251 19.423-1.184 22.954-1.794 1.147-.179 1.879-.323 2.805-.323 1.111,0 1.217.216 1.283.61 .724,2.261 5.229,10.298 5.908,12.595 .8,2.799 4.582,9.474 5.979,10.441 1.683,1.185 5.965,1.615 8.742,1.615h6.295c1.111,0 1.118.144.896.323l-.843.682c-.267.215-.761.466-2.243.466-3.518,0-7.272-.107-30.972-.107-15.367,0-21.981.107-25.685.107-1.85,0-1.769-.215-1.458-.466l.843-.682c.222-.18.584-.323 1.51-.323h5.184c4.998,0 7.108-.358 7.151-1.292-.069-1.291-1.614-5.885-2.237-7.177h-40.548zm40.656-1.435c-.335-1.077-1.943-8.612-2.132-9.509-.074-.539-.135-.79-1.061-.79-1.111,0-1.844.144-2.798.467-1.502.466-27.895,8.935-30.484,9.832h36.475z" fill="#009815"/>
  </g>
  <g enable-background="new">
   <path d="m699.091,783.422c-.548,3.896-3.932,29.162-4.052,34.486-.082,3.66.355,7.199 2.114,5.688l2.051-1.764c.586-.504.63.112.615.777l-.083,3.661c-.029,1.331-.1,1.88-.568,2.282-.762.655-3.153,2.223-7.959,6.354-4.277,3.678-5.579,5.285-6.399,5.99-.352.303-.388-.645-.361-1.81l.071-3.161c.021-.999.092-1.549.443-1.851l1.523-1.31c1.407-1.209 2.866-4.748 4.15-10.748 .898-4.198 5.71-36.728 7.973-53.031 .544-3.73 6.095-43.585 6.724-48.53 .213-1.815.555-4.229.186-5.708-.161-.515-.377-1.145-.361-1.809 .011-.5.143-1.267.619-2.002 1.901-2.777 5.808-10.379 6.751-13.963 .312-1.084.503-1.9.795-2.152 .353-.303.446.596.582,2.274 .878,9.524 4.612,42.864 5.485,52.558 1.057,11.818 4.172,39.492 4.891,43.278 .873,4.636 2.353,5.321 3.231,4.565l1.992-1.713c.352-.303.396.312.378,1.145l-.071,3.162c-.022.998-.108,2.213-.577,2.615-1.113.957-2.332,1.518-9.834,7.966-4.864,4.183-6.928,6.443-8.1,7.451-.586.504-.622-.442-.596-1.608l.071-3.16c.019-.832.092-1.549.384-1.801l1.642-1.41c1.582-1.361 2.147-3.478 1.894-7.502-.394-5.535-2.2-24.868-2.769-30.254l-12.835,11.035zm12.457-17.234c-.416-4.539-3.09-36.508-3.406-40.314-.178-2.295-.269-3.359-.562-3.107-.353.303-.542,1.119-.753,2.77-.341,2.414-6.264,46.014-6.825,50.577l11.546-9.926z" fill="#009815"/>
  </g>
  <path d="m669.21 682.8-5e-3 215.13 73.994-58.058 5e-3 -215.13z" opacity=".3898"/>
  <path d="m529.62 622.71 215.23 0.397-73.287 57.756-215.23-0.397z" opacity=".1525"/>
  <path d="m743.25 623.35h215.18v215.66h-215.18z" fill="url(#i)"/>
  <path d="m816.508,565.614 215.23.396-73.286,57.756-215.23-.396z" fill="url(#h)"/>
  <path d="m957.8 623.98-5e-3 215.13 73.994-58.059 5e-3 -215.13z" fill="url(#g)"/>
  <path d="m769.41 633.47c-8.612 0-15.562 6.92-15.562 15.531v161.06c0 8.613 6.95 15.531 15.562 15.531h162.91c8.612 0 15.562-6.918 15.562-15.531v-161.06c0-8.611-6.95-15.531-15.562-15.531h-162.91zm15.531 17.094h129.97c8.612 0 15.562 6.92 15.562 15.531v126.25c0 8.613-6.95 15.531-15.562 15.531h-129.97c-8.612 0-15.531-6.918-15.531-15.531v-126.25c0-8.611 6.919-15.531 15.531-15.531z" fill="#ca1800"/>
  <path d="m816.508,565.614 215.23.396-73.286,57.756-215.23-.396z" fill="url(#f)"/>
  <path d="m834.34 571.6c-8.499 0-17.315 1.635-19.751 3.668l-45.562 38.039c-2.437 2.035 2.465 3.668 10.964 3.668h160.76c8.499 0 17.315-1.633 19.751-3.668l45.562-38.039c2.437-2.033-2.465-3.668-10.964-3.668h-160.76zm10.491 4.037h128.26c8.499 0 13.4 1.635 10.964 3.668l-35.714 29.818c-2.437 2.033-11.253 3.668-19.751 3.668h-128.26c-8.498 0-13.369-1.635-10.933-3.668l35.714-29.818c2.437-2.033 11.222-3.668 19.721-3.668z" fill="#ca1800"/>
  <path d="m967.104,642.608c-.018-8.674 2.062-17.316 4.671-19.359l48.776-38.215c2.608-2.043 4.719,3.316 4.736,11.99l.343,164.092c.018,8.674-2.063,17.316-4.671,19.359l-48.776,38.215c-2.608,2.043-4.719-3.316-4.736-11.99l-.343-164.092zm5.209,11.59 .273,130.912c.019,8.676 2.128,14.035 4.736,11.99l38.234-29.953c2.607-2.043 4.688-10.686 4.671-19.361l-.273-130.914c-.019-8.674-2.128-14.002-4.736-11.959l-38.234,29.955c-2.607,2.043-4.688,10.654-4.671,19.33z" fill="#ca1800"/>
  <g enable-background="new">
   <path d="m807.797,718.404c0-6.156-.371-26.455-.556-29.117-.556-9.649-3.518-9.982-9.628-9.982h-5.925c-1.296,0-1.296-.167-1.296-1.498v-3.826c0-.999.185-1.498 1.481-1.498 2.406,0 11.294.5 28.883.5 5.925,0 17.034-.5 29.624-.5 13.331,0 25.181,1.165 31.661,4.493 10.554,5.157 14.256,12.811 14.256,22.627 0,10.981-7.405,21.63-27.031,27.453v.333c22.958,5.324 34.993,15.308 34.993,32.943 0,8.985-5.555,21.297-14.441,25.29-7.592,3.494-20.552,6.156-43.511,6.156-1.666,0-6.48-.332-11.664-.499-5.369-.333-11.109-.499-14.627-.499-9.258,0-15.367.166-19.441.166-3.888.167-5.925.333-7.221.333-1.852,0-2.036-.499-2.036-1.83v-3.66c0-.999.185-1.331 1.852-1.331h6.479c5.555,0 6.48-1.997 7.222-6.988 .555-3.827.926-25.789.926-39.433v-19.633zm27.031,6.821c7.592.666 19.441-.332 24.811-4.658 6.109-4.825 8.887-12.312 8.887-19.633 0-6.323-2.222-12.979-7.591-16.805-6.295-4.492-15.367-5.99-17.404-5.99-3.888,0-7.961.166-8.146,2.828-.37,3.328-.556,17.804-.556,31.613v12.645zm0,38.601c0,15.807 4.073,22.296 13.887,22.296 13.146,0 25.551-5.824 25.551-26.621 0-13.478-6.666-22.296-16.664-25.79-9.257-3.161-18.145-2.828-22.773-2.828v32.943z" fill="#ca1800"/>
  </g>
  <g enable-background="new">
   <path d="m847.241,590.2c1.641-1.327 6.681-5.705 7.204-6.279 2.019-2.081-.855-2.153-6.965-2.153h-5.926c-1.295,0-1.251-.035-.896-.322l1.021-.825c.267-.216.585-.323 1.88-.323 2.408,0 11.162.107 28.752.107 5.924,0 17.166-.107 29.756-.107 13.33,0 24.869.251 30.463.969 9.179,1.112 10.842,2.763 8.225,4.88-2.927,2.369-13.172,4.665-34.351,5.921l-.089.071c21.539,1.148 30.913,3.302 26.211,7.105-2.396,1.938-11.232,4.593-21.184,5.454-8.523.753-22.194,1.328-45.151,1.328-1.668,0-6.392-.072-11.532-.108-5.28-.072-10.975-.107-14.494-.107-9.256,0-15.411.035-19.483.035-3.934.036-6.015.072-7.31.072-1.852,0-1.904-.107-1.55-.395l.977-.79c.266-.215.54-.286 2.206-.286h6.48c5.555,0 7.013-.431 9.084-1.508 1.574-.825 7.801-5.562 11.438-8.504l5.234-4.235zm14.921,9.795c-4.214,3.409-1.869,4.809 7.943,4.809 13.145,0 27.104-1.256 32.647-5.741 3.593-2.906-.722-4.809-9.788-5.562-8.415-.682-17.391-.609-22.02-.609l-8.782,7.103zm10.291-8.324c7.415.143 19.53-.072 26.053-1.005 7.396-1.04 12.169-2.655 14.12-4.234 1.686-1.363 1.239-2.799-3.11-3.624-5.099-.969-13.771-1.292-15.807-1.292-3.889,0-8.008.036-8.901.61-1.258.718-5.302,3.84-8.983,6.817l-3.372,2.728z" fill="#ca1800"/>
  </g>
  <g enable-background="new">
   <path d="m983.572,701.631c.138-6.154.477-26.354.478-28.965 .042-9.5-.889-9.025-2.822-7.363l-1.876,1.612c-.41.353-.406.187-.376-1.145l.086-3.827c.022-.999.092-1.549.502-1.9 .762-.656 3.564-2.575 9.132-7.361 1.876-1.612 5.402-5.134 9.389-8.561 4.22-3.627 7.943-5.687 9.921-4.123 3.225,2.287 4.225,8.934 4.004,18.75-.247,10.981-2.831,23.646-9.173,34.809l-.008.334c7.147-.924 10.733,5.785 10.337,23.422-.202,8.984-2.237,22.809-5.14,29.221-2.481,5.56-6.644,11.75-13.911,17.996-.527.454-2.044,1.431-3.681,2.674-1.692,1.129-3.507,2.525-4.618,3.482-2.932,2.519-4.869,4.348-6.158,5.455-1.234,1.226-1.884,1.945-2.294,2.299-.586.504-.634.055-.604-1.276l.082-3.661c.022-.998.089-1.381.616-1.834l2.052-1.764c1.758-1.512 2.096-3.76 2.443-8.954 .261-3.978.871-26.04 1.178-39.685l.441-19.635zm7.536,38.07c-.355,15.807.789,21.187 3.896,18.517 4.16-3.577 8.218-12.777 8.685-33.574 .303-13.477-1.608-20.482-4.695-21.256-2.859-.643-5.681,2.109-7.146,3.368l-.74,32.945zm.868-38.602c2.388-1.4 6.161-5.623 7.958-11.41 2.042-6.487 3.09-14.731 3.254-22.052 .143-6.322-.411-12.375-2.025-14.74-1.892-2.779-4.729-1.808-5.374-1.254-1.23,1.059-2.523,2.334-2.643,5.047-.192,3.428-.576,17.954-.886,31.764l-.284,12.645z" fill="#ca1800"/>
  </g>
  <path d="m957.31 623.61-5e-3 215.13 73.994-58.059 5e-3 -215.13z" opacity=".3898"/>
  <path d="m815.44 565.28 215.23 0.396-73.286 57.754-215.23-0.396z" opacity=".1525"/>
  <path d="m527.42 408.46h215.18v215.66h-215.18z" fill="url(#e)"/>
  <path d="m600.67 350.72 215.23 0.396-73.286 57.756-215.23-0.397z" fill="url(#d)"/>
  <path d="m741.96 409.09-5e-3 215.13 73.994-58.059 5e-3 -215.13z" fill="url(#c)"/>
  <path d="m553.57 418.58c-8.612 0-15.562 6.919-15.562 15.531v161.06c0 8.611 6.95 15.531 15.562 15.531h162.91c8.612 0 15.562-6.92 15.562-15.531v-161.06c0-8.612-6.95-15.531-15.562-15.531h-162.91zm15.531 17.094h129.97c8.612 0 15.562 6.919 15.562 15.531v126.25c0 8.611-6.95 15.531-15.562 15.531h-129.97c-8.612 0-15.531-6.92-15.531-15.531v-126.25c0-8.612 6.919-15.531 15.531-15.531z" fill="#2448a3"/>
  <path d="m600.67 350.72 215.23 0.396-73.286 57.756-215.23-0.397z" fill="url(#b)"/>
  <path d="m618.51 356.71c-8.499 0-17.315 1.634-19.751 3.668l-45.562 38.039c-2.436 2.034 2.465 3.668 10.964 3.668h160.76c8.499 0 17.315-1.634 19.752-3.668l45.562-38.039c2.437-2.034-2.465-3.668-10.964-3.668h-160.76zm10.491 4.038h128.26c8.499 0 13.4 1.634 10.964 3.668l-35.714 29.817c-2.437 2.034-11.252 3.668-19.751 3.668h-128.26c-8.499 0-13.369-1.634-10.933-3.668l35.714-29.817c2.437-2.034 11.222-3.668 19.721-3.668z" fill="#2448a3"/>
  <path d="m751.27,427.717c-.018-8.675 2.062-17.317 4.671-19.361l48.777-38.214c2.607-2.043 4.718,3.316 4.735,11.991l.343,164.09c.019,8.676-2.062,17.318-4.671,19.361l-48.776,38.213c-2.608,2.045-4.719-3.314-4.736-11.99l-.343-164.09zm5.21,11.589 .272,130.914c.019,8.674 2.129,14.033 4.736,11.99l38.234-29.955c2.608-2.043 4.688-10.686 4.671-19.36l-.273-130.914c-.018-8.675-2.128-14.002-4.736-11.959l-38.233,29.955c-2.608,2.042-4.689,10.654-4.671,19.329z" fill="#2448a3"/>
  <g enable-background="new">
   <path d="m593.629,563.078c-13.701-10.981-20.181-30.115-20.181-44.424 0-17.137 6.11-32.611 19.07-45.089 10.554-10.149 25.921-17.969 48.879-17.969 16.849,0 30.735,3.827 37.215,6.988 2.592,1.165 3.518.999 3.888-.167l1.481-4.159c.37-.999.74-.999 3.518-.999s3.147.333 3.147,2.662c0,3.162 3.333,31.446 4.259,36.438 .185,1.165 0,1.996-.926,2.163l-4.073.999c-.926.333-1.667-.333-2.222-1.83-2.037-6.655-7.036-15.141-14.812-22.295-7.961-6.988-17.774-12.479-31.846-12.479-27.032,0-38.511,22.128-38.326,46.753 0,10.481 3.333,30.946 16.479,43.426 12.035,11.147 22.588,12.479 28.883,12.479 21.107,0 36.845-8.652 43.696-17.803 .926-1.331 1.852-1.997 2.777-1.331l3.147,2.495c.555.333.74.999 0,1.997-10.739,13.976-28.699,27.453-54.805,27.453-24.623-.001-37.584-5.991-49.248-15.308z" fill="#2448a3"/>
  </g>
  <g enable-background="new">
   <path d="m618.192,388.156c-10.771-2.369-12.15-6.495-8.336-9.581 4.569-3.696 14.804-7.033 31.091-9.724 13.258-2.189 30.71-3.876 53.668-3.876 16.85,0 29.715.826 35.352,1.507 2.281.251 3.252.215 3.934-.036l2.59-.897c.637-.215 1.008-.215 3.785-.215 2.775,0 3.059.072 2.438.574-.844.682-5.051,6.782-5.455,7.858-.125.251-.533.431-1.504.467l-4.338.215c-1.014.072-1.578-.071-1.734-.395-.262-1.436-3-3.266-8.867-4.809-6.1-1.507-14.449-2.691-28.521-2.691-27.032,0-44.409,4.772-50.788,10.083-2.795,2.261-4.919,6.674 4.899,9.365 9.063,2.404 19.263,2.691 25.558,2.691 21.108,0 39.151-1.866 48.442-3.839 1.281-.288 2.383-.431 3.133-.288l2.48.539c.467.072.477.215-.533.431-14.463,3.014-36.016,5.92-62.123,5.92-24.626.001-35.989-1.291-45.171-3.299z" fill="#2448a3"/>
  </g>
  <g enable-background="new">
   <path d="m766.511,545.493c-4.091-7.254-5.713-24.625-5.391-38.933 .385-17.139 2.667-34.275 7.05-50.28 3.568-13.022 8.608-25.023 15.876-31.271 5.333-4.584 9.643-4.536 11.623-3.137 .794.459 1.092.04 1.233-1.225l.562-4.562c.14-1.1.258-1.201 1.137-1.957s.988-.523.937,1.806c-.071,3.161.348,30.54.529,35.28 .033,1.114-.045,1.996-.342,2.415l-1.312,2.106c-.301.585-.521.122-.662-1.226-.496-6.101-1.887-13.227-4.188-18.266-2.363-4.822-5.347-7.641-9.8-3.813-8.558,7.356-12.688,32.61-13.184,57.184-.235,10.483.36,30.041 4.241,38.942 3.56,7.873 6.869,6.333 8.862,4.62 6.682-5.744 11.857-18.678 14.231-29.693 .322-1.584.631-2.5.908-2.087l.941,1.639c.168.181.212.797-.045,1.997-3.714,16.898-9.701,35.262-17.965,42.367-7.791,6.701-11.759,4.237-15.241-1.906z" fill="#2448a3"/>
  </g>
  <path d="m741.14 409.08-5e-3 215.13 73.994-58.058 4e-3 -215.13z" opacity=".3898"/>
  <path d="m601.98 349.64 215.23 0.397-73.286 57.755-215.23-0.397z" opacity=".1525"/>
 </g>
</svg>
