<?xml version="1.0" encoding="UTF-8"?>
<svg version="1.1" viewBox="0 0 999.23 812.45" xmlns="http://www.w3.org/2000/svg" xmlns:xlink="http://www.w3.org/1999/xlink">
 <defs>
  <linearGradient id="w">
   <stop stop-color="#fccf83" offset="0"/>
   <stop stop-color="#fddaa2" offset="1"/>
  </linearGradient>
  <linearGradient id="v">
   <stop stop-color="#d5e797" offset="0"/>
   <stop stop-color="#e1eeb4" offset=".21281"/>
   <stop stop-color="#e1eeb4" offset=".72753"/>
   <stop stop-color="#d5e797" offset="1"/>
  </linearGradient>
  <linearGradient id="x">
   <stop stop-color="#06e005" offset="0"/>
   <stop stop-color="#0b5f17" offset="1"/>
  </linearGradient>
  <linearGradient id="u">
   <stop stop-color="#fec670" offset="0"/>
   <stop stop-color="#fed9a2" offset=".33296"/>
   <stop stop-color="#fddaa2" offset=".48557"/>
   <stop stop-color="#fed9a2" offset=".65725"/>
   <stop stop-color="#fac768" offset="1"/>
  </linearGradient>
  <linearGradient id="ak" x1="824.51" x2="907.18" y1="489.09" y2="490.91" gradientUnits="userSpaceOnUse">
   <stop stop-color="#fbcd7b" offset="0"/>
   <stop stop-color="#ecb869" offset="1"/>
  </linearGradient>
  <linearGradient id="al" x1="834.95" x2="765.35" y1="493.95" y2="496.64" gradientUnits="userSpaceOnUse">
   <stop stop-color="#fecc7f" offset="0"/>
   <stop stop-color="#ecb869" offset="1"/>
  </linearGradient>
  <linearGradient id="am" x1="199.72" x2="919.71" y1="548.21" y2="546.3" gradientUnits="userSpaceOnUse" xlink:href="#u"/>
  <linearGradient id="an" x1="224.89" x2="884.87" y1="576.86" y2="536.75" gradientUnits="userSpaceOnUse" xlink:href="#u"/>
  <linearGradient id="y" x1="-667.49" x2="-692.2" y1="136.34" y2="-31.402" gradientTransform="translate(516.18 73.763)" gradientUnits="userSpaceOnUse">
   <stop offset="0"/>
   <stop stop-color="#4c1b0d" offset="1"/>
  </linearGradient>
  <linearGradient id="z" x1="-2849.4" x2="-2861.6" y1="1030" y2="923.34" gradientTransform="translate(2735.9 111.24)" gradientUnits="userSpaceOnUse">
   <stop stop-color="#2b602b" offset="0"/>
   <stop stop-color="#214921" offset="1"/>
  </linearGradient>
  <linearGradient id="aa" x1="-331.51" x2="44.955" y1="841.89" y2="848.25" gradientUnits="userSpaceOnUse" xlink:href="#v"/>
  <linearGradient id="ab" x1="114.61" x2="242.58" y1="681.35" y2="555.28" gradientUnits="userSpaceOnUse" xlink:href="#w"/>
  <linearGradient id="ac" x1="-404.94" x2="-528.16" y1="667.39" y2="552.78" gradientUnits="userSpaceOnUse" xlink:href="#w"/>
  <linearGradient id="ad" x1="-581.68" x2="-564.07" y1="99.359" y2="198.64" gradientTransform="translate(2027.3 57.77)" gradientUnits="userSpaceOnUse" xlink:href="#x"/>
  <linearGradient id="ae" x1="-1114.2" x2="-1123.8" y1="168.77" y2="268.1" gradientTransform="translate(2027.3 57.77)" gradientUnits="userSpaceOnUse" xlink:href="#x"/>
  <linearGradient id="af" x1="-1254.3" x2="-355.86" y1="164.82" y2="98.019" gradientTransform="translate(2027.3 57.77)" gradientUnits="userSpaceOnUse">
   <stop stop-color="#0a0711" offset="0"/>
   <stop stop-color="#4c1b0d" offset=".35477"/>
   <stop stop-color="#4c1b0d" offset=".68555"/>
   <stop stop-color="#0a0711" offset="1"/>
  </linearGradient>
  <linearGradient id="ag" x1="1260.8" x2="1258" y1="967.15" y2="1142.9" gradientUnits="userSpaceOnUse">
   <stop stop-color="#393939" offset="0"/>
   <stop stop-color="#393939" stop-opacity="0" offset="1"/>
  </linearGradient>
  <linearGradient id="ah" x1="1254.3" x2="1251.2" y1="960.36" y2="1125.6" gradientUnits="userSpaceOnUse">
   <stop stop-color="#121212" offset="0"/>
   <stop stop-color="#1c1b23" offset="1"/>
  </linearGradient>
  <linearGradient id="ai" x1="973.77" x2="1533.4" y1="807.25" y2="786.24" gradientUnits="userSpaceOnUse" xlink:href="#v"/>
  <linearGradient id="aj" x1="1238.7" x2="1255.9" y1="850.67" y2="849.72" gradientUnits="userSpaceOnUse">
   <stop stop-color="#1b5f1b" offset="0"/>
   <stop stop-color="#248024" offset=".43166"/>
   <stop stop-color="#1b5f1b" offset="1"/>
  </linearGradient>
 </defs>
 <g transform="matrix(.591 0 0 .591 354.46 2.2577)">
  <path d="m-75.206 1025.4-140.47 8.0937s-11.471 14.898-58.406 117.72l-11.25-7.0625-63.048 149.47c-55.143 87.189 143.64 96.818 127.98 10.554l-15.897-129.21-7.2812-4.5938 22.5-51.125 72.25-64.812 86.438 35.125 10.781 89.875-23.375 1.625s13.463 56.625-15.522 122.28c-49.041 86.664 159.39 95.915 120.52-7.5283l-10.25-121.34-13.062 0.9062 5.875-91.906z" fill="#333"/>
  <path d="m-414.51 716.52-150.9-82.611c-90.752-49.684 15.91-217.17 115.56-102.19l99.324 114.61z" fill="url(#ac)"/>
  <path d="m54.093 659.15 107.76-134.1c64.808-80.649 211.03 53.694 80.375 131.67l-130.23 77.721z" fill="url(#ab)"/>
  <path d="m-348.38 1293.6 127.98 10.554 19.77-169.29 45.365-71.151 63.033 28.651-6.5215 57.071 8.2479 153.88 120.52-7.5245 4.6114-182.14-226.18-95.776-134.18 83.566c-8.8203 63.931-17.424 127.79-22.636 192.16z" fill="#fddaa2"/>
  <path d="m-314.76 970.17c-6.9982 35.775 5.3396 8.2679-26.502 125.35-2.3039 8.4713-8.4728 38.928 6.4465 46.558 9.6338 4.9269 20.049 7.3567 30.561 8.5954l101.95 6.6853c12.254 0.8036 20.076-15.424 28.89-25.786l24.831-28.651c3.1305-3.6121 8.1039-8.452 10.506-0.955l17.668 55.154c1.426 4.4516 12.065 7.2163 18.146 6.9241 154-7.4005 138.08-8.6543 154.24-14.326 6.6431-2.3309 8.3771-11.108 7.4136-15.597-9.9905-46.543-20.036-93.08-25.56-140.08l-334.27-52.5z" fill="url(#z)"/>
  <path d="m-330.94 765.23c-7.5725 55.341-33.524 108.27-50.617 162.36-5.4308 17.185-1.0598 31.354 21.966 42.022 175.95 81.522 338.43 57.881 436.45 32.472 5.7968-1.5028 7.1772-7.8703 5.7303-14.326l-49.66-221.56c41.086-13.13 76.49-27.68 112.7-42.03-49.461-18.71-75.442-52.09-94.554-89.77l-404.94 2.8651c-21.536 33.22-54.362 55.15-89.774 74.493 25.178 26.836 74.852 35.857 112.7 53.482z" fill="url(#aa)"/>
  <path d="m-73.724 848.22c-8.7992-16.144-14.147-33.972-8.1038-49.974 3.3163-8.7813 11.07-12.397 17.221-10.805 11.305 2.9257 21.56 0.96366 32.078 0.33766 10.157-0.60457 18.811 5.187 16.545 22.961-1.9547 15.333-9.1325 27.397-17.221 38.155-18.394 24.467-31.189 16.442-40.519-0.67532z" fill="#e1ebb9" stroke="#4e4e4e" stroke-linecap="round" stroke-linejoin="round" stroke-width="5.5"/>
  <path d="m-51.439 797.23h1.3506v52.337h-1.3506z" fill="#4e4e4e" stroke="#4e4e4e" stroke-linecap="round" stroke-linejoin="round" stroke-width="4.8"/>
  <path d="m-40.296 823.31c0 6.8533-5.0266 12.409-11.227 12.409-6.2006 0-11.227-5.5557-11.227-12.409s5.0265-12.409 11.227-12.409c6.2006 0 11.227 5.5557 11.227 12.409z" fill="#1b5f1b" stroke="#4e4e4e" stroke-linecap="round" stroke-linejoin="round" stroke-width="5.5"/>
  <path transform="translate(-681.04 -86.539)" d="m904.43 490.91c0 40.614-32.924 73.538-73.538 73.538s-73.538-32.924-73.538-73.538 32.924-73.538 73.538-73.538 73.538 32.924 73.538 73.538z" fill="url(#ak)"/>
  <path transform="translate(-1282.7 -44.517)" d="m904.43 490.91c0 40.614-32.924 73.538-73.538 73.538s-73.538-32.924-73.538-73.538 32.924-73.538 73.538-73.538 73.538 32.924 73.538 73.538z" fill="url(#al)"/>
  <path transform="translate(-696.32 -141.93)" d="m842.35 546.3c0 165.09-133.83 298.93-298.93 298.93-165.09 0-298.93-133.83-298.93-298.93 0-165.09 133.83-298.93 298.93-298.93 165.09 0 298.93 133.83 298.93 298.93z" fill="url(#am)"/>
  <path transform="matrix(.60566 0 0 .60566 -533.41 118.99)" d="m904.43 490.91c0 40.614-32.924 73.538-73.538 73.538s-73.538-32.924-73.538-73.538 32.924-73.538 73.538-73.538 73.538 32.924 73.538 73.538z"/>
  <path transform="matrix(.22059 0 0 .22059 -233.38 293.16)" d="m904.43 490.91c0 40.614-32.924 73.538-73.538 73.538s-73.538-32.924-73.538-73.538 32.924-73.538 73.538-73.538 73.538 32.924 73.538 73.538z" fill="#fff" stroke="#000" stroke-linecap="round" stroke-linejoin="round" stroke-width="5.5"/>
  <path transform="matrix(.10845 0 0 .10845 -119.95 358)" d="m904.43 490.91c0 40.614-32.924 73.538-73.538 73.538s-73.538-32.924-73.538-73.538 32.924-73.538 73.538-73.538 73.538 32.924 73.538 73.538z" fill="#fff"/>
  <path transform="matrix(.60566 0 0 .60566 -761.67 153.37)" d="m904.43 490.91c0 40.614-32.924 73.538-73.538 73.538s-73.538-32.924-73.538-73.538 32.924-73.538 73.538-73.538 73.538 32.924 73.538 73.538z"/>
  <path transform="matrix(.22059 0 0 .22059 -461.64 327.54)" d="m904.43 490.91c0 40.614-32.924 73.538-73.538 73.538s-73.538-32.924-73.538-73.538 32.924-73.538 73.538-73.538 73.538 32.924 73.538 73.538z" fill="#fff" stroke="#000" stroke-linecap="round" stroke-linejoin="round" stroke-width="5.5"/>
  <path transform="matrix(.10845 0 0 .10845 -348.2 392.39)" d="m904.43 490.91c0 40.614-32.924 73.538-73.538 73.538s-73.538-32.924-73.538-73.538 32.924-73.538 73.538-73.538 73.538 32.924 73.538 73.538z" fill="#fff"/>
  <path d="m-353.46 266.84c-7.8611 35.122-20.74 72.489-5.5692 97.306 2.3418 3.8308 6.7132 6.0279 11.143 0 26.737-36.384 49.176-75.896 76.986-111.43-14.454 51.4-5.103 109.29 31.402 131.01 6.3261-32.639 11.296-68.667 19.922-95.557 12.51 41.766 24.302 83.977 67.532 106.7-4.4098-41.473-13.698-84.896-9.4544-122.91 17.927 41.362 55.49 66.594 109.06 78.675-3.5163-23.727-26.534-59.015-28.363-75.636 43.813 42.601 95.377 69.123 163.43 61.454-11.673-26.582-42.108-49.821-53.012-76.986 18.641 5.8309 39.316 40.971 66.181 53.35l68.882 31.74c3.1177 1.4366 7.5766 2.0972 9.1167-4.7272 14.781-65.494 2.1425-104.4-25.324-128.99-1.9878-1.7792-4.0784-4.9638-6.0778-8.7791-1.163-2.2192-1.1982-4.4731-3.3766-6.0779-3.4503-2.5418-0.051-5.7067 0.3376-8.4415 14.363 5.6775 30.866 19.917 46.935 32.415 3.0745 2.3914 6.9139 4.3405 9.4545 1.013-14.661-56.043-44.312-66.046-70.908-85.428-4.4928-3.2741-8.9906-7.5718-13.844-11.143-5.6827-4.1811-3.6166-7.7046-4.3896-11.143 15.394 3.8212 31.766 12.05 48.961 23.974-58.677-97.99-140.46-136-254.93-89.129-3.617 1.4809-10.057 1.3848-9.7921-3.0389 1.1027-18.411 13.714-33.752 27.013-48.285-27.072-1.6758-59.643 18.643-93.869 45.584-20.334-20.287-41.203-39.146-66.856-45.246l6.0778 36.467c1.7628 10.577-3.4021 13.056-11.143 10.467-93.217-31.17-128.23 14.368-176.93 42.883 12.493-1.7287 24.987-7.9101 37.48-4.0519-64.999 41.889-106.18 91.718-117.17 151.61 7.9913-9.9336 15.983-20.104 23.974-21.273 2.6436 3.6594 6.1222 7.2957 0.3377 18.571-21.153 41.232-40.893 126.16 28.701 162.75 44.945-39.07 65.541-91.66 98.088-127.69z" fill="url(#y)" stroke="#000" stroke-width="1px"/>
  <path transform="matrix(1.0637 0 0 1 -847.99 -50.054)" d="m729.18 587.13c0 22.021-22.448 39.873-50.14 39.873-19.508 0-37.246-8.9985-45.468-23.067" fill-opacity="0" stroke="#c92422" stroke-linecap="round" stroke-linejoin="round" stroke-width="7.8274"/>
  <path d="m184.14 383.93c-3.7624 1.3352-4.0442 4.1547-1.3793 5.5366 2.7106 2.8151 2.6613 7.0906 2.1643 10.716-0.6149 4.9665-2.8453 9.6042-5.9524 13.489-2.5415 3.4473-5.8448 6.3751-7.8395 10.199-1.3646 3.3036-2.0336 6.8706-2.4126 10.41-0.558 2.5242 1.8927 3.933 4.5583 3.1294 2.7238-0.82113 6.4053-2.4348 6.8903-4.1932 0.5483-3.4337 1.6007-6.9874 4.1785-9.4675 5.0005-5.4751 13.759-11.969 15.194-19.427 1.006-5.2295 0.6814-10.685-1.4707-15.766-0.9514-2.246-10.188-5.9552-13.931-4.627z" color="#000000" fill="#ecc07f" style="block-progression:tb;text-indent:0;text-transform:none"/>
  <path d="m-482.78 424.48c3.7624 1.3352 4.0442 4.1547 1.3793 5.5366-2.7106 2.8151-2.6613 7.0906-2.1643 10.716 0.6149 4.9665 2.8453 9.6042 5.9524 13.489 2.5415 3.4473 5.8448 6.3751 7.8395 10.199 1.3646 3.3036 2.0337 6.8706 2.4126 10.41 0.558 2.5242-1.8927 3.933-4.5583 3.1294-2.7237-0.82113-6.4053-2.4348-6.8903-4.1932-0.5483-3.4337-1.6007-6.9874-4.1784-9.4675-5.0006-5.4751-13.759-11.969-15.194-19.427-1.006-5.2295-0.6814-10.685 1.4707-15.766 0.9514-2.246 10.188-5.9552 13.931-4.627z" color="#000000" fill="#ecc07f" style="block-progression:tb;text-indent:0;text-transform:none"/>
  <path d="m-353.86 637.26c-17.701 27.782-45.982 53.01-89.774 74.493" fill="none" stroke="#1b5f1b" stroke-linecap="round" stroke-linejoin="round" stroke-width="5.9"/>
  <path d="m145.63 724.16c-44.49-12.75-73.577-45.89-94.554-89.77" fill="none" stroke="#1b5f1b" stroke-linecap="round" stroke-linejoin="round" stroke-width="5.9"/>
 </g>
 <g transform="matrix(.591 0 0 .591 -4.5154 -8.6892e-7)">
  <path d="m1253.4 1044.7-140.47 8.0938s45.354 5.3474-1.5812 108.17l-31.306 8.2182-26.087 128.26c-48.39 87.864 149 95.979 150.9 12.416l-28.504-64.978-19.219-58.554 22.978-32.979-0.3333-79.616 132.28-23.133 50.893 177.26-23.375 1.625s-4.9765 9.4661-33.962 75.12c-49.041 86.664 183.68 94.766 150.9-10.028l-23.14-44.466-13.062 0.9062-72.916-221.79z" fill="#333"/>
  <path d="m949.41 731.53-150.89-82.61c-90.76-49.68 15.91-217.17 115.56-102.19l99.325 114.61z" fill="#fddaa2"/>
  <path d="m1454.5 659.91 113.38-129.38c68.19-77.811 208.55 62.65 74.683 134.98l-133.43 72.093z" fill="#fddaa2"/>
  <path d="m1071.7 1154.6-17.668 142.78 150.9 12.416 4.2978-171.43 43.932-69.718 63.033 28.651-15.281 43.454 4.7751 163.79 150.9-10.028-29.129-171.43-210.59-100.28-141.65 95.167z" fill="#fddaa2"/>
  <path d="m1041.6 964.41c-7.1592 35.743-7.5536 54.11-17.43 126.78-1.1822 8.699-8.4727 38.928 6.4466 46.558 9.6337 4.9269 10.976 5.9241 21.488 7.1628 10.51 1.2384 46.32-3.5018 69.479-5.2527 12.245-0.9258 46.338 11.096 59.929 10.506 0 0 21.966-0.9551 32.949-1.4326 4.7753-0.2077 29.989-11.49 37.724-10.028 13.052 2.4672 26.105 4.9344 39.157 7.4016 4.5931 0.8682 16.84 5.7837 22.921 5.4915 154-7.4005 129.91 1.4076 146.07-4.2637 6.6432-2.3309 8.3772-11.108 7.4136-15.597-9.9905-46.543-22.061-147.1-27.585-194.1l-384.72-11.906c-8.9386 1.2238-11.116 25.042-13.848 38.679z" fill="url(#ah)"/>
  <path d="m1385.3 917.8-314.56 0.0312-23.812 212.75 29.094 1 9-204.69 14.25-0.28125-7.4687 204.91 25.125-0.5625 3.5625-194.22 19.688 0.9375-3.5313 193.25 14.281 5.4689 6.4687-197.91 16.906 0.78125 0.125 202.63 14.125-0.4375 1.6562-201.59 16.438 2.7812h0.062l2.5 194.63 19.781-7.6875 1.9062-182.88 15.781 2.6562 4.3437 177.44 17.781 4.2814-7.2813-186.69 15.781 0.0937 10.344 189.75 21.5 6.6874-8.6875-196.31 16.844 0.0937 14.125 197.28 24.906 0.094-12.312-196.81 19.281-1.9375 14.906 198.41c3.7865 0.012 23.522 1.8218 21.281 0.062l-12.719-200.84 18.594-1.875 19.5 202.75 25.156 0.2186-25.406-210.75-38.5-0.8125-0.8125-12.688z" fill="url(#ag)"/>
  <path d="m1049.2 783.11c-7.5726 55.341 0.3805 52.397-16.713 106.49-5.4308 17.185-2.9841 37.387 21.966 42.022 195.07 36.242 287.06 26.457 382.5 7.1628 5.8696-1.1866 7.3297-7.9064 5.7302-14.326l-35.814-143.73c41.085-13.127 105.62-36.747 141.82-51.095-49.456-18.712-80.69-45.411-99.802-83.089l-435.98-3.3426c-21.536 33.22-57.227 64.222-92.639 83.566 25.178 26.836 91.088 38.722 128.93 56.348z" fill="url(#ai)"/>
  <path transform="translate(672.38 -130.27)" d="m842.35 546.3c0 165.09-133.83 298.93-298.93 298.93-165.09 0-298.93-133.83-298.93-298.93 0-165.09 133.83-298.93 298.93-298.93 165.09 0 298.93 133.83 298.93 298.93z" fill="url(#an)"/>
  <path transform="matrix(.63074 0 0 .63074 584.28 170.75)" d="m904.43 490.91c0 40.614-32.924 73.538-73.538 73.538s-73.538-32.924-73.538-73.538 32.924-73.538 73.538-73.538 73.538 32.924 73.538 73.538z" fill="#260f0f" stroke="#000"/>
  <path transform="matrix(.63302 0 0 .63302 816.22 159.06)" d="m904.43 490.91c0 40.614-32.924 73.538-73.538 73.538s-73.538-32.924-73.538-73.538 32.924-73.538 73.538-73.538 73.538 32.924 73.538 73.538z" fill="#260f0f" stroke="#000"/>
  <path transform="matrix(.23055 0 0 .23055 1129.8 341.1)" d="m904.43 490.91c0 40.614-32.924 73.538-73.538 73.538s-73.538-32.924-73.538-73.538 32.924-73.538 73.538-73.538 73.538 32.924 73.538 73.538z" fill="#fff"/>
  <path transform="matrix(.11335 0 0 .11335 1248.4 408.87)" d="m904.43 490.91c0 40.614-32.924 73.538-73.538 73.538s-73.538-32.924-73.538-73.538 32.924-73.538 73.538-73.538 73.538 32.924 73.538 73.538z" fill="#fff"/>
  <path transform="matrix(.22972 0 0 .22972 897.08 360.92)" d="m904.43 490.91c0 40.614-32.924 73.538-73.538 73.538s-73.538-32.924-73.538-73.538 32.924-73.538 73.538-73.538 73.538 32.924 73.538 73.538z" fill="#fff"/>
  <path transform="matrix(.11294 0 0 .11294 1015.2 428.45)" d="m904.43 490.91c0 40.614-32.924 73.538-73.538 73.538s-73.538-32.924-73.538-73.538 32.924-73.538 73.538-73.538 73.538 32.924 73.538 73.538z" fill="#fff"/>
  <path d="m1206.6 68.083c-141.66 1.3215-269.93 108.68-281.54 164.5-6.6505 31.97-11.243 44.504-15.081 78.965l-12.625-44.375-21.969 7.1562c-65.07 12.495-64.639 128.68-50.594 199.12 7.5381 37.805-26.771 82.28-59.094 67.125-13.649-6.4-26.226-32.697-35-51.375 2.4131 39.179-20.459 105.12 47.781 106.5-0.5343 10.178-10.599 12.95-22.469 14.312 21.376 38.379 57.179 33.487 98.844 11-1.2685 11.143-13.099 20.52-29.594 29.125 68.744 15.983 97.845-38.619 95.031-76.875-2.9244-39.764-10.627-76.973-21.969-112.69-23.82-75.007-12.046-121.49-8.125-128.94 3.7109-7.0464 18.181-10.923 20.123-2.2982-2.3199 60.337 7.5001 123.61 15.534 159.75 1.7246-58.654 20.327-64.512 52.874-100.55 12.518 35.141 59.564 51.265 90.312 76.375 3.057 2.4964-36.386-141.44-32.062-132.38 72.738 152.55 35.208 19.25 63.688-29-7.1225 68.381 21.75 101.99 65.781 116.19-0.6934-28.427-30.096-67.403-10.656-100.78 12.51 41.766 6.1761 84.933 49.406 107.66-13.483-62.006 19.712-153.68 50.219-150.62 0.2585 66.193 12.668 112.05 89.162 136.55-4.9487-53.334-28.58-73.919-25.156-102 4.5236-32.109 53.924 35.19 67.901 105.39 33.764-21.534 28.18-63.167 39.156-98.938 18.641 5.8309 72.732 192.27 78.11 163.19l5.8492-121.08c-4.2014-34.396-26.672-83.234-43.063-106.43-0.7222-2.8795 29.337-21.093 31.947-12.713 2.5024 8.0331 29.07 72.056 5.25 147.06-11.342 35.714-11.888 73.892-14.812 113.66-2.8136 38.256 39.163 88.086 99.312 74.969-16.495-8.6053-29.763-19.888-31.031-31.031 41.665 22.487 75.092 28.817 96.469-9.5625-11.87-1.3621-29.559-2.6967-30.094-12.875 68.24-1.3821 61.096-52.044 51.094-104.59-8.7745 18.678-19.413 44.975-33.062 51.375-32.323 15.155-71.882-31.226-64.344-69.031 14.045-70.441 26.624-179.97-65.906-202l-40.094-9.5312 0.094 2.8438-39.156-32.906c-76-67.018-154.7-90.886-226.4-90.217z" fill="url(#af)"/>
  <path transform="matrix(1.0637 0 0 1 505.93 -13.87)" d="m729.18 587.13c0 22.021-22.448 39.873-50.14 39.873-19.508 0-37.246-8.9985-45.468-23.067" fill="none" stroke="#c92422" stroke-linecap="round" stroke-linejoin="round" stroke-width="7.8274"/>
  <path d="m881.42 234.07c-7.3084 10.221-4.2406 20.603-5.8351 30.604-1.6567 10.392-9.2137 19.724-9.6972 30.85-1.7052 39.239 41.43 33.062 48.623 29.039 15.925-8.9074 10.242-23.993 13.791-40.193 2.025-9.2419 5.8943-15.538 7.4813-24.638 6.1174-35.074-35.242-52.403-54.363-25.662z" fill="url(#ae)"/>
  <path d="m1480.1 171.01c6.8086 10.535 2.1294 19.68 2.6502 29.164 0.5411 9.8546 7.7348 19.605 6.8881 29.964-2.9859 36.536-49.893 24.424-57.343 19.637-16.495-10.599-8.341-23.705-10.253-39.211-1.0908-8.846-4.5857-15.242-5.2102-23.891-2.4073-33.339 45.455-43.227 63.268-15.663z" fill="url(#ad)"/>
  <path d="m1232.5 787.06c-0.3624-8.4151 21.705-10.929 22.444-0.95504l9.5504 128.93c-8.5448 5.9178-17.322 6.9529-26.502-0.47752z" fill="url(#aj)"/>
  <path d="m1548.7 729.62c-44.004-16.097-78.826-39.206-99.802-83.089" fill="none" stroke="#1b5f1b" stroke-linecap="round" stroke-linejoin="round" stroke-width="5.9"/>
  <path d="m1012.9 643.19c-17.701 27.782-48.847 62.082-92.639 83.566" fill="none" stroke="#1b5f1b" stroke-linecap="round" stroke-linejoin="round" stroke-width="5.9"/>
  <path d="m1339.5 865.17c-8.7992-16.144-14.147-33.972-8.1038-49.974 3.3163-8.7813 11.07-12.397 17.221-10.805 11.305 2.9257 21.56 0.96366 32.078 0.33766 10.157-0.60457 18.811 5.187 16.545 22.961-1.9547 15.333-9.1325 27.397-17.221 38.155-18.394 24.467-31.189 16.442-40.519-0.67532z" fill="#e1ebb9" stroke="#4e4e4e" stroke-linecap="round" stroke-linejoin="round" stroke-width="5.5"/>
  <path d="m1361.8 814.19h1.3506v52.337h-1.3506z" fill="#4e4e4e" stroke="#4e4e4e" stroke-linecap="round" stroke-linejoin="round" stroke-width="4.8"/>
  <path d="m1372.9 840.27c0 6.8533-5.0265 12.409-11.227 12.409-6.2006 0-11.227-5.5557-11.227-12.409s5.0265-12.409 11.227-12.409c6.2006 0 11.227 5.5557 11.227 12.409z" fill="#1b5f1b" stroke="#4e4e4e" stroke-linecap="round" stroke-linejoin="round" stroke-width="5.5"/>
 </g>
</svg>
