<?xml version="1.0" encoding="UTF-8"?>
<svg viewBox="0 0 687.17542 672.04779" xmlns="http://www.w3.org/2000/svg">
 <defs>
  <linearGradient id="a" x1="450.18" x2="445.02" y1="270" y2="546.78" gradientUnits="userSpaceOnUse">
   <stop stop-color="#d19b75" offset="0"/>
   <stop stop-color="#e8cdba" stop-opacity="0" offset="1"/>
  </linearGradient>
 </defs>
 <g transform="translate(-36.398 -48.292)">
  <path d="m224.06 432.6c-1.018 59.822-1.5509 107.9-23.383 163.13-12.6 31.878-42.902 10.827-54.09 30.228-11.138 19.313 10.474 16.503 23.848 13.528-18.511 1.0714-36.602 3.5839-31.126 18.114 10.237 27.159 35.161 12.996 50.936 9.7485-17.429 7.8121-39.094 2.8315-28.777 20.145 12.671 21.262 27.805 5.9689 40.099 1.4753-11.788 5.413-25.398 13.572-4.4794 22.122 11.861 4.8482 20.905 2.1879 26.114-8.8442-1.1471 6.4584-4.444 16.594 9.0641 17.475 20.014 1.3057 28.474-10.534 37.428-21.308 32.638-39.268 42.923-76.941 55.573-112.94 34.621 29.491 62.525 39.813 102.38 30.06-1.4034 44.235 20.403 65.644 53.445 74.156 22.717 5.8521 49.637 4.7926 74.566-0.13095 34.532-6.82 52.002-41.702 60.822-63.698-8.2635 23.07-38.006 46.077-3.2298 52.83 23.632 4.5888 29.899 0.29878 26.76-20.71 0.66355 12.578-4.4014 23.419 13.875 21.719 11.684-1.087 15.767-5.5929 12.885-17.76 5.2887 11.074 13.46 11.122 18.045 8.8927 14.438-7.0188 9.4056-12.975 10.925-24.318 4.5907 11.031 9.4563 10.652 14.379 8.0896 14.124-7.3532 14.6-36.298 11.146-54.118-6.8339-35.261-33.012-65.795-70.428-65.993-15.992 17.192-30.678 43.649-56.486 41.209-8.1101 26.691-22.319 32.038-35.406 41.307 16.527-13.098 30.385-27.797 33.931-48.684 30.428 10.39 53.47-18.908 59.01-39.832 10.1-38.143 1.8589-90.037-32.456-118.02-21.938-17.89-69.542-34.887-123.92-11.802-62.666 18.913-105.59 2.9015-134.25-38.357-51.104-22.446-119.75 8.4998-137.2 72.288z" fill-rule="evenodd" stroke="#000" stroke-width="1.0327"/>
  <path d="m473.73 428.71c-28.107-4.8606-57.539-23.773-52.57-60.381 23.318-15.964 45.646-20.419 59.93 0 17.055 24.38 6.7929 44.687-7.3598 60.381z" fill-rule="evenodd"/>
  <path d="m234.29 434.29c-0.98581 57.929-13.762 112.89-32.857 167.14-8.7475 24.852-39.22 8.8176-51.429 22.857-14.355 16.507 8.826 18.21 22.857 18.571-17.925 1.0374-37.137 0.60987-31.429 14.286 10.665 25.553 27.103 10.456 41.429 11.429-12.943 6.2092-26.394 3.6478-20 17.143 10.262 21.66 27.407 4.4374 39.312 0.08603-8.7983 7.8578-23.085 13.913-3.7522 24.165 12.436 6.5947 20.946-1.6166 27.022-11.962 0.09437 7.6651-7.7595 15.132 3.8382 19.346 17.257 6.2706 31.157-11.53 39.828-21.962 31.605-38.026 41.502-74.812 53.752-109.67 33.526 28.557 69.979 35.158 108.57 25.714-4.2879 43.811 17.459 66.302 51.429 75.714 18.367 5.0891 48.717 3.3392 72.857-1.4286 33.439-6.6042 50.031-42.986 58.571-64.286-4.3051 23.012-32.247 49.175 1.4286 55.714 22.884 4.4436 22.621-5.2857 24.286-24.286 3.3312 11.844-6.5401 29.512 15.714 24.286 11.062-2.5979 11.918-8.03 8.5714-21.429 8.2418 13.199 9.6592 15.057 19.165 12.101 16.264-5.0577 9.3695-15.403 10.841-26.386 3.4692 13.936 11.173 14.337 16.045 11.344 14.057-8.634 11.676-35.537 8.2354-52.773-8.2449-41.305-34.273-61.406-70.505-61.597-14.141 15.976-18.792 22.366-53.865 31.43-7.8534 25.847-12.874 26.991-35.63 43.025 18.693-15.036 29.423-26.918 32.857-47.143 25.432 2.3313 51.778-18.31 57.143-38.571 9.7806-36.936 1.8-87.188-31.429-114.29-21.243-17.324-67.341-33.783-120-11.429-60.683 18.314-102.25 2.8097-130-37.143-49.486-21.736-115.96 8.2308-132.86 70z" fill="#e8cdba" fill-rule="evenodd" stroke="#000"/>
  <path d="m472.43 424.9c-25.411-4.3616-52.021-21.332-47.529-54.183 21.082-14.325 41.268-18.323 54.183 0 15.419 21.878 6.1414 40.099-6.654 54.183z" fill="#fff" fill-rule="evenodd"/>
  <path d="m462.48 533.79c41.335-15.875 124.93-35.694 130.35 36.536 63.862-8.2128 59.134-54.836 59.248-98.747-31.816-121.24-128.2-82.505-202.43-66.16 20.543 32.782 26.509 74.534 12.837 128.37z" fill-rule="evenodd" stroke="#000" stroke-width="1.0388"/>
  <path d="m469.46 525.99c39.423-15.14 121.05-30.241 126.22 38.649 59.958-11.635 52.597-51.349 52.706-93.23-30.344-115.63-122.27-78.69-193.07-63.101 19.593 31.266 27.184 66.334 14.145 117.68z" fill="#fff" fill-rule="evenodd"/>
  <path d="m228.49 431.39-27.897 69.65c34.826 16.129 68.035 25.462 122.68 35.958 0.56446 14.148 3.0049 24.543-3.9852 53.8 27.782 22.168 60.474 37.952 114.57 25.904 45.689-68.184 66.116-162 57.877-218.19-67.638 20.582-90.483-5.5024-125.72-35.008-49.435-18.97-96.02-16.095-137.54 67.886z" fill-rule="evenodd"/>
  <path d="m232.27 433.2-26.616 64.639c54.923 26.965 104.22 28.977 144.09 38.932 15.672-30.034 14.342-124.41 3.4171-122.67 24.595 17.085 10.035 93.959 2.3803 127.37-22.1-2.3811-42.43-5.084-29.169-3.7142 0.5385 13.498 4.7681 22.466-1.9011 50.38 26.506 21.15 54.846 33.358 106.46 21.863 43.592-65.054 64.895-154.56 57.034-208.17-64.533 19.637-93.585-8.8776-123.57-36.122-47.166-18.099-92.519-12.636-132.13 67.49z" fill="#87cdde" fill-rule="evenodd" stroke="#000"/>
  <path d="m458.57 404.04c38.778 8.0634 52.261 40.178 44.074 92.108-44.114 1.8525-87.257-27.378-44.074-92.108z" fill-rule="evenodd" stroke="#000" stroke-width="1.0896"/>
  <path d="m459.13 407.79c35.963 7.323 48.467 36.489 40.875 83.65-40.911 1.6824-80.923-24.864-40.875-83.65z" fill="#fffffe" fill-rule="evenodd"/>
  <g transform="matrix(.72952 -.28635 .2482 .64896 -252.39 17.195)">
   <path d="m417.99 824.32c-52.296-7.7124-96.748-42.658-126.41-85.106-30.873-43.898-46.945-96.997-50.411-150.26-6.4215-10.24-22.329-11.657-23.967-26.056-3.729-10.622-2.6376-23.112 0.18261-33.972 1.9278-15.113 19.886-18.148 28.508-22.752 12.504-64.376 44.983-127.46 99.536-165.82 27.001-19.826 59.87-31.665 93.471-32.058 7.008-2.0088 21.564 3.1752 22.286-6.9688-2.4273-7.0679-1.3775-15.245 3.0622-19.776-10.384-5.9819-13.458-21.061 0.44666-25.192 15.774-5.1287 15.724 17.708 24.459 25.787 3.6572 12.215-15.225 13.897-7.4389 27.029 6.0472 8.1118 23.557 7.4991 33.058 14.742 53.1 25.428 91.604 74.843 112.13 129.17 7.8803 20.476 13.479 41.817 16.849 63.493 12.842-0.33129 31.578 4.038 31.28 20.123 0.89844 16.398-0.89839 34.602-11.588 47.771-6.0143 7.8362-20.421 4.2075-17.538 16.955-6.8977 63.174-31.436 126.21-77.583 171.08-31.963 31.969-75.548 54.047-121.47 53.293-9.6371 0.10423-19.274-0.4542-28.855-1.4812z" fill="#e8cdba"/>
   <path d="m417.99 824.32c-52.296-7.7124-96.748-42.658-126.41-85.106-30.873-43.898-46.945-96.997-50.411-150.26-6.4215-10.24-22.329-11.657-23.967-26.056-3.729-10.622-2.6376-23.112 0.18261-33.972 1.9278-15.113 19.886-18.148 28.508-22.752 12.504-64.376 44.983-127.46 99.536-165.82 27.001-19.826 59.87-31.665 93.471-32.058 7.008-2.0088 21.564 3.1752 22.286-6.9688-2.4273-7.0679-1.3775-15.245 3.0622-19.776-10.384-5.9819-13.458-21.061 0.44666-25.192 15.774-5.1287 15.724 17.708 24.459 25.787 3.6572 12.215-15.225 13.897-7.4389 27.029 6.0472 8.1118 23.557 7.4991 33.058 14.742 53.1 25.428 91.604 74.843 112.13 129.17 7.8803 20.476 13.479 41.817 16.849 63.493 12.842-0.33129 31.578 4.038 31.28 20.123 0.89844 16.398-0.89839 34.602-11.588 47.771-6.0143 7.8362-20.421 4.2075-17.538 16.955-6.8977 63.174-31.436 126.21-77.583 171.08-31.963 31.969-75.548 54.047-121.47 53.293-9.6371 0.10423-19.274-0.4542-28.855-1.4812z" fill="url(#a)"/>
   <path d="m417.99 824.32c-52.296-7.7124-96.748-42.658-126.41-85.106-30.873-43.898-46.945-96.997-50.411-150.26-6.4215-10.24-22.329-11.657-23.967-26.056-3.729-10.622-2.6376-23.112 0.18261-33.972 1.9278-15.113 19.886-18.148 28.508-22.752 12.504-64.376 44.983-127.46 99.536-165.82 27.001-19.826 59.87-31.665 93.471-32.058 7.008-2.0088 21.564 3.1752 22.286-6.9688-2.4273-7.0679-1.3775-15.245 3.0622-19.776-10.384-5.9819-13.458-21.061 0.44666-25.192 15.774-5.1287 15.724 17.708 24.459 25.787 3.6572 12.215-15.225 13.897-7.4389 27.029 6.0472 8.1118 23.557 7.4991 33.058 14.742 53.1 25.428 91.604 74.843 112.13 129.17 7.8803 20.476 13.479 41.817 16.849 63.493 12.842-0.33129 31.578 4.038 31.28 20.123 0.89844 16.398-0.89839 34.602-11.588 47.771-6.0143 7.8362-20.421 4.2075-17.538 16.955-6.8977 63.174-31.436 126.21-77.583 171.08-31.963 31.969-75.548 54.047-121.47 53.293-9.6371 0.10423-19.274-0.4542-28.855-1.4812zm52.1-4.7706c52.804-8.1075 97.395-44.244 126.21-87.909 27.124-41.128 41.705-89.627 46.2-138.45 2.1074-9.6593 20.505-5.9733 22.594-18.821 4.9498-10.72 5.6838-22.889 6.3267-34.476 0.15489-14.233-14.287-19.397-26.213-18.847-11.093-2.4671-5.7838-16.686-9.8087-24.646-13.834-61.627-47.467-121.12-101.02-156.41-16.201-10.536-34.066-18.59-52.823-23.311-5.4832 8.933-21.2 4.3372-23.529 15.301-12.329 11.937-23.033-9.7361-13.596-19.529-7.9947-1.2569-16.999 1.0807-25.312 1.9738-49.623 7.3894-92.55 39.384-121.28 79.482-21.299 29.509-35.81 63.614-44.623 98.776-0.54422 11.524-4.4729 23.775-17.977 22.305-15.972 6.7815-17.959 27.315-15.03 42.268 0.56457 17.133 21.201 18.463 26.268 31.722-0.68175 18.341 3.4291 36.688 7.337 54.585 14.133 58.47 46.606 114.28 96.797 148.75 34.525 23.935 77.888 34.655 119.48 27.238zm-30.01-61.453c-13.948-1.6729-27.084-6.4974-39.568-12.763-11.966-4.7136-22.855-11.166-33.451-18.396-10.893-6.6515-14.302-19.66-22.297-29.002-8.0676-14.619-15.507-30.311-15.619-47.411-2.9061-10.535 0.66504-25.011-2.3133-33.101-10.835-0.44736-22.572 6.0042-32.718 1.0835-5.3719-9.8258 14.461 0.62869 19.865-3.4139 13.249-1.3462 26.694-8.841 31.492-21.82 1.7963-5.7927 10.363-10.934 6.0425-0.85519-3.2174 12.59-18.988 17.683-20.04 30.769 0.29817 12.359 1.1419 24.815 2.8474 37.073 1.5503 12.014 7.8458 22.16 13.23 32.707 8.7254 15.369 19.162 31.64 36.309 38.452 11.73 7.4666 24.796 11.962 37.398 17.579 11.937 2.9344 24.691 7.164 36.797 2.7171 17.779-5.9717 34.787-14.093 50.033-25.055 12.124-6.1367 20.762-16.199 27.032-28.035 6.4515-11.073 12.059-22.775 15.85-35.048 3.4881-14.379 2.6099-29.516 2.6314-44.128-0.75676-11.052-6.1528-20.423-14.68-27.169-4.5155-3.0611-12.62-20.639-3.034-10.944 7.2299 10.026 16.566 20.842 30.278 18.904 11.792 0.63369 24.368 0.78182 35.019-5.0824 8.6071 5.0315-10.888 9.5325-15.592 8.9683-9.163 2.5192-25.091-2.7159-30.011 3.4015 3.42 15.412 2.353 31.384 1.2646 46.993-3.1135 22.957-15.83 43.159-27.991 62.303-11.388 11.495-26.121 18.961-39.929 27.11-13.642 6.1528-27.55 13.279-42.646 14.684-2.0772 0.05286-4.1632-0.10535-6.2006-0.52081zm189.85-182.6c0.48399-9.648 19.352 6.837 20.067-7.499 4.1625-8.732 6.7744-31.55-6.389-31.223-3.7426 2.0341-17.808 10.727-10.726 0.63786 10.629-11.047 27.953-2.8218 24.498 12.713 0.31411 11.221-1.9195 29.779-16.968 28.166-3.6262 4e-5 -7.53-0.4841-10.481-2.7951zm-391.83-9.4246c-7.8096-10.498-11.978-25.869-3.9045-37.183 4.3495-6.1814 22.109 1.4044 13.767 4.7124-14.113-7.1735-17.408 15.268-10.545 23.609 1.8914 8.3993 10.782 4.3926 13.564 3.3518 2.676 6.1316-9.6396 9.6726-12.881 5.51zm219.79-52.519c-13.395-11.047 13.252-27.876 18.024-11.492 4.3917 10.272-10.711 20.628-18.024 11.492zm-39-9c-13.395-11.047 13.252-27.876 18.024-11.492 4.3917 10.272-10.711 20.628-18.024 11.492zm79.6-22.912c-5.7631-6.0597-25.995-9.2795-23.25-16.032 10.011 0.81992 26.138 8.0061 28.221 16.468-1.4705 1.0256-3.6215 0.5798-4.9709-0.43584zm-106.67-6.2656c7.2883-10.569 21.271-13.074 32.361-17.724 4.8154 9.7014-14.848 8.0487-19.555 14.742-3.7427 2.1902-8.387 5.0024-12.805 2.9823zm61.929-145.17c0.63117-14.58 28.1-6.3502 23.417-23.943-2.8993-6.6309-3.317-15.712 5.8307-15.883 7.9528-11.491-12.305-19.386-11.343-30.181-12.409-3.4858-16.654 15.617-3.4806 18.01 3.6942 8.6421-10.716 17.008-1.6377 25.681-1.9952 11.431-30.939 9.4046-18.817 26.688 1.544 2.0063 4.6836 1.7341 6.0306-0.37188z"/>
   <path d="m440.08 758.1c-13.948-1.6729-27.084-6.4974-39.568-12.763-11.966-4.7136-22.855-11.166-33.451-18.396-10.893-6.6515-14.302-19.66-22.297-29.002-8.0676-14.619-15.507-30.311-15.619-47.411-2.9061-10.535 0.66504-25.011-2.3133-33.101-10.835-0.44736-22.572 6.0042-32.718 1.0835-5.3719-9.8258 14.461 0.62869 19.865-3.4139 13.249-1.3462 26.694-8.841 31.492-21.82 1.7963-5.7927 10.363-10.934 6.0425-0.85519-3.2174 12.59-18.988 17.683-20.04 30.769 0.29817 12.359 1.1419 24.815 2.8474 37.073 1.5503 12.014 7.8458 22.16 13.23 32.707 8.7254 15.369 19.162 31.64 36.309 38.452 11.73 7.4666 24.796 11.962 37.398 17.579 11.937 2.9344 24.691 7.164 36.797 2.7171 17.779-5.9717 34.787-14.093 50.033-25.055 12.124-6.1367 20.762-16.199 27.032-28.035 6.4515-11.073 12.059-22.775 15.85-35.048 3.4881-14.379 2.6099-29.516 2.6314-44.128-0.75676-11.052-6.1528-20.423-14.68-27.169-4.5155-3.0611-12.62-20.639-3.034-10.944 7.2299 10.026 16.566 20.842 30.278 18.904 11.792 0.63369 24.368 0.78182 35.019-5.0824 8.6071 5.0315-10.888 9.5325-15.592 8.9683-9.163 2.5192-25.091-2.7159-30.011 3.4015 3.42 15.412 2.353 31.384 1.2646 46.993-3.1135 22.957-15.83 43.159-27.991 62.303-11.388 11.495-26.121 18.961-39.929 27.11-13.642 6.1528-27.55 13.279-42.646 14.684-2.0772 0.05286-4.1632-0.10535-6.2006-0.52081z"/>
   <path d="m629.93 575.49c0.48399-9.648 19.352 6.837 20.067-7.499 4.1625-8.732 6.7744-31.55-6.389-31.223-3.7426 2.0341-17.808 10.727-10.726 0.63786 10.629-11.047 27.953-2.8218 24.498 12.713 0.31411 11.221-1.9195 29.779-16.968 28.166-3.6262 4e-5 -7.53-0.4841-10.481-2.7951z"/>
   <path d="m238.1 566.07c-7.8096-10.498-11.978-25.869-3.9045-37.183 4.3495-6.1814 22.109 1.4044 13.767 4.7124-14.113-7.1735-17.408 15.268-10.545 23.609 1.8914 8.3993 10.782 4.3926 13.564 3.3518 2.676 6.1316-9.6396 9.6726-12.881 5.51z"/>
   <path d="m457.89 513.55c-13.395-11.047 13.252-27.876 18.024-11.492 4.3917 10.272-10.711 20.628-18.024 11.492z"/>
   <path d="m418.89 504.55c-13.395-11.047 13.252-27.876 18.024-11.492 4.3917 10.272-10.711 20.628-18.024 11.492z"/>
   <path d="m498.49 481.64c-5.7631-6.0597-25.995-9.2795-23.25-16.032 10.011 0.81992 26.138 8.0061 28.221 16.468-1.4705 1.0256-3.6215 0.5798-4.9709-0.43584z"/>
   <path d="m391.82 475.37c7.2883-10.569 21.271-13.074 32.361-17.724 4.8154 9.7014-14.848 8.0487-19.555 14.742-3.7427 2.1902-8.387 5.0024-12.805 2.9823z"/>
   <path d="m453.75 330.2c0.63117-14.58 28.1-6.3502 23.417-23.943-2.8993-6.6309-3.317-15.712 5.8307-15.883 7.9528-11.491-12.305-19.386-11.343-30.181-12.409-3.4858-16.654 15.617-3.4806 18.01 3.6942 8.6421-10.716 17.008-1.6377 25.681-1.9952 11.431-30.939 9.4046-18.817 26.688 1.544 2.0063 4.6836 1.7341 6.0306-0.37188z" fill="#947968"/>
  </g>
 </g>
</svg>
